<?xml version="1.0" encoding="iso-8859-1"?>
<!-- Generator: Adobe Illustrator 19.1.1, SVG Export Plug-In . SVG Version: 6.00 Build 0)  -->
<svg xmlns="http://www.w3.org/2000/svg" xmlns:xlink="http://www.w3.org/1999/xlink" version="1.1" id="Layer_1" x="0px" y="0px" viewBox="0 0 40 40" style="enable-background:new 0 0 40 40;" xml:space="preserve">
<g>
	<path style="fill:#839CB2;" d="M2.633,32.5c-1.176,0-2.133-0.957-2.133-2.133V9.633C0.5,8.457,1.457,7.5,2.633,7.5h34.733   c1.176,0,2.133,0.957,2.133,2.133v20.733c0,1.176-0.957,2.133-2.133,2.133H2.633z"/>
	<g>
		<path style="fill:#66798F;" d="M37.367,8C38.267,8,39,8.733,39,9.633v20.734C39,31.267,38.267,32,37.367,32H2.633    C1.733,32,1,31.267,1,30.367V9.633C1,8.733,1.733,8,2.633,8H37.367 M37.367,7H2.633C1.185,7,0,8.185,0,9.633v20.734    C0,31.815,1.185,33,2.633,33h34.734C38.815,33,40,31.815,40,30.367V9.633C40,8.185,38.815,7,37.367,7L37.367,7z"/>
	</g>
</g>
<g>
	<g>
		<polygon style="fill:#FFFFFF;" points="17,13 13,18.6 9,13 5,13 5,27 9,27 9,18.111 13,23.667 17,17.944 17,27 21,27 21,13   "/>
	</g>
</g>
<g>
	<g>
		<polygon style="fill:#FFFFFF;" points="32,20 32,13 28,13 28,20 24.25,20 30,27 36,20   "/>
	</g>
</g>
</svg>
