<svg width="64" height="48" viewBox="0 0 64 48" fill="none" xmlns="http://www.w3.org/2000/svg">
<path d="M37 32L29.5 33.5L31.2 26.14L49.79 7.56002C53.97 7.15002 56.4 9.83002 56 14L37 32Z" stroke="#A4A4A4" stroke-miterlimit="10"/>
<path d="M42.79 14.69L48.79 20.69" stroke="#A4A4A4" stroke-miterlimit="10"/>
<path d="M50.73 25.63L57.01 19.35C57.66 18.7 57.66 17.63 57.01 16.98L55.02 14.93" stroke="#A4A4A4" stroke-miterlimit="10"/>
<path d="M10.41 28.23C5.91002 29.73 2.43002 40.17 9.84002 40.21C13.5 40.23 16.64 33.54 18.84 35.71C19.97 36.83 21.65 39.41 23.34 40.21C25.5 41.23 30.5 39.23 30.5 39.23" stroke="#579BF9" stroke-miterlimit="10"/>
</svg>
