<svg width="16" height="16" viewBox="0 0 16 16" fill="none" xmlns="http://www.w3.org/2000/svg">
<path d="M7.5 9.51503L5 10.07L5.5 7.51503L11.5 1.51503C12.875 1.38003 13.635 2.14003 13.5 3.51503L7.5 9.51503Z" stroke="#A4A4A4" stroke-miterlimit="10"/>
<path d="M9.31494 3.91003L11.1749 5.77003" stroke="#A4A4A4" stroke-miterlimit="10"/>
<path d="M13.3251 3.66504L14.3351 4.67504C14.5551 4.89504 14.5551 5.24504 14.3351 5.46504L11.9651 7.83504" stroke="#A4A4A4" stroke-miterlimit="10"/>
<path d="M3.13506 10.505C1.63506 11.005 0.450064 14.48 2.94506 14.5C3.99506 14.505 4.99506 12.005 5.94506 13C5.94506 13 6.82006 14.5 7.44506 14.5C9.44506 14.5 10.9951 14.005 10.9951 14.005" stroke="#579BF9" stroke-miterlimit="10"/>
</svg>
