<svg width="29" height="33" viewBox="0 0 29 33" fill="none" xmlns="http://www.w3.org/2000/svg">
<path d="M1 31.5V6.5C1 6.22386 1.22386 6 1.5 6H16.0858C16.351 6 16.6054 6.10536 16.7929 6.29289L22.2071 11.7071C22.3946 11.8946 22.5 12.149 22.5 12.4142V31.5C22.5 32.0523 22.0523 32.5 21.5 32.5H2C1.44772 32.5 1 32.0523 1 31.5Z" fill="#E6EAFF" stroke="#CED0D3"/>
<path d="M17.25 5L17.4736 4.55279C17.3186 4.47529 17.1345 4.48357 16.9871 4.57467C16.8397 4.66578 16.75 4.82671 16.75 5H17.25ZM18.25 5.5L18.6036 5.14645L18.5462 5.08907L18.4736 5.05279L18.25 5.5ZM16.75 5V10H17.75V5H16.75ZM23.6036 10.1464L18.6036 5.14645L17.8964 5.85355L22.8964 10.8536L23.6036 10.1464ZM18.4736 5.05279L17.4736 4.55279L17.0264 5.44721L18.0264 5.94721L18.4736 5.05279ZM18.2501 11.5C18.2536 11.5 18.2571 11.5 18.2606 11.5C18.2641 11.5 18.2676 11.5 18.271 11.5C18.2745 11.5 18.278 11.5 18.2815 11.5C18.2849 11.5 18.2884 11.5 18.2919 11.5C18.2954 11.5 18.2988 11.5 18.3023 11.5C18.3058 11.5 18.3092 11.5 18.3127 11.5C18.3162 11.5 18.3197 11.5 18.3231 11.5C18.3266 11.5 18.33 11.5 18.3335 11.5C18.337 11.5 18.3404 11.5 18.3439 11.5C18.3474 11.5 18.3508 11.5 18.3543 11.5C18.3577 11.5 18.3612 11.5 18.3647 11.5C18.3681 11.5 18.3716 11.5 18.375 11.5C18.3785 11.5 18.3819 11.5 18.3854 11.5C18.3888 11.5 18.3923 11.5 18.3957 11.5C18.3992 11.5 18.4026 11.5 18.4061 11.5C18.4095 11.5 18.413 11.5 18.4164 11.5C18.4199 11.5 18.4233 11.5 18.4267 11.5C18.4302 11.5 18.4336 11.5 18.4371 11.5C18.4405 11.5 18.4439 11.5 18.4474 11.5C18.4508 11.5 18.4543 11.5 18.4577 11.5C18.4611 11.5 18.4646 11.5 18.468 11.5C18.4714 11.5 18.4749 11.5 18.4783 11.5C18.4817 11.5 18.4851 11.5 18.4886 11.5C18.492 11.5 18.4954 11.5 18.4988 11.5C18.5023 11.5 18.5057 11.5 18.5091 11.5C18.5125 11.5 18.516 11.5 18.5194 11.5C18.5228 11.5 18.5262 11.5 18.5296 11.5C18.5331 11.5 18.5365 11.5 18.5399 11.5C18.5433 11.5 18.5467 11.5 18.5501 11.5C18.5536 11.5 18.557 11.5 18.5604 11.5C18.5638 11.5 18.5672 11.5 18.5706 11.5C18.574 11.5 18.5774 11.5 18.5808 11.5C18.5843 11.5 18.5877 11.5 18.5911 11.5C18.5945 11.5 18.5979 11.5 18.6013 11.5C18.6047 11.5 18.6081 11.5 18.6115 11.5C18.6149 11.5 18.6183 11.5 18.6217 11.5C18.6251 11.5 18.6285 11.5 18.6319 11.5C18.6353 11.5 18.6387 11.5 18.6421 11.5C18.6455 11.5 18.6488 11.5 18.6522 11.5C18.6556 11.5 18.659 11.5 18.6624 11.5C18.6658 11.5 18.6692 11.5 18.6726 11.5C18.676 11.5 18.6794 11.5 18.6827 11.5C18.6861 11.5 18.6895 11.5 18.6929 11.5C18.6963 11.5 18.6997 11.5 18.703 11.5C18.7064 11.5 18.7098 11.5 18.7132 11.5C18.7166 11.5 18.7199 11.5 18.7233 11.5C18.7267 11.5 18.7301 11.5 18.7334 11.5C18.7368 11.5 18.7402 11.5 18.7436 11.5C18.7469 11.5 18.7503 11.5 18.7537 11.5C18.757 11.5 18.7604 11.5 18.7638 11.5C18.7672 11.5 18.7705 11.5 18.7739 11.5C18.7773 11.5 18.7806 11.5 18.784 11.5C18.7873 11.5 18.7907 11.5 18.7941 11.5C18.7974 11.5 18.8008 11.5 18.8042 11.5C18.8075 11.5 18.8109 11.5 18.8142 11.5C18.8176 11.5 18.821 11.5 18.8243 11.5C18.8277 11.5 18.831 11.5 18.8344 11.5C18.8377 11.5 18.8411 11.5 18.8444 11.5C18.8478 11.5 18.8511 11.5 18.8545 11.5C18.8578 11.5 18.8612 11.5 18.8645 11.5C18.8679 11.5 18.8712 11.5 18.8746 11.5C18.8779 11.5 18.8813 11.5 18.8846 11.5C18.888 11.5 18.8913 11.5 18.8947 11.5C18.898 11.5 18.9013 11.5 18.9047 11.5C18.908 11.5 18.9114 11.5 18.9147 11.5C18.918 11.5 18.9214 11.5 18.9247 11.5C18.928 11.5 18.9314 11.5 18.9347 11.5C18.9381 11.5 18.9414 11.5 18.9447 11.5C18.9481 11.5 18.9514 11.5 18.9547 11.5C18.958 11.5 18.9614 11.5 18.9647 11.5C18.968 11.5 18.9714 11.5 18.9747 11.5C18.978 11.5 18.9813 11.5 18.9847 11.5C18.988 11.5 18.9913 11.5 18.9946 11.5C18.998 11.5 19.0013 11.5 19.0046 11.5C19.0079 11.5 19.0113 11.5 19.0146 11.5C19.0179 11.5 19.0212 11.5 19.0245 11.5C19.0279 11.5 19.0312 11.5 19.0345 11.5C19.0378 11.5 19.0411 11.5 19.0444 11.5C19.0478 11.5 19.0511 11.5 19.0544 11.5C19.0577 11.5 19.061 11.5 19.0643 11.5C19.0676 11.5 19.0709 11.5 19.0742 11.5C19.0776 11.5 19.0809 11.5 19.0842 11.5C19.0875 11.5 19.0908 11.5 19.0941 11.5C19.0974 11.5 19.1007 11.5 19.104 11.5C19.1073 11.5 19.1106 11.5 19.1139 11.5C19.1172 11.5 19.1205 11.5 19.1238 11.5C19.1271 11.5 19.1304 11.5 19.1337 11.5C19.137 11.5 19.1403 11.5 19.1436 11.5C19.1469 11.5 19.1502 11.5 19.1535 11.5C19.1568 11.5 19.1601 11.5 19.1634 11.5C19.1667 11.5 19.17 11.5 19.1733 11.5C19.1766 11.5 19.1799 11.5 19.1831 11.5C19.1864 11.5 19.1897 11.5 19.193 11.5C19.1963 11.5 19.1996 11.5 19.2029 11.5C19.2062 11.5 19.2095 11.5 19.2127 11.5C19.216 11.5 19.2193 11.5 19.2226 11.5C19.2259 11.5 19.2292 11.5 19.2324 11.5C19.2357 11.5 19.239 11.5 19.2423 11.5C19.2456 11.5 19.2489 11.5 19.2521 11.5C19.2554 11.5 19.2587 11.5 19.262 11.5C19.2652 11.5 19.2685 11.5 19.2718 11.5C19.2751 11.5 19.2783 11.5 19.2816 11.5C19.2849 11.5 19.2882 11.5 19.2914 11.5C19.2947 11.5 19.298 11.5 19.3013 11.5C19.3045 11.5 19.3078 11.5 19.3111 11.5C19.3143 11.5 19.3176 11.5 19.3209 11.5C19.3241 11.5 19.3274 11.5 19.3307 11.5C19.334 11.5 19.3372 11.5 19.3405 11.5C19.3437 11.5 19.347 11.5 19.3503 11.5C19.3535 11.5 19.3568 11.5 19.3601 11.5C19.3633 11.5 19.3666 11.5 19.3699 11.5C19.3731 11.5 19.3764 11.5 19.3796 11.5C19.3829 11.5 19.3862 11.5 19.3894 11.5C19.3927 11.5 19.3959 11.5 19.3992 11.5C19.4024 11.5 19.4057 11.5 19.4089 11.5C19.4122 11.5 19.4155 11.5 19.4187 11.5C19.422 11.5 19.4252 11.5 19.4285 11.5C19.4317 11.5 19.435 11.5 19.4382 11.5C19.4415 11.5 19.4447 11.5 19.448 11.5C19.4512 11.5 19.4545 11.5 19.4577 11.5C19.461 11.5 19.4642 11.5 19.4675 11.5C19.4707 11.5 19.474 11.5 19.4772 11.5C19.4804 11.5 19.4837 11.5 19.4869 11.5C19.4902 11.5 19.4934 11.5 19.4967 11.5C19.4999 11.5 19.5032 11.5 19.5064 11.5C19.5096 11.5 19.5129 11.5 19.5161 11.5C19.5194 11.5 19.5226 11.5 19.5258 11.5C19.5291 11.5 19.5323 11.5 19.5355 11.5C19.5388 11.5 19.542 11.5 19.5453 11.5C19.5485 11.5 19.5517 11.5 19.555 11.5C19.5582 11.5 19.5614 11.5 19.5647 11.5C19.5679 11.5 19.5711 11.5 19.5744 11.5C19.5776 11.5 19.5808 11.5 19.5841 11.5C19.5873 11.5 19.5905 11.5 19.5937 11.5C19.597 11.5 19.6002 11.5 19.6034 11.5C19.6067 11.5 19.6099 11.5 19.6131 11.5C19.6163 11.5 19.6196 11.5 19.6228 11.5C19.626 11.5 19.6293 11.5 19.6325 11.5C19.6357 11.5 19.6389 11.5 19.6421 11.5C19.6454 11.5 19.6486 11.5 19.6518 11.5C19.655 11.5 19.6583 11.5 19.6615 11.5C19.6647 11.5 19.6679 11.5 19.6711 11.5C19.6744 11.5 19.6776 11.5 19.6808 11.5C19.684 11.5 19.6872 11.5 19.6905 11.5C19.6937 11.5 19.6969 11.5 19.7001 11.5C19.7033 11.5 19.7065 11.5 19.7098 11.5C19.713 11.5 19.7162 11.5 19.7194 11.5C19.7226 11.5 19.7258 11.5 19.729 11.5C19.7323 11.5 19.7355 11.5 19.7387 11.5C19.7419 11.5 19.7451 11.5 19.7483 11.5C19.7515 11.5 19.7547 11.5 19.7579 11.5C19.7612 11.5 19.7644 11.5 19.7676 11.5C19.7708 11.5 19.774 11.5 19.7772 11.5C19.7804 11.5 19.7836 11.5 19.7868 11.5C19.79 11.5 19.7932 11.5 19.7964 11.5C19.7996 11.5 19.8028 11.5 19.8061 11.5C19.8093 11.5 19.8125 11.5 19.8157 11.5C19.8189 11.5 19.8221 11.5 19.8253 11.5C19.8285 11.5 19.8317 11.5 19.8349 11.5C19.8381 11.5 19.8413 11.5 19.8445 11.5C19.8477 11.5 19.8509 11.5 19.8541 11.5C19.8573 11.5 19.8605 11.5 19.8637 11.5C19.8669 11.5 19.8701 11.5 19.8733 11.5C19.8765 11.5 19.8797 11.5 19.8829 11.5C19.8861 11.5 19.8893 11.5 19.8925 11.5C19.8957 11.5 19.8988 11.5 19.902 11.5C19.9052 11.5 19.9084 11.5 19.9116 11.5C19.9148 11.5 19.918 11.5 19.9212 11.5C19.9244 11.5 19.9276 11.5 19.9308 11.5C19.934 11.5 19.9372 11.5 19.9404 11.5C19.9435 11.5 19.9467 11.5 19.9499 11.5C19.9531 11.5 19.9563 11.5 19.9595 11.5C19.9627 11.5 19.9659 11.5 19.9691 11.5C19.9723 11.5 19.9754 11.5 19.9786 11.5C19.9818 11.5 19.985 11.5 19.9882 11.5C19.9914 11.5 19.9946 11.5 19.9977 11.5C20.0009 11.5 20.0041 11.5 20.0073 11.5C20.0105 11.5 20.0137 11.5 20.0169 11.5C20.02 11.5 20.0232 11.5 20.0264 11.5C20.0296 11.5 20.0328 11.5 20.036 11.5C20.0391 11.5 20.0423 11.5 20.0455 11.5C20.0487 11.5 20.0519 11.5 20.055 11.5C20.0582 11.5 20.0614 11.5 20.0646 11.5C20.0678 11.5 20.0709 11.5 20.0741 11.5C20.0773 11.5 20.0805 11.5 20.0837 11.5C20.0868 11.5 20.09 11.5 20.0932 11.5C20.0964 11.5 20.0996 11.5 20.1027 11.5C20.1059 11.5 20.1091 11.5 20.1123 11.5C20.1154 11.5 20.1186 11.5 20.1218 11.5C20.125 11.5 20.1281 11.5 20.1313 11.5C20.1345 11.5 20.1377 11.5 20.1408 11.5C20.144 11.5 20.1472 11.5 20.1504 11.5C20.1535 11.5 20.1567 11.5 20.1599 11.5C20.1631 11.5 20.1662 11.5 20.1694 11.5C20.1726 11.5 20.1757 11.5 20.1789 11.5C20.1821 11.5 20.1853 11.5 20.1884 11.5C20.1916 11.5 20.1948 11.5 20.1979 11.5C20.2011 11.5 20.2043 11.5 20.2074 11.5C20.2106 11.5 20.2138 11.5 20.217 11.5C20.2201 11.5 20.2233 11.5 20.2265 11.5C20.2296 11.5 20.2328 11.5 20.236 11.5C20.2391 11.5 20.2423 11.5 20.2455 11.5C20.2486 11.5 20.2518 11.5 20.255 11.5C20.2581 11.5 20.2613 11.5 20.2645 11.5C20.2676 11.5 20.2708 11.5 20.274 11.5C20.2771 11.5 20.2803 11.5 20.2835 11.5C20.2866 11.5 20.2898 11.5 20.293 11.5C20.2961 11.5 20.2993 11.5 20.3024 11.5C20.3056 11.5 20.3088 11.5 20.3119 11.5C20.3151 11.5 20.3183 11.5 20.3214 11.5C20.3246 11.5 20.3278 11.5 20.3309 11.5C20.3341 11.5 20.3372 11.5 20.3404 11.5C20.3436 11.5 20.3467 11.5 20.3499 11.5C20.353 11.5 20.3562 11.5 20.3594 11.5C20.3625 11.5 20.3657 11.5 20.3688 11.5C20.372 11.5 20.3752 11.5 20.3783 11.5C20.3815 11.5 20.3846 11.5 20.3878 11.5C20.391 11.5 20.3941 11.5 20.3973 11.5C20.4004 11.5 20.4036 11.5 20.4068 11.5C20.4099 11.5 20.4131 11.5 20.4162 11.5C20.4194 11.5 20.4226 11.5 20.4257 11.5C20.4289 11.5 20.432 11.5 20.4352 11.5C20.4383 11.5 20.4415 11.5 20.4447 11.5C20.4478 11.5 20.451 11.5 20.4541 11.5C20.4573 11.5 20.4604 11.5 20.4636 11.5C20.4667 11.5 20.4699 11.5 20.4731 11.5C20.4762 11.5 20.4794 11.5 20.4825 11.5C20.4857 11.5 20.4888 11.5 20.492 11.5C20.4951 11.5 20.4983 11.5 20.5015 11.5C20.5046 11.5 20.5078 11.5 20.5109 11.5C20.5141 11.5 20.5172 11.5 20.5204 11.5C20.5235 11.5 20.5267 11.5 20.5298 11.5C20.533 11.5 20.5362 11.5 20.5393 11.5C20.5425 11.5 20.5456 11.5 20.5488 11.5C20.5519 11.5 20.5551 11.5 20.5582 11.5C20.5614 11.5 20.5645 11.5 20.5677 11.5C20.5708 11.5 20.574 11.5 20.5771 11.5C20.5803 11.5 20.5834 11.5 20.5866 11.5C20.5898 11.5 20.5929 11.5 20.5961 11.5C20.5992 11.5 20.6024 11.5 20.6055 11.5C20.6087 11.5 20.6118 11.5 20.615 11.5C20.6181 11.5 20.6213 11.5 20.6244 11.5C20.6276 11.5 20.6307 11.5 20.6339 11.5C20.637 11.5 20.6402 11.5 20.6433 11.5C20.6465 11.5 20.6496 11.5 20.6528 11.5C20.6559 11.5 20.6591 11.5 20.6622 11.5C20.6654 11.5 20.6685 11.5 20.6717 11.5C20.6748 11.5 20.678 11.5 20.6811 11.5C20.6843 11.5 20.6874 11.5 20.6906 11.5C20.6937 11.5 20.6969 11.5 20.7 11.5C20.7032 11.5 20.7063 11.5 20.7095 11.5C20.7126 11.5 20.7158 11.5 20.7189 11.5C20.7221 11.5 20.7252 11.5 20.7284 11.5C20.7315 11.5 20.7347 11.5 20.7378 11.5C20.741 11.5 20.7441 11.5 20.7473 11.5C20.7504 11.5 20.7536 11.5 20.7567 11.5C20.7599 11.5 20.763 11.5 20.7662 11.5C20.7693 11.5 20.7725 11.5 20.7756 11.5C20.7788 11.5 20.7819 11.5 20.7851 11.5C20.7882 11.5 20.7914 11.5 20.7945 11.5C20.7977 11.5 20.8008 11.5 20.804 11.5C20.8071 11.5 20.8103 11.5 20.8134 11.5C20.8166 11.5 20.8197 11.5 20.8229 11.5C20.826 11.5 20.8292 11.5 20.8323 11.5C20.8355 11.5 20.8386 11.5 20.8418 11.5C20.8449 11.5 20.8481 11.5 20.8512 11.5C20.8544 11.5 20.8575 11.5 20.8607 11.5C20.8638 11.5 20.867 11.5 20.8701 11.5C20.8732 11.5 20.8764 11.5 20.8795 11.5C20.8827 11.5 20.8858 11.5 20.889 11.5C20.8921 11.5 20.8953 11.5 20.8984 11.5C20.9016 11.5 20.9047 11.5 20.9079 11.5C20.911 11.5 20.9142 11.5 20.9173 11.5C20.9205 11.5 20.9236 11.5 20.9268 11.5C20.9299 11.5 20.9331 11.5 20.9362 11.5C20.9394 11.5 20.9425 11.5 20.9457 11.5C20.9488 11.5 20.952 11.5 20.9551 11.5C20.9583 11.5 20.9614 11.5 20.9646 11.5C20.9677 11.5 20.9709 11.5 20.974 11.5C20.9772 11.5 20.9803 11.5 20.9835 11.5C20.9866 11.5 20.9898 11.5 20.9929 11.5C20.9961 11.5 20.9992 11.5 21.0024 11.5C21.0055 11.5 21.0087 11.5 21.0119 11.5C21.015 11.5 21.0182 11.5 21.0213 11.5C21.0245 11.5 21.0276 11.5 21.0308 11.5C21.0339 11.5 21.0371 11.5 21.0402 11.5C21.0434 11.5 21.0465 11.5 21.0497 11.5C21.0528 11.5 21.056 11.5 21.0591 11.5C21.0623 11.5 21.0654 11.5 21.0686 11.5C21.0717 11.5 21.0749 11.5 21.078 11.5C21.0812 11.5 21.0843 11.5 21.0875 11.5C21.0907 11.5 21.0938 11.5 21.097 11.5C21.1001 11.5 21.1033 11.5 21.1064 11.5C21.1096 11.5 21.1127 11.5 21.1159 11.5C21.119 11.5 21.1222 11.5 21.1253 11.5C21.1285 11.5 21.1316 11.5 21.1348 11.5C21.138 11.5 21.1411 11.5 21.1443 11.5C21.1474 11.5 21.1506 11.5 21.1537 11.5C21.1569 11.5 21.16 11.5 21.1632 11.5C21.1664 11.5 21.1695 11.5 21.1727 11.5C21.1758 11.5 21.179 11.5 21.1821 11.5C21.1853 11.5 21.1884 11.5 21.1916 11.5C21.1948 11.5 21.1979 11.5 21.2011 11.5C21.2042 11.5 21.2074 11.5 21.2105 11.5C21.2137 11.5 21.2169 11.5 21.22 11.5C21.2232 11.5 21.2263 11.5 21.2295 11.5C21.2326 11.5 21.2358 11.5 21.239 11.5C21.2421 11.5 21.2453 11.5 21.2484 11.5C21.2516 11.5 21.2548 11.5 21.2579 11.5C21.2611 11.5 21.2642 11.5 21.2674 11.5C21.2706 11.5 21.2737 11.5 21.2769 11.5C21.28 11.5 21.2832 11.5 21.2864 11.5C21.2895 11.5 21.2927 11.5 21.2958 11.5C21.299 11.5 21.3022 11.5 21.3053 11.5C21.3085 11.5 21.3116 11.5 21.3148 11.5C21.318 11.5 21.3211 11.5 21.3243 11.5C21.3275 11.5 21.3306 11.5 21.3338 11.5C21.337 11.5 21.3401 11.5 21.3433 11.5C21.3464 11.5 21.3496 11.5 21.3528 11.5C21.3559 11.5 21.3591 11.5 21.3623 11.5C21.3654 11.5 21.3686 11.5 21.3718 11.5C21.3749 11.5 21.3781 11.5 21.3813 11.5C21.3844 11.5 21.3876 11.5 21.3908 11.5C21.3939 11.5 21.3971 11.5 21.4003 11.5C21.4034 11.5 21.4066 11.5 21.4098 11.5C21.4129 11.5 21.4161 11.5 21.4193 11.5C21.4224 11.5 21.4256 11.5 21.4288 11.5C21.4319 11.5 21.4351 11.5 21.4383 11.5C21.4414 11.5 21.4446 11.5 21.4478 11.5C21.451 11.5 21.4541 11.5 21.4573 11.5C21.4605 11.5 21.4636 11.5 21.4668 11.5C21.47 11.5 21.4732 11.5 21.4763 11.5C21.4795 11.5 21.4827 11.5 21.4858 11.5C21.489 11.5 21.4922 11.5 21.4954 11.5C21.4985 11.5 21.5017 11.5 21.5049 11.5C21.5081 11.5 21.5112 11.5 21.5144 11.5C21.5176 11.5 21.5208 11.5 21.5239 11.5C21.5271 11.5 21.5303 11.5 21.5335 11.5C21.5366 11.5 21.5398 11.5 21.543 11.5C21.5462 11.5 21.5494 11.5 21.5525 11.5C21.5557 11.5 21.5589 11.5 21.5621 11.5C21.5652 11.5 21.5684 11.5 21.5716 11.5C21.5748 11.5 21.578 11.5 21.5811 11.5C21.5843 11.5 21.5875 11.5 21.5907 11.5C21.5939 11.5 21.597 11.5 21.6002 11.5C21.6034 11.5 21.6066 11.5 21.6098 11.5C21.613 11.5 21.6161 11.5 21.6193 11.5C21.6225 11.5 21.6257 11.5 21.6289 11.5C21.6321 11.5 21.6352 11.5 21.6384 11.5C21.6416 11.5 21.6448 11.5 21.648 11.5C21.6512 11.5 21.6544 11.5 21.6575 11.5C21.6607 11.5 21.6639 11.5 21.6671 11.5C21.6703 11.5 21.6735 11.5 21.6767 11.5C21.6799 11.5 21.683 11.5 21.6862 11.5C21.6894 11.5 21.6926 11.5 21.6958 11.5C21.699 11.5 21.7022 11.5 21.7054 11.5C21.7086 11.5 21.7118 11.5 21.7149 11.5C21.7181 11.5 21.7213 11.5 21.7245 11.5C21.7277 11.5 21.7309 11.5 21.7341 11.5C21.7373 11.5 21.7405 11.5 21.7437 11.5C21.7469 11.5 21.7501 11.5 21.7533 11.5C21.7565 11.5 21.7597 11.5 21.7629 11.5C21.7661 11.5 21.7693 11.5 21.7724 11.5C21.7756 11.5 21.7788 11.5 21.782 11.5C21.7852 11.5 21.7884 11.5 21.7916 11.5C21.7948 11.5 21.798 11.5 21.8012 11.5C21.8044 11.5 21.8076 11.5 21.8108 11.5C21.814 11.5 21.8172 11.5 21.8205 11.5C21.8237 11.5 21.8269 11.5 21.8301 11.5C21.8333 11.5 21.8365 11.5 21.8397 11.5C21.8429 11.5 21.8461 11.5 21.8493 11.5C21.8525 11.5 21.8557 11.5 21.8589 11.5C21.8621 11.5 21.8653 11.5 21.8685 11.5C21.8717 11.5 21.8749 11.5 21.8782 11.5C21.8814 11.5 21.8846 11.5 21.8878 11.5C21.891 11.5 21.8942 11.5 21.8974 11.5C21.9006 11.5 21.9038 11.5 21.907 11.5C21.9103 11.5 21.9135 11.5 21.9167 11.5C21.9199 11.5 21.9231 11.5 21.9263 11.5C21.9295 11.5 21.9328 11.5 21.936 11.5C21.9392 11.5 21.9424 11.5 21.9456 11.5C21.9488 11.5 21.9521 11.5 21.9553 11.5C21.9585 11.5 21.9617 11.5 21.9649 11.5C21.9681 11.5 21.9714 11.5 21.9746 11.5C21.9778 11.5 21.981 11.5 21.9842 11.5C21.9875 11.5 21.9907 11.5 21.9939 11.5C21.9971 11.5 22.0004 11.5 22.0036 11.5C22.0068 11.5 22.01 11.5 22.0132 11.5C22.0165 11.5 22.0197 11.5 22.0229 11.5C22.0262 11.5 22.0294 11.5 22.0326 11.5C22.0358 11.5 22.0391 11.5 22.0423 11.5C22.0455 11.5 22.0487 11.5 22.052 11.5C22.0552 11.5 22.0584 11.5 22.0617 11.5C22.0649 11.5 22.0681 11.5 22.0714 11.5C22.0746 11.5 22.0778 11.5 22.0811 11.5C22.0843 11.5 22.0875 11.5 22.0908 11.5C22.094 11.5 22.0972 11.5 22.1005 11.5C22.1037 11.5 22.1069 11.5 22.1102 11.5C22.1134 11.5 22.1167 11.5 22.1199 11.5C22.1231 11.5 22.1264 11.5 22.1296 11.5C22.1329 11.5 22.1361 11.5 22.1393 11.5C22.1426 11.5 22.1458 11.5 22.1491 11.5C22.1523 11.5 22.1555 11.5 22.1588 11.5C22.162 11.5 22.1653 11.5 22.1685 11.5C22.1718 11.5 22.175 11.5 22.1783 11.5C22.1815 11.5 22.1848 11.5 22.188 11.5C22.1913 11.5 22.1945 11.5 22.1978 11.5C22.201 11.5 22.2043 11.5 22.2075 11.5C22.2108 11.5 22.214 11.5 22.2173 11.5C22.2205 11.5 22.2238 11.5 22.227 11.5C22.2303 11.5 22.2335 11.5 22.2368 11.5C22.24 11.5 22.2433 11.5 22.2465 11.5C22.2498 11.5 22.2531 11.5 22.2563 11.5C22.2596 11.5 22.2628 11.5 22.2661 11.5C22.2694 11.5 22.2726 11.5 22.2759 11.5C22.2791 11.5 22.2824 11.5 22.2857 11.5C22.2889 11.5 22.2922 11.5 22.2955 11.5C22.2987 11.5 22.302 11.5 22.3052 11.5C22.3085 11.5 22.3118 11.5 22.315 11.5C22.3183 11.5 22.3216 11.5 22.3248 11.5C22.3281 11.5 22.3314 11.5 22.3347 11.5C22.3379 11.5 22.3412 11.5 22.3445 11.5C22.3477 11.5 22.351 11.5 22.3543 11.5C22.3576 11.5 22.3608 11.5 22.3641 11.5C22.3674 11.5 22.3707 11.5 22.3739 11.5C22.3772 11.5 22.3805 11.5 22.3838 11.5C22.387 11.5 22.3903 11.5 22.3936 11.5C22.3969 11.5 22.4002 11.5 22.4034 11.5C22.4067 11.5 22.41 11.5 22.4133 11.5C22.4166 11.5 22.4198 11.5 22.4231 11.5C22.4264 11.5 22.4297 11.5 22.433 11.5C22.4363 11.5 22.4396 11.5 22.4428 11.5C22.4461 11.5 22.4494 11.5 22.4527 11.5C22.456 11.5 22.4593 11.5 22.4626 11.5C22.4659 11.5 22.4692 11.5 22.4725 11.5C22.4757 11.5 22.479 11.5 22.4823 11.5C22.4856 11.5 22.4889 11.5 22.4922 11.5C22.4955 11.5 22.4988 11.5 22.5021 11.5C22.5054 11.5 22.5087 11.5 22.512 11.5C22.5153 11.5 22.5186 11.5 22.5219 11.5C22.5252 11.5 22.5285 11.5 22.5318 11.5C22.5351 11.5 22.5384 11.5 22.5417 11.5C22.545 11.5 22.5483 11.5 22.5516 11.5C22.5549 11.5 22.5582 11.5 22.5616 11.5C22.5649 11.5 22.5682 11.5 22.5715 11.5C22.5748 11.5 22.5781 11.5 22.5814 11.5C22.5847 11.5 22.588 11.5 22.5913 11.5C22.5947 11.5 22.598 11.5 22.6013 11.5C22.6046 11.5 22.6079 11.5 22.6112 11.5C22.6146 11.5 22.6179 11.5 22.6212 11.5C22.6245 11.5 22.6278 11.5 22.6311 11.5C22.6345 11.5 22.6378 11.5 22.6411 11.5C22.6444 11.5 22.6478 11.5 22.6511 11.5C22.6544 11.5 22.6577 11.5 22.6611 11.5C22.6644 11.5 22.6677 11.5 22.671 11.5C22.6744 11.5 22.6777 11.5 22.681 11.5C22.6843 11.5 22.6877 11.5 22.691 11.5C22.6943 11.5 22.6977 11.5 22.701 11.5C22.7043 11.5 22.7077 11.5 22.711 11.5C22.7143 11.5 22.7177 11.5 22.721 11.5C22.7244 11.5 22.7277 11.5 22.731 11.5C22.7344 11.5 22.7377 11.5 22.7411 11.5C22.7444 11.5 22.7477 11.5 22.7511 11.5C22.7544 11.5 22.7578 11.5 22.7611 11.5C22.7645 11.5 22.7678 11.5 22.7711 11.5C22.7745 11.5 22.7778 11.5 22.7812 11.5C22.7845 11.5 22.7879 11.5 22.7912 11.5C22.7946 11.5 22.7979 11.5 22.8013 11.5C22.8046 11.5 22.808 11.5 22.8114 11.5C22.8147 11.5 22.8181 11.5 22.8214 11.5C22.8248 11.5 22.8281 11.5 22.8315 11.5C22.8348 11.5 22.8382 11.5 22.8416 11.5C22.8449 11.5 22.8483 11.5 22.8517 11.5C22.855 11.5 22.8584 11.5 22.8617 11.5C22.8651 11.5 22.8685 11.5 22.8718 11.5C22.8752 11.5 22.8786 11.5 22.8819 11.5C22.8853 11.5 22.8887 11.5 22.8921 11.5C22.8954 11.5 22.8988 11.5 22.9022 11.5C22.9055 11.5 22.9089 11.5 22.9123 11.5C22.9157 11.5 22.919 11.5 22.9224 11.5C22.9258 11.5 22.9292 11.5 22.9326 11.5C22.9359 11.5 22.9393 11.5 22.9427 11.5C22.9461 11.5 22.9495 11.5 22.9528 11.5C22.9562 11.5 22.9596 11.5 22.963 11.5C22.9664 11.5 22.9698 11.5 22.9732 11.5C22.9765 11.5 22.9799 11.5 22.9833 11.5C22.9867 11.5 22.9901 11.5 22.9935 11.5C22.9969 11.5 23.0003 11.5 23.0037 11.5C23.0071 11.5 23.0105 11.5 23.0139 11.5C23.0173 11.5 23.0207 11.5 23.024 11.5C23.0274 11.5 23.0308 11.5 23.0342 11.5C23.0376 11.5 23.0411 11.5 23.0445 11.5C23.0479 11.5 23.0513 11.5 23.0547 11.5C23.0581 11.5 23.0615 11.5 23.0649 11.5C23.0683 11.5 23.0717 11.5 23.0751 11.5C23.0785 11.5 23.0819 11.5 23.0853 11.5C23.0888 11.5 23.0922 11.5 23.0956 11.5C23.099 11.5 23.1024 11.5 23.1058 11.5C23.1092 11.5 23.1127 11.5 23.1161 11.5C23.1195 11.5 23.1229 11.5 23.1263 11.5C23.1298 11.5 23.1332 11.5 23.1366 11.5C23.14 11.5 23.1435 11.5 23.1469 11.5C23.1503 11.5 23.1537 11.5 23.1572 11.5C23.1606 11.5 23.164 11.5 23.1674 11.5C23.1709 11.5 23.1743 11.5 23.1777 11.5C23.1812 11.5 23.1846 11.5 23.188 11.5C23.1915 11.5 23.1949 11.5 23.1984 11.5C23.2018 11.5 23.2052 11.5 23.2087 11.5C23.2121 11.5 23.2155 11.5 23.219 11.5C23.2224 11.5 23.2259 11.5 23.2293 11.5C23.2328 11.5 23.2362 11.5 23.2397 11.5C23.2431 11.5 23.2466 11.5 23.25 11.5V10.5C23.2466 10.5 23.2431 10.5 23.2397 10.5C23.2362 10.5 23.2328 10.5 23.2293 10.5C23.2259 10.5 23.2224 10.5 23.219 10.5C23.2155 10.5 23.2121 10.5 23.2087 10.5C23.2052 10.5 23.2018 10.5 23.1984 10.5C23.1949 10.5 23.1915 10.5 23.188 10.5C23.1846 10.5 23.1812 10.5 23.1777 10.5C23.1743 10.5 23.1709 10.5 23.1674 10.5C23.164 10.5 23.1606 10.5 23.1572 10.5C23.1537 10.5 23.1503 10.5 23.1469 10.5C23.1435 10.5 23.14 10.5 23.1366 10.5C23.1332 10.5 23.1298 10.5 23.1263 10.5C23.1229 10.5 23.1195 10.5 23.1161 10.5C23.1127 10.5 23.1092 10.5 23.1058 10.5C23.1024 10.5 23.099 10.5 23.0956 10.5C23.0922 10.5 23.0888 10.5 23.0853 10.5C23.0819 10.5 23.0785 10.5 23.0751 10.5C23.0717 10.5 23.0683 10.5 23.0649 10.5C23.0615 10.5 23.0581 10.5 23.0547 10.5C23.0513 10.5 23.0479 10.5 23.0445 10.5C23.0411 10.5 23.0376 10.5 23.0342 10.5C23.0308 10.5 23.0274 10.5 23.024 10.5C23.0207 10.5 23.0173 10.5 23.0139 10.5C23.0105 10.5 23.0071 10.5 23.0037 10.5C23.0003 10.5 22.9969 10.5 22.9935 10.5C22.9901 10.5 22.9867 10.5 22.9833 10.5C22.9799 10.5 22.9765 10.5 22.9732 10.5C22.9698 10.5 22.9664 10.5 22.963 10.5C22.9596 10.5 22.9562 10.5 22.9528 10.5C22.9495 10.5 22.9461 10.5 22.9427 10.5C22.9393 10.5 22.9359 10.5 22.9326 10.5C22.9292 10.5 22.9258 10.5 22.9224 10.5C22.919 10.5 22.9157 10.5 22.9123 10.5C22.9089 10.5 22.9055 10.5 22.9022 10.5C22.8988 10.5 22.8954 10.5 22.8921 10.5C22.8887 10.5 22.8853 10.5 22.8819 10.5C22.8786 10.5 22.8752 10.5 22.8718 10.5C22.8685 10.5 22.8651 10.5 22.8617 10.5C22.8584 10.5 22.855 10.5 22.8517 10.5C22.8483 10.5 22.8449 10.5 22.8416 10.5C22.8382 10.5 22.8348 10.5 22.8315 10.5C22.8281 10.5 22.8248 10.5 22.8214 10.5C22.8181 10.5 22.8147 10.5 22.8114 10.5C22.808 10.5 22.8046 10.5 22.8013 10.5C22.7979 10.5 22.7946 10.5 22.7912 10.5C22.7879 10.5 22.7845 10.5 22.7812 10.5C22.7778 10.5 22.7745 10.5 22.7711 10.5C22.7678 10.5 22.7645 10.5 22.7611 10.5C22.7578 10.5 22.7544 10.5 22.7511 10.5C22.7477 10.5 22.7444 10.5 22.7411 10.5C22.7377 10.5 22.7344 10.5 22.731 10.5C22.7277 10.5 22.7244 10.5 22.721 10.5C22.7177 10.5 22.7143 10.5 22.711 10.5C22.7077 10.5 22.7043 10.5 22.701 10.5C22.6977 10.5 22.6943 10.5 22.691 10.5C22.6877 10.5 22.6843 10.5 22.681 10.5C22.6777 10.5 22.6744 10.5 22.671 10.5C22.6677 10.5 22.6644 10.5 22.6611 10.5C22.6577 10.5 22.6544 10.5 22.6511 10.5C22.6478 10.5 22.6444 10.5 22.6411 10.5C22.6378 10.5 22.6345 10.5 22.6311 10.5C22.6278 10.5 22.6245 10.5 22.6212 10.5C22.6179 10.5 22.6146 10.5 22.6112 10.5C22.6079 10.5 22.6046 10.5 22.6013 10.5C22.598 10.5 22.5947 10.5 22.5913 10.5C22.588 10.5 22.5847 10.5 22.5814 10.5C22.5781 10.5 22.5748 10.5 22.5715 10.5C22.5682 10.5 22.5649 10.5 22.5616 10.5C22.5582 10.5 22.5549 10.5 22.5516 10.5C22.5483 10.5 22.545 10.5 22.5417 10.5C22.5384 10.5 22.5351 10.5 22.5318 10.5C22.5285 10.5 22.5252 10.5 22.5219 10.5C22.5186 10.5 22.5153 10.5 22.512 10.5C22.5087 10.5 22.5054 10.5 22.5021 10.5C22.4988 10.5 22.4955 10.5 22.4922 10.5C22.4889 10.5 22.4856 10.5 22.4823 10.5C22.479 10.5 22.4757 10.5 22.4725 10.5C22.4692 10.5 22.4659 10.5 22.4626 10.5C22.4593 10.5 22.456 10.5 22.4527 10.5C22.4494 10.5 22.4461 10.5 22.4428 10.5C22.4396 10.5 22.4363 10.5 22.433 10.5C22.4297 10.5 22.4264 10.5 22.4231 10.5C22.4198 10.5 22.4166 10.5 22.4133 10.5C22.41 10.5 22.4067 10.5 22.4034 10.5C22.4002 10.5 22.3969 10.5 22.3936 10.5C22.3903 10.5 22.387 10.5 22.3838 10.5C22.3805 10.5 22.3772 10.5 22.3739 10.5C22.3707 10.5 22.3674 10.5 22.3641 10.5C22.3608 10.5 22.3576 10.5 22.3543 10.5C22.351 10.5 22.3477 10.5 22.3445 10.5C22.3412 10.5 22.3379 10.5 22.3347 10.5C22.3314 10.5 22.3281 10.5 22.3248 10.5C22.3216 10.5 22.3183 10.5 22.315 10.5C22.3118 10.5 22.3085 10.5 22.3052 10.5C22.302 10.5 22.2987 10.5 22.2955 10.5C22.2922 10.5 22.2889 10.5 22.2857 10.5C22.2824 10.5 22.2791 10.5 22.2759 10.5C22.2726 10.5 22.2694 10.5 22.2661 10.5C22.2628 10.5 22.2596 10.5 22.2563 10.5C22.2531 10.5 22.2498 10.5 22.2465 10.5C22.2433 10.5 22.24 10.5 22.2368 10.5C22.2335 10.5 22.2303 10.5 22.227 10.5C22.2238 10.5 22.2205 10.5 22.2173 10.5C22.214 10.5 22.2108 10.5 22.2075 10.5C22.2043 10.5 22.201 10.5 22.1978 10.5C22.1945 10.5 22.1913 10.5 22.188 10.5C22.1848 10.5 22.1815 10.5 22.1783 10.5C22.175 10.5 22.1718 10.5 22.1685 10.5C22.1653 10.5 22.162 10.5 22.1588 10.5C22.1555 10.5 22.1523 10.5 22.1491 10.5C22.1458 10.5 22.1426 10.5 22.1393 10.5C22.1361 10.5 22.1329 10.5 22.1296 10.5C22.1264 10.5 22.1231 10.5 22.1199 10.5C22.1167 10.5 22.1134 10.5 22.1102 10.5C22.1069 10.5 22.1037 10.5 22.1005 10.5C22.0972 10.5 22.094 10.5 22.0908 10.5C22.0875 10.5 22.0843 10.5 22.0811 10.5C22.0778 10.5 22.0746 10.5 22.0714 10.5C22.0681 10.5 22.0649 10.5 22.0617 10.5C22.0584 10.5 22.0552 10.5 22.052 10.5C22.0487 10.5 22.0455 10.5 22.0423 10.5C22.0391 10.5 22.0358 10.5 22.0326 10.5C22.0294 10.5 22.0262 10.5 22.0229 10.5C22.0197 10.5 22.0165 10.5 22.0132 10.5C22.01 10.5 22.0068 10.5 22.0036 10.5C22.0004 10.5 21.9971 10.5 21.9939 10.5C21.9907 10.5 21.9875 10.5 21.9842 10.5C21.981 10.5 21.9778 10.5 21.9746 10.5C21.9714 10.5 21.9681 10.5 21.9649 10.5C21.9617 10.5 21.9585 10.5 21.9553 10.5C21.9521 10.5 21.9488 10.5 21.9456 10.5C21.9424 10.5 21.9392 10.5 21.936 10.5C21.9328 10.5 21.9295 10.5 21.9263 10.5C21.9231 10.5 21.9199 10.5 21.9167 10.5C21.9135 10.5 21.9103 10.5 21.907 10.5C21.9038 10.5 21.9006 10.5 21.8974 10.5C21.8942 10.5 21.891 10.5 21.8878 10.5C21.8846 10.5 21.8814 10.5 21.8782 10.5C21.8749 10.5 21.8717 10.5 21.8685 10.5C21.8653 10.5 21.8621 10.5 21.8589 10.5C21.8557 10.5 21.8525 10.5 21.8493 10.5C21.8461 10.5 21.8429 10.5 21.8397 10.5C21.8365 10.5 21.8333 10.5 21.8301 10.5C21.8269 10.5 21.8237 10.5 21.8205 10.5C21.8172 10.5 21.814 10.5 21.8108 10.5C21.8076 10.5 21.8044 10.5 21.8012 10.5C21.798 10.5 21.7948 10.5 21.7916 10.5C21.7884 10.5 21.7852 10.5 21.782 10.5C21.7788 10.5 21.7756 10.5 21.7724 10.5C21.7693 10.5 21.7661 10.5 21.7629 10.5C21.7597 10.5 21.7565 10.5 21.7533 10.5C21.7501 10.5 21.7469 10.5 21.7437 10.5C21.7405 10.5 21.7373 10.5 21.7341 10.5C21.7309 10.5 21.7277 10.5 21.7245 10.5C21.7213 10.5 21.7181 10.5 21.7149 10.5C21.7118 10.5 21.7086 10.5 21.7054 10.5C21.7022 10.5 21.699 10.5 21.6958 10.5C21.6926 10.5 21.6894 10.5 21.6862 10.5C21.683 10.5 21.6799 10.5 21.6767 10.5C21.6735 10.5 21.6703 10.5 21.6671 10.5C21.6639 10.5 21.6607 10.5 21.6575 10.5C21.6544 10.5 21.6512 10.5 21.648 10.5C21.6448 10.5 21.6416 10.5 21.6384 10.5C21.6352 10.5 21.6321 10.5 21.6289 10.5C21.6257 10.5 21.6225 10.5 21.6193 10.5C21.6161 10.5 21.613 10.5 21.6098 10.5C21.6066 10.5 21.6034 10.5 21.6002 10.5C21.597 10.5 21.5939 10.5 21.5907 10.5C21.5875 10.5 21.5843 10.5 21.5811 10.5C21.578 10.5 21.5748 10.5 21.5716 10.5C21.5684 10.5 21.5652 10.5 21.5621 10.5C21.5589 10.5 21.5557 10.5 21.5525 10.5C21.5494 10.5 21.5462 10.5 21.543 10.5C21.5398 10.5 21.5366 10.5 21.5335 10.5C21.5303 10.5 21.5271 10.5 21.5239 10.5C21.5208 10.5 21.5176 10.5 21.5144 10.5C21.5112 10.5 21.5081 10.5 21.5049 10.5C21.5017 10.5 21.4985 10.5 21.4954 10.5C21.4922 10.5 21.489 10.5 21.4858 10.5C21.4827 10.5 21.4795 10.5 21.4763 10.5C21.4732 10.5 21.47 10.5 21.4668 10.5C21.4636 10.5 21.4605 10.5 21.4573 10.5C21.4541 10.5 21.451 10.5 21.4478 10.5C21.4446 10.5 21.4414 10.5 21.4383 10.5C21.4351 10.5 21.4319 10.5 21.4288 10.5C21.4256 10.5 21.4224 10.5 21.4193 10.5C21.4161 10.5 21.4129 10.5 21.4098 10.5C21.4066 10.5 21.4034 10.5 21.4003 10.5C21.3971 10.5 21.3939 10.5 21.3908 10.5C21.3876 10.5 21.3844 10.5 21.3813 10.5C21.3781 10.5 21.3749 10.5 21.3718 10.5C21.3686 10.5 21.3654 10.5 21.3623 10.5C21.3591 10.5 21.3559 10.5 21.3528 10.5C21.3496 10.5 21.3464 10.5 21.3433 10.5C21.3401 10.5 21.337 10.5 21.3338 10.5C21.3306 10.5 21.3275 10.5 21.3243 10.5C21.3211 10.5 21.318 10.5 21.3148 10.5C21.3116 10.5 21.3085 10.5 21.3053 10.5C21.3022 10.5 21.299 10.5 21.2958 10.5C21.2927 10.5 21.2895 10.5 21.2864 10.5C21.2832 10.5 21.28 10.5 21.2769 10.5C21.2737 10.5 21.2706 10.5 21.2674 10.5C21.2642 10.5 21.2611 10.5 21.2579 10.5C21.2548 10.5 21.2516 10.5 21.2484 10.5C21.2453 10.5 21.2421 10.5 21.239 10.5C21.2358 10.5 21.2326 10.5 21.2295 10.5C21.2263 10.5 21.2232 10.5 21.22 10.5C21.2169 10.5 21.2137 10.5 21.2105 10.5C21.2074 10.5 21.2042 10.5 21.2011 10.5C21.1979 10.5 21.1948 10.5 21.1916 10.5C21.1884 10.5 21.1853 10.5 21.1821 10.5C21.179 10.5 21.1758 10.5 21.1727 10.5C21.1695 10.5 21.1664 10.5 21.1632 10.5C21.16 10.5 21.1569 10.5 21.1537 10.5C21.1506 10.5 21.1474 10.5 21.1443 10.5C21.1411 10.5 21.138 10.5 21.1348 10.5C21.1316 10.5 21.1285 10.5 21.1253 10.5C21.1222 10.5 21.119 10.5 21.1159 10.5C21.1127 10.5 21.1096 10.5 21.1064 10.5C21.1033 10.5 21.1001 10.5 21.097 10.5C21.0938 10.5 21.0907 10.5 21.0875 10.5C21.0843 10.5 21.0812 10.5 21.078 10.5C21.0749 10.5 21.0717 10.5 21.0686 10.5C21.0654 10.5 21.0623 10.5 21.0591 10.5C21.056 10.5 21.0528 10.5 21.0497 10.5C21.0465 10.5 21.0434 10.5 21.0402 10.5C21.0371 10.5 21.0339 10.5 21.0308 10.5C21.0276 10.5 21.0245 10.5 21.0213 10.5C21.0182 10.5 21.015 10.5 21.0119 10.5C21.0087 10.5 21.0055 10.5 21.0024 10.5C20.9992 10.5 20.9961 10.5 20.9929 10.5C20.9898 10.5 20.9866 10.5 20.9835 10.5C20.9803 10.5 20.9772 10.5 20.974 10.5C20.9709 10.5 20.9677 10.5 20.9646 10.5C20.9614 10.5 20.9583 10.5 20.9551 10.5C20.952 10.5 20.9488 10.5 20.9457 10.5C20.9425 10.5 20.9394 10.5 20.9362 10.5C20.9331 10.5 20.9299 10.5 20.9268 10.5C20.9236 10.5 20.9205 10.5 20.9173 10.5C20.9142 10.5 20.911 10.5 20.9079 10.5C20.9047 10.5 20.9016 10.5 20.8984 10.5C20.8953 10.5 20.8921 10.5 20.889 10.5C20.8858 10.5 20.8827 10.5 20.8795 10.5C20.8764 10.5 20.8732 10.5 20.8701 10.5C20.867 10.5 20.8638 10.5 20.8607 10.5C20.8575 10.5 20.8544 10.5 20.8512 10.5C20.8481 10.5 20.8449 10.5 20.8418 10.5C20.8386 10.5 20.8355 10.5 20.8323 10.5C20.8292 10.5 20.826 10.5 20.8229 10.5C20.8197 10.5 20.8166 10.5 20.8134 10.5C20.8103 10.5 20.8071 10.5 20.804 10.5C20.8008 10.5 20.7977 10.5 20.7945 10.5C20.7914 10.5 20.7882 10.5 20.7851 10.5C20.7819 10.5 20.7788 10.5 20.7756 10.5C20.7725 10.5 20.7693 10.5 20.7662 10.5C20.763 10.5 20.7599 10.5 20.7567 10.5C20.7536 10.5 20.7504 10.5 20.7473 10.5C20.7441 10.5 20.741 10.5 20.7378 10.5C20.7347 10.5 20.7315 10.5 20.7284 10.5C20.7252 10.5 20.7221 10.5 20.7189 10.5C20.7158 10.5 20.7126 10.5 20.7095 10.5C20.7063 10.5 20.7032 10.5 20.7 10.5C20.6969 10.5 20.6937 10.5 20.6906 10.5C20.6874 10.5 20.6843 10.5 20.6811 10.5C20.678 10.5 20.6748 10.5 20.6717 10.5C20.6685 10.5 20.6654 10.5 20.6622 10.5C20.6591 10.5 20.6559 10.5 20.6528 10.5C20.6496 10.5 20.6465 10.5 20.6433 10.5C20.6402 10.5 20.637 10.5 20.6339 10.5C20.6307 10.5 20.6276 10.5 20.6244 10.5C20.6213 10.5 20.6181 10.5 20.615 10.5C20.6118 10.5 20.6087 10.5 20.6055 10.5C20.6024 10.5 20.5992 10.5 20.5961 10.5C20.5929 10.5 20.5898 10.5 20.5866 10.5C20.5834 10.5 20.5803 10.5 20.5771 10.5C20.574 10.5 20.5708 10.5 20.5677 10.5C20.5645 10.5 20.5614 10.5 20.5582 10.5C20.5551 10.5 20.5519 10.5 20.5488 10.5C20.5456 10.5 20.5425 10.5 20.5393 10.5C20.5362 10.5 20.533 10.5 20.5298 10.5C20.5267 10.5 20.5235 10.5 20.5204 10.5C20.5172 10.5 20.5141 10.5 20.5109 10.5C20.5078 10.5 20.5046 10.5 20.5015 10.5C20.4983 10.5 20.4951 10.5 20.492 10.5C20.4888 10.5 20.4857 10.5 20.4825 10.5C20.4794 10.5 20.4762 10.5 20.4731 10.5C20.4699 10.5 20.4667 10.5 20.4636 10.5C20.4604 10.5 20.4573 10.5 20.4541 10.5C20.451 10.5 20.4478 10.5 20.4447 10.5C20.4415 10.5 20.4383 10.5 20.4352 10.5C20.432 10.5 20.4289 10.5 20.4257 10.5C20.4226 10.5 20.4194 10.5 20.4162 10.5C20.4131 10.5 20.4099 10.5 20.4068 10.5C20.4036 10.5 20.4004 10.5 20.3973 10.5C20.3941 10.5 20.391 10.5 20.3878 10.5C20.3846 10.5 20.3815 10.5 20.3783 10.5C20.3752 10.5 20.372 10.5 20.3688 10.5C20.3657 10.5 20.3625 10.5 20.3594 10.5C20.3562 10.5 20.353 10.5 20.3499 10.5C20.3467 10.5 20.3436 10.5 20.3404 10.5C20.3372 10.5 20.3341 10.5 20.3309 10.5C20.3278 10.5 20.3246 10.5 20.3214 10.5C20.3183 10.5 20.3151 10.5 20.3119 10.5C20.3088 10.5 20.3056 10.5 20.3024 10.5C20.2993 10.5 20.2961 10.5 20.293 10.5C20.2898 10.5 20.2866 10.5 20.2835 10.5C20.2803 10.5 20.2771 10.5 20.274 10.5C20.2708 10.5 20.2676 10.5 20.2645 10.5C20.2613 10.5 20.2581 10.5 20.255 10.5C20.2518 10.5 20.2486 10.5 20.2455 10.5C20.2423 10.5 20.2391 10.5 20.236 10.5C20.2328 10.5 20.2296 10.5 20.2265 10.5C20.2233 10.5 20.2201 10.5 20.217 10.5C20.2138 10.5 20.2106 10.5 20.2074 10.5C20.2043 10.5 20.2011 10.5 20.1979 10.5C20.1948 10.5 20.1916 10.5 20.1884 10.5C20.1853 10.5 20.1821 10.5 20.1789 10.5C20.1757 10.5 20.1726 10.5 20.1694 10.5C20.1662 10.5 20.1631 10.5 20.1599 10.5C20.1567 10.5 20.1535 10.5 20.1504 10.5C20.1472 10.5 20.144 10.5 20.1408 10.5C20.1377 10.5 20.1345 10.5 20.1313 10.5C20.1281 10.5 20.125 10.5 20.1218 10.5C20.1186 10.5 20.1154 10.5 20.1123 10.5C20.1091 10.5 20.1059 10.5 20.1027 10.5C20.0996 10.5 20.0964 10.5 20.0932 10.5C20.09 10.5 20.0868 10.5 20.0837 10.5C20.0805 10.5 20.0773 10.5 20.0741 10.5C20.0709 10.5 20.0678 10.5 20.0646 10.5C20.0614 10.5 20.0582 10.5 20.055 10.5C20.0519 10.5 20.0487 10.5 20.0455 10.5C20.0423 10.5 20.0391 10.5 20.036 10.5C20.0328 10.5 20.0296 10.5 20.0264 10.5C20.0232 10.5 20.02 10.5 20.0169 10.5C20.0137 10.5 20.0105 10.5 20.0073 10.5C20.0041 10.5 20.0009 10.5 19.9977 10.5C19.9946 10.5 19.9914 10.5 19.9882 10.5C19.985 10.5 19.9818 10.5 19.9786 10.5C19.9754 10.5 19.9723 10.5 19.9691 10.5C19.9659 10.5 19.9627 10.5 19.9595 10.5C19.9563 10.5 19.9531 10.5 19.9499 10.5C19.9467 10.5 19.9435 10.5 19.9404 10.5C19.9372 10.5 19.934 10.5 19.9308 10.5C19.9276 10.5 19.9244 10.5 19.9212 10.5C19.918 10.5 19.9148 10.5 19.9116 10.5C19.9084 10.5 19.9052 10.5 19.902 10.5C19.8988 10.5 19.8957 10.5 19.8925 10.5C19.8893 10.5 19.8861 10.5 19.8829 10.5C19.8797 10.5 19.8765 10.5 19.8733 10.5C19.8701 10.5 19.8669 10.5 19.8637 10.5C19.8605 10.5 19.8573 10.5 19.8541 10.5C19.8509 10.5 19.8477 10.5 19.8445 10.5C19.8413 10.5 19.8381 10.5 19.8349 10.5C19.8317 10.5 19.8285 10.5 19.8253 10.5C19.8221 10.5 19.8189 10.5 19.8157 10.5C19.8125 10.5 19.8093 10.5 19.8061 10.5C19.8028 10.5 19.7996 10.5 19.7964 10.5C19.7932 10.5 19.79 10.5 19.7868 10.5C19.7836 10.5 19.7804 10.5 19.7772 10.5C19.774 10.5 19.7708 10.5 19.7676 10.5C19.7644 10.5 19.7612 10.5 19.7579 10.5C19.7547 10.5 19.7515 10.5 19.7483 10.5C19.7451 10.5 19.7419 10.5 19.7387 10.5C19.7355 10.5 19.7323 10.5 19.729 10.5C19.7258 10.5 19.7226 10.5 19.7194 10.5C19.7162 10.5 19.713 10.5 19.7098 10.5C19.7065 10.5 19.7033 10.5 19.7001 10.5C19.6969 10.5 19.6937 10.5 19.6905 10.5C19.6872 10.5 19.684 10.5 19.6808 10.5C19.6776 10.5 19.6744 10.5 19.6711 10.5C19.6679 10.5 19.6647 10.5 19.6615 10.5C19.6583 10.5 19.655 10.5 19.6518 10.5C19.6486 10.5 19.6454 10.5 19.6421 10.5C19.6389 10.5 19.6357 10.5 19.6325 10.5C19.6293 10.5 19.626 10.5 19.6228 10.5C19.6196 10.5 19.6163 10.5 19.6131 10.5C19.6099 10.5 19.6067 10.5 19.6034 10.5C19.6002 10.5 19.597 10.5 19.5937 10.5C19.5905 10.5 19.5873 10.5 19.5841 10.5C19.5808 10.5 19.5776 10.5 19.5744 10.5C19.5711 10.5 19.5679 10.5 19.5647 10.5C19.5614 10.5 19.5582 10.5 19.555 10.5C19.5517 10.5 19.5485 10.5 19.5453 10.5C19.542 10.5 19.5388 10.5 19.5355 10.5C19.5323 10.5 19.5291 10.5 19.5258 10.5C19.5226 10.5 19.5194 10.5 19.5161 10.5C19.5129 10.5 19.5096 10.5 19.5064 10.5C19.5032 10.5 19.4999 10.5 19.4967 10.5C19.4934 10.5 19.4902 10.5 19.4869 10.5C19.4837 10.5 19.4804 10.5 19.4772 10.5C19.474 10.5 19.4707 10.5 19.4675 10.5C19.4642 10.5 19.461 10.5 19.4577 10.5C19.4545 10.5 19.4512 10.5 19.448 10.5C19.4447 10.5 19.4415 10.5 19.4382 10.5C19.435 10.5 19.4317 10.5 19.4285 10.5C19.4252 10.5 19.422 10.5 19.4187 10.5C19.4155 10.5 19.4122 10.5 19.4089 10.5C19.4057 10.5 19.4024 10.5 19.3992 10.5C19.3959 10.5 19.3927 10.5 19.3894 10.5C19.3862 10.5 19.3829 10.5 19.3796 10.5C19.3764 10.5 19.3731 10.5 19.3699 10.5C19.3666 10.5 19.3633 10.5 19.3601 10.5C19.3568 10.5 19.3535 10.5 19.3503 10.5C19.347 10.5 19.3437 10.5 19.3405 10.5C19.3372 10.5 19.334 10.5 19.3307 10.5C19.3274 10.5 19.3241 10.5 19.3209 10.5C19.3176 10.5 19.3143 10.5 19.3111 10.5C19.3078 10.5 19.3045 10.5 19.3013 10.5C19.298 10.5 19.2947 10.5 19.2914 10.5C19.2882 10.5 19.2849 10.5 19.2816 10.5C19.2783 10.5 19.2751 10.5 19.2718 10.5C19.2685 10.5 19.2652 10.5 19.262 10.5C19.2587 10.5 19.2554 10.5 19.2521 10.5C19.2489 10.5 19.2456 10.5 19.2423 10.5C19.239 10.5 19.2357 10.5 19.2324 10.5C19.2292 10.5 19.2259 10.5 19.2226 10.5C19.2193 10.5 19.216 10.5 19.2127 10.5C19.2095 10.5 19.2062 10.5 19.2029 10.5C19.1996 10.5 19.1963 10.5 19.193 10.5C19.1897 10.5 19.1864 10.5 19.1831 10.5C19.1799 10.5 19.1766 10.5 19.1733 10.5C19.17 10.5 19.1667 10.5 19.1634 10.5C19.1601 10.5 19.1568 10.5 19.1535 10.5C19.1502 10.5 19.1469 10.5 19.1436 10.5C19.1403 10.5 19.137 10.5 19.1337 10.5C19.1304 10.5 19.1271 10.5 19.1238 10.5C19.1205 10.5 19.1172 10.5 19.1139 10.5C19.1106 10.5 19.1073 10.5 19.104 10.5C19.1007 10.5 19.0974 10.5 19.0941 10.5C19.0908 10.5 19.0875 10.5 19.0842 10.5C19.0809 10.5 19.0776 10.5 19.0742 10.5C19.0709 10.5 19.0676 10.5 19.0643 10.5C19.061 10.5 19.0577 10.5 19.0544 10.5C19.0511 10.5 19.0478 10.5 19.0444 10.5C19.0411 10.5 19.0378 10.5 19.0345 10.5C19.0312 10.5 19.0279 10.5 19.0245 10.5C19.0212 10.5 19.0179 10.5 19.0146 10.5C19.0113 10.5 19.0079 10.5 19.0046 10.5C19.0013 10.5 18.998 10.5 18.9946 10.5C18.9913 10.5 18.988 10.5 18.9847 10.5C18.9813 10.5 18.978 10.5 18.9747 10.5C18.9714 10.5 18.968 10.5 18.9647 10.5C18.9614 10.5 18.958 10.5 18.9547 10.5C18.9514 10.5 18.9481 10.5 18.9447 10.5C18.9414 10.5 18.9381 10.5 18.9347 10.5C18.9314 10.5 18.928 10.5 18.9247 10.5C18.9214 10.5 18.918 10.5 18.9147 10.5C18.9114 10.5 18.908 10.5 18.9047 10.5C18.9013 10.5 18.898 10.5 18.8947 10.5C18.8913 10.5 18.888 10.5 18.8846 10.5C18.8813 10.5 18.8779 10.5 18.8746 10.5C18.8712 10.5 18.8679 10.5 18.8645 10.5C18.8612 10.5 18.8578 10.5 18.8545 10.5C18.8511 10.5 18.8478 10.5 18.8444 10.5C18.8411 10.5 18.8377 10.5 18.8344 10.5C18.831 10.5 18.8277 10.5 18.8243 10.5C18.821 10.5 18.8176 10.5 18.8142 10.5C18.8109 10.5 18.8075 10.5 18.8042 10.5C18.8008 10.5 18.7974 10.5 18.7941 10.5C18.7907 10.5 18.7873 10.5 18.784 10.5C18.7806 10.5 18.7773 10.5 18.7739 10.5C18.7705 10.5 18.7672 10.5 18.7638 10.5C18.7604 10.5 18.757 10.5 18.7537 10.5C18.7503 10.5 18.7469 10.5 18.7436 10.5C18.7402 10.5 18.7368 10.5 18.7334 10.5C18.7301 10.5 18.7267 10.5 18.7233 10.5C18.7199 10.5 18.7166 10.5 18.7132 10.5C18.7098 10.5 18.7064 10.5 18.703 10.5C18.6997 10.5 18.6963 10.5 18.6929 10.5C18.6895 10.5 18.6861 10.5 18.6827 10.5C18.6794 10.5 18.676 10.5 18.6726 10.5C18.6692 10.5 18.6658 10.5 18.6624 10.5C18.659 10.5 18.6556 10.5 18.6522 10.5C18.6488 10.5 18.6455 10.5 18.6421 10.5C18.6387 10.5 18.6353 10.5 18.6319 10.5C18.6285 10.5 18.6251 10.5 18.6217 10.5C18.6183 10.5 18.6149 10.5 18.6115 10.5C18.6081 10.5 18.6047 10.5 18.6013 10.5C18.5979 10.5 18.5945 10.5 18.5911 10.5C18.5877 10.5 18.5843 10.5 18.5808 10.5C18.5774 10.5 18.574 10.5 18.5706 10.5C18.5672 10.5 18.5638 10.5 18.5604 10.5C18.557 10.5 18.5536 10.5 18.5501 10.5C18.5467 10.5 18.5433 10.5 18.5399 10.5C18.5365 10.5 18.5331 10.5 18.5296 10.5C18.5262 10.5 18.5228 10.5 18.5194 10.5C18.516 10.5 18.5125 10.5 18.5091 10.5C18.5057 10.5 18.5023 10.5 18.4988 10.5C18.4954 10.5 18.492 10.5 18.4886 10.5C18.4851 10.5 18.4817 10.5 18.4783 10.5C18.4749 10.5 18.4714 10.5 18.468 10.5C18.4646 10.5 18.4611 10.5 18.4577 10.5C18.4543 10.5 18.4508 10.5 18.4474 10.5C18.4439 10.5 18.4405 10.5 18.4371 10.5C18.4336 10.5 18.4302 10.5 18.4267 10.5C18.4233 10.5 18.4199 10.5 18.4164 10.5C18.413 10.5 18.4095 10.5 18.4061 10.5C18.4026 10.5 18.3992 10.5 18.3957 10.5C18.3923 10.5 18.3888 10.5 18.3854 10.5C18.3819 10.5 18.3785 10.5 18.375 10.5C18.3716 10.5 18.3681 10.5 18.3647 10.5C18.3612 10.5 18.3577 10.5 18.3543 10.5C18.3508 10.5 18.3474 10.5 18.3439 10.5C18.3404 10.5 18.337 10.5 18.3335 10.5C18.33 10.5 18.3266 10.5 18.3231 10.5C18.3197 10.5 18.3162 10.5 18.3127 10.5C18.3092 10.5 18.3058 10.5 18.3023 10.5C18.2988 10.5 18.2954 10.5 18.2919 10.5C18.2884 10.5 18.2849 10.5 18.2815 10.5C18.278 10.5 18.2745 10.5 18.271 10.5C18.2676 10.5 18.2641 10.5 18.2606 10.5C18.2571 10.5 18.2536 10.5 18.2501 10.5V11.5ZM23.25 11.5C23.2994 11.5 23.4035 11.5012 23.4999 11.4863C23.5588 11.4772 23.8366 11.435 23.9745 11.1649C24.1194 10.8812 23.9773 10.6197 23.9231 10.5302C23.849 10.4077 23.7372 10.2801 23.6036 10.1464L22.8964 10.8536C23.0128 10.9699 23.0566 11.0298 23.0676 11.0479C23.0728 11.0566 23.0557 11.0319 23.045 10.9811C23.033 10.9243 23.0272 10.8212 23.084 10.7101C23.1395 10.6014 23.2233 10.547 23.2711 10.5238C23.295 10.5122 23.3144 10.506 23.3258 10.5028C23.3374 10.4996 23.3451 10.4984 23.3471 10.4981C23.3499 10.4976 23.3441 10.4986 23.3242 10.4993C23.3045 10.5 23.2822 10.5 23.25 10.5V11.5ZM16.75 10C16.75 10.8285 17.4218 11.5 18.2501 11.5V10.5C17.9739 10.5 17.75 10.276 17.75 10H16.75Z" fill="#606671"/>
<path d="M6.25 26.5V1.5C6.25 1.22386 6.47386 1 6.75 1H21.3358C21.601 1 21.8554 1.10536 22.0429 1.29289L27.4571 6.70711C27.6446 6.89464 27.75 7.149 27.75 7.41421V26.5C27.75 27.0523 27.3023 27.5 26.75 27.5H7.25C6.69772 27.5 6.25 27.0523 6.25 26.5Z" fill="white" stroke="#264AE5"/>
<path d="M21.25 1L21.4736 0.552786C21.3186 0.475289 21.1345 0.483571 20.9871 0.574675C20.8397 0.665778 20.75 0.826711 20.75 1H21.25ZM22.25 1.5L22.6036 1.14645L22.5462 1.08907L22.4736 1.05279L22.25 1.5ZM20.75 1V6H21.75V1H20.75ZM27.6036 6.14645L22.6036 1.14645L21.8964 1.85355L26.8964 6.85355L27.6036 6.14645ZM22.4736 1.05279L21.4736 0.552786L21.0264 1.44721L22.0264 1.94721L22.4736 1.05279ZM22.2501 7.5C22.2536 7.5 22.2571 7.5 22.2606 7.5C22.2641 7.5 22.2676 7.5 22.271 7.5C22.2745 7.5 22.278 7.5 22.2815 7.5C22.2849 7.5 22.2884 7.5 22.2919 7.5C22.2954 7.5 22.2988 7.5 22.3023 7.5C22.3058 7.5 22.3092 7.5 22.3127 7.5C22.3162 7.5 22.3197 7.5 22.3231 7.5C22.3266 7.5 22.33 7.5 22.3335 7.5C22.337 7.5 22.3404 7.5 22.3439 7.5C22.3474 7.5 22.3508 7.5 22.3543 7.5C22.3577 7.5 22.3612 7.5 22.3647 7.5C22.3681 7.5 22.3716 7.5 22.375 7.5C22.3785 7.5 22.3819 7.5 22.3854 7.5C22.3888 7.5 22.3923 7.5 22.3957 7.5C22.3992 7.5 22.4026 7.5 22.4061 7.5C22.4095 7.5 22.413 7.5 22.4164 7.5C22.4199 7.5 22.4233 7.5 22.4267 7.5C22.4302 7.5 22.4336 7.5 22.4371 7.5C22.4405 7.5 22.4439 7.5 22.4474 7.5C22.4508 7.5 22.4543 7.5 22.4577 7.5C22.4611 7.5 22.4646 7.5 22.468 7.5C22.4714 7.5 22.4749 7.5 22.4783 7.5C22.4817 7.5 22.4851 7.5 22.4886 7.5C22.492 7.5 22.4954 7.5 22.4988 7.5C22.5023 7.5 22.5057 7.5 22.5091 7.5C22.5125 7.5 22.516 7.5 22.5194 7.5C22.5228 7.5 22.5262 7.5 22.5296 7.5C22.5331 7.5 22.5365 7.5 22.5399 7.5C22.5433 7.5 22.5467 7.5 22.5501 7.5C22.5536 7.5 22.557 7.5 22.5604 7.5C22.5638 7.5 22.5672 7.5 22.5706 7.5C22.574 7.5 22.5774 7.5 22.5808 7.5C22.5843 7.5 22.5877 7.5 22.5911 7.5C22.5945 7.5 22.5979 7.5 22.6013 7.5C22.6047 7.5 22.6081 7.5 22.6115 7.5C22.6149 7.5 22.6183 7.5 22.6217 7.5C22.6251 7.5 22.6285 7.5 22.6319 7.5C22.6353 7.5 22.6387 7.5 22.6421 7.5C22.6455 7.5 22.6488 7.5 22.6522 7.5C22.6556 7.5 22.659 7.5 22.6624 7.5C22.6658 7.5 22.6692 7.5 22.6726 7.5C22.676 7.5 22.6794 7.5 22.6827 7.5C22.6861 7.5 22.6895 7.5 22.6929 7.5C22.6963 7.5 22.6997 7.5 22.703 7.5C22.7064 7.5 22.7098 7.5 22.7132 7.5C22.7166 7.5 22.7199 7.5 22.7233 7.5C22.7267 7.5 22.7301 7.5 22.7334 7.5C22.7368 7.5 22.7402 7.5 22.7436 7.5C22.7469 7.5 22.7503 7.5 22.7537 7.5C22.757 7.5 22.7604 7.5 22.7638 7.5C22.7672 7.5 22.7705 7.5 22.7739 7.5C22.7773 7.5 22.7806 7.5 22.784 7.5C22.7873 7.5 22.7907 7.5 22.7941 7.5C22.7974 7.5 22.8008 7.5 22.8042 7.5C22.8075 7.5 22.8109 7.5 22.8142 7.5C22.8176 7.5 22.821 7.5 22.8243 7.5C22.8277 7.5 22.831 7.5 22.8344 7.5C22.8377 7.5 22.8411 7.5 22.8444 7.5C22.8478 7.5 22.8511 7.5 22.8545 7.5C22.8578 7.5 22.8612 7.5 22.8645 7.5C22.8679 7.5 22.8712 7.5 22.8746 7.5C22.8779 7.5 22.8813 7.5 22.8846 7.5C22.888 7.5 22.8913 7.5 22.8947 7.5C22.898 7.5 22.9013 7.5 22.9047 7.5C22.908 7.5 22.9114 7.5 22.9147 7.5C22.918 7.5 22.9214 7.5 22.9247 7.5C22.928 7.5 22.9314 7.5 22.9347 7.5C22.9381 7.5 22.9414 7.5 22.9447 7.5C22.9481 7.5 22.9514 7.5 22.9547 7.5C22.958 7.5 22.9614 7.5 22.9647 7.5C22.968 7.5 22.9714 7.5 22.9747 7.5C22.978 7.5 22.9813 7.5 22.9847 7.5C22.988 7.5 22.9913 7.5 22.9946 7.5C22.998 7.5 23.0013 7.5 23.0046 7.5C23.0079 7.5 23.0113 7.5 23.0146 7.5C23.0179 7.5 23.0212 7.5 23.0245 7.5C23.0279 7.5 23.0312 7.5 23.0345 7.5C23.0378 7.5 23.0411 7.5 23.0444 7.5C23.0478 7.5 23.0511 7.5 23.0544 7.5C23.0577 7.5 23.061 7.5 23.0643 7.5C23.0676 7.5 23.0709 7.5 23.0742 7.5C23.0776 7.5 23.0809 7.5 23.0842 7.5C23.0875 7.5 23.0908 7.5 23.0941 7.5C23.0974 7.5 23.1007 7.5 23.104 7.5C23.1073 7.5 23.1106 7.5 23.1139 7.5C23.1172 7.5 23.1205 7.5 23.1238 7.5C23.1271 7.5 23.1304 7.5 23.1337 7.5C23.137 7.5 23.1403 7.5 23.1436 7.5C23.1469 7.5 23.1502 7.5 23.1535 7.5C23.1568 7.5 23.1601 7.5 23.1634 7.5C23.1667 7.5 23.17 7.5 23.1733 7.5C23.1766 7.5 23.1799 7.5 23.1831 7.5C23.1864 7.5 23.1897 7.5 23.193 7.5C23.1963 7.5 23.1996 7.5 23.2029 7.5C23.2062 7.5 23.2095 7.5 23.2127 7.5C23.216 7.5 23.2193 7.5 23.2226 7.5C23.2259 7.5 23.2292 7.5 23.2324 7.5C23.2357 7.5 23.239 7.5 23.2423 7.5C23.2456 7.5 23.2489 7.5 23.2521 7.5C23.2554 7.5 23.2587 7.5 23.262 7.5C23.2652 7.5 23.2685 7.5 23.2718 7.5C23.2751 7.5 23.2783 7.5 23.2816 7.5C23.2849 7.5 23.2882 7.5 23.2914 7.5C23.2947 7.5 23.298 7.5 23.3013 7.5C23.3045 7.5 23.3078 7.5 23.3111 7.5C23.3143 7.5 23.3176 7.5 23.3209 7.5C23.3241 7.5 23.3274 7.5 23.3307 7.5C23.334 7.5 23.3372 7.5 23.3405 7.5C23.3437 7.5 23.347 7.5 23.3503 7.5C23.3535 7.5 23.3568 7.5 23.3601 7.5C23.3633 7.5 23.3666 7.5 23.3699 7.5C23.3731 7.5 23.3764 7.5 23.3796 7.5C23.3829 7.5 23.3862 7.5 23.3894 7.5C23.3927 7.5 23.3959 7.5 23.3992 7.5C23.4024 7.5 23.4057 7.5 23.4089 7.5C23.4122 7.5 23.4155 7.5 23.4187 7.5C23.422 7.5 23.4252 7.5 23.4285 7.5C23.4317 7.5 23.435 7.5 23.4382 7.5C23.4415 7.5 23.4447 7.5 23.448 7.5C23.4512 7.5 23.4545 7.5 23.4577 7.5C23.461 7.5 23.4642 7.5 23.4675 7.5C23.4707 7.5 23.474 7.5 23.4772 7.5C23.4804 7.5 23.4837 7.5 23.4869 7.5C23.4902 7.5 23.4934 7.5 23.4967 7.5C23.4999 7.5 23.5032 7.5 23.5064 7.5C23.5096 7.5 23.5129 7.5 23.5161 7.5C23.5194 7.5 23.5226 7.5 23.5258 7.5C23.5291 7.5 23.5323 7.5 23.5355 7.5C23.5388 7.5 23.542 7.5 23.5453 7.5C23.5485 7.5 23.5517 7.5 23.555 7.5C23.5582 7.5 23.5614 7.5 23.5647 7.5C23.5679 7.5 23.5711 7.5 23.5744 7.5C23.5776 7.5 23.5808 7.5 23.5841 7.5C23.5873 7.5 23.5905 7.5 23.5937 7.5C23.597 7.5 23.6002 7.5 23.6034 7.5C23.6067 7.5 23.6099 7.5 23.6131 7.5C23.6163 7.5 23.6196 7.5 23.6228 7.5C23.626 7.5 23.6293 7.5 23.6325 7.5C23.6357 7.5 23.6389 7.5 23.6421 7.5C23.6454 7.5 23.6486 7.5 23.6518 7.5C23.655 7.5 23.6583 7.5 23.6615 7.5C23.6647 7.5 23.6679 7.5 23.6711 7.5C23.6744 7.5 23.6776 7.5 23.6808 7.5C23.684 7.5 23.6872 7.5 23.6905 7.5C23.6937 7.5 23.6969 7.5 23.7001 7.5C23.7033 7.5 23.7065 7.5 23.7098 7.5C23.713 7.5 23.7162 7.5 23.7194 7.5C23.7226 7.5 23.7258 7.5 23.729 7.5C23.7323 7.5 23.7355 7.5 23.7387 7.5C23.7419 7.5 23.7451 7.5 23.7483 7.5C23.7515 7.5 23.7547 7.5 23.7579 7.5C23.7612 7.5 23.7644 7.5 23.7676 7.5C23.7708 7.5 23.774 7.5 23.7772 7.5C23.7804 7.5 23.7836 7.5 23.7868 7.5C23.79 7.5 23.7932 7.5 23.7964 7.5C23.7996 7.5 23.8028 7.5 23.8061 7.5C23.8093 7.5 23.8125 7.5 23.8157 7.5C23.8189 7.5 23.8221 7.5 23.8253 7.5C23.8285 7.5 23.8317 7.5 23.8349 7.5C23.8381 7.5 23.8413 7.5 23.8445 7.5C23.8477 7.5 23.8509 7.5 23.8541 7.5C23.8573 7.5 23.8605 7.5 23.8637 7.5C23.8669 7.5 23.8701 7.5 23.8733 7.5C23.8765 7.5 23.8797 7.5 23.8829 7.5C23.8861 7.5 23.8893 7.5 23.8925 7.5C23.8957 7.5 23.8988 7.5 23.902 7.5C23.9052 7.5 23.9084 7.5 23.9116 7.5C23.9148 7.5 23.918 7.5 23.9212 7.5C23.9244 7.5 23.9276 7.5 23.9308 7.5C23.934 7.5 23.9372 7.5 23.9404 7.5C23.9435 7.5 23.9467 7.5 23.9499 7.5C23.9531 7.5 23.9563 7.5 23.9595 7.5C23.9627 7.5 23.9659 7.5 23.9691 7.5C23.9723 7.5 23.9754 7.5 23.9786 7.5C23.9818 7.5 23.985 7.5 23.9882 7.5C23.9914 7.5 23.9946 7.5 23.9977 7.5C24.0009 7.5 24.0041 7.5 24.0073 7.5C24.0105 7.5 24.0137 7.5 24.0169 7.5C24.02 7.5 24.0232 7.5 24.0264 7.5C24.0296 7.5 24.0328 7.5 24.036 7.5C24.0391 7.5 24.0423 7.5 24.0455 7.5C24.0487 7.5 24.0519 7.5 24.055 7.5C24.0582 7.5 24.0614 7.5 24.0646 7.5C24.0678 7.5 24.0709 7.5 24.0741 7.5C24.0773 7.5 24.0805 7.5 24.0837 7.5C24.0868 7.5 24.09 7.5 24.0932 7.5C24.0964 7.5 24.0996 7.5 24.1027 7.5C24.1059 7.5 24.1091 7.5 24.1123 7.5C24.1154 7.5 24.1186 7.5 24.1218 7.5C24.125 7.5 24.1281 7.5 24.1313 7.5C24.1345 7.5 24.1377 7.5 24.1408 7.5C24.144 7.5 24.1472 7.5 24.1504 7.5C24.1535 7.5 24.1567 7.5 24.1599 7.5C24.1631 7.5 24.1662 7.5 24.1694 7.5C24.1726 7.5 24.1757 7.5 24.1789 7.5C24.1821 7.5 24.1853 7.5 24.1884 7.5C24.1916 7.5 24.1948 7.5 24.1979 7.5C24.2011 7.5 24.2043 7.5 24.2074 7.5C24.2106 7.5 24.2138 7.5 24.217 7.5C24.2201 7.5 24.2233 7.5 24.2265 7.5C24.2296 7.5 24.2328 7.5 24.236 7.5C24.2391 7.5 24.2423 7.5 24.2455 7.5C24.2486 7.5 24.2518 7.5 24.255 7.5C24.2581 7.5 24.2613 7.5 24.2645 7.5C24.2676 7.5 24.2708 7.5 24.274 7.5C24.2771 7.5 24.2803 7.5 24.2835 7.5C24.2866 7.5 24.2898 7.5 24.293 7.5C24.2961 7.5 24.2993 7.5 24.3024 7.5C24.3056 7.5 24.3088 7.5 24.3119 7.5C24.3151 7.5 24.3183 7.5 24.3214 7.5C24.3246 7.5 24.3278 7.5 24.3309 7.5C24.3341 7.5 24.3372 7.5 24.3404 7.5C24.3436 7.5 24.3467 7.5 24.3499 7.5C24.353 7.5 24.3562 7.5 24.3594 7.5C24.3625 7.5 24.3657 7.5 24.3688 7.5C24.372 7.5 24.3752 7.5 24.3783 7.5C24.3815 7.5 24.3846 7.5 24.3878 7.5C24.391 7.5 24.3941 7.5 24.3973 7.5C24.4004 7.5 24.4036 7.5 24.4068 7.5C24.4099 7.5 24.4131 7.5 24.4162 7.5C24.4194 7.5 24.4226 7.5 24.4257 7.5C24.4289 7.5 24.432 7.5 24.4352 7.5C24.4383 7.5 24.4415 7.5 24.4447 7.5C24.4478 7.5 24.451 7.5 24.4541 7.5C24.4573 7.5 24.4604 7.5 24.4636 7.5C24.4667 7.5 24.4699 7.5 24.4731 7.5C24.4762 7.5 24.4794 7.5 24.4825 7.5C24.4857 7.5 24.4888 7.5 24.492 7.5C24.4951 7.5 24.4983 7.5 24.5015 7.5C24.5046 7.5 24.5078 7.5 24.5109 7.5C24.5141 7.5 24.5172 7.5 24.5204 7.5C24.5235 7.5 24.5267 7.5 24.5298 7.5C24.533 7.5 24.5362 7.5 24.5393 7.5C24.5425 7.5 24.5456 7.5 24.5488 7.5C24.5519 7.5 24.5551 7.5 24.5582 7.5C24.5614 7.5 24.5645 7.5 24.5677 7.5C24.5708 7.5 24.574 7.5 24.5771 7.5C24.5803 7.5 24.5834 7.5 24.5866 7.5C24.5898 7.5 24.5929 7.5 24.5961 7.5C24.5992 7.5 24.6024 7.5 24.6055 7.5C24.6087 7.5 24.6118 7.5 24.615 7.5C24.6181 7.5 24.6213 7.5 24.6244 7.5C24.6276 7.5 24.6307 7.5 24.6339 7.5C24.637 7.5 24.6402 7.5 24.6433 7.5C24.6465 7.5 24.6496 7.5 24.6528 7.5C24.6559 7.5 24.6591 7.5 24.6622 7.5C24.6654 7.5 24.6685 7.5 24.6717 7.5C24.6748 7.5 24.678 7.5 24.6811 7.5C24.6843 7.5 24.6874 7.5 24.6906 7.5C24.6937 7.5 24.6969 7.5 24.7 7.5C24.7032 7.5 24.7063 7.5 24.7095 7.5C24.7126 7.5 24.7158 7.5 24.7189 7.5C24.7221 7.5 24.7252 7.5 24.7284 7.5C24.7315 7.5 24.7347 7.5 24.7378 7.5C24.741 7.5 24.7441 7.5 24.7473 7.5C24.7504 7.5 24.7536 7.5 24.7567 7.5C24.7599 7.5 24.763 7.5 24.7662 7.5C24.7693 7.5 24.7725 7.5 24.7756 7.5C24.7788 7.5 24.7819 7.5 24.7851 7.5C24.7882 7.5 24.7914 7.5 24.7945 7.5C24.7977 7.5 24.8008 7.5 24.804 7.5C24.8071 7.5 24.8103 7.5 24.8134 7.5C24.8166 7.5 24.8197 7.5 24.8229 7.5C24.826 7.5 24.8292 7.5 24.8323 7.5C24.8355 7.5 24.8386 7.5 24.8418 7.5C24.8449 7.5 24.8481 7.5 24.8512 7.5C24.8544 7.5 24.8575 7.5 24.8607 7.5C24.8638 7.5 24.867 7.5 24.8701 7.5C24.8732 7.5 24.8764 7.5 24.8795 7.5C24.8827 7.5 24.8858 7.5 24.889 7.5C24.8921 7.5 24.8953 7.5 24.8984 7.5C24.9016 7.5 24.9047 7.5 24.9079 7.5C24.911 7.5 24.9142 7.5 24.9173 7.5C24.9205 7.5 24.9236 7.5 24.9268 7.5C24.9299 7.5 24.9331 7.5 24.9362 7.5C24.9394 7.5 24.9425 7.5 24.9457 7.5C24.9488 7.5 24.952 7.5 24.9551 7.5C24.9583 7.5 24.9614 7.5 24.9646 7.5C24.9677 7.5 24.9709 7.5 24.974 7.5C24.9772 7.5 24.9803 7.5 24.9835 7.5C24.9866 7.5 24.9898 7.5 24.9929 7.5C24.9961 7.5 24.9992 7.5 25.0024 7.5C25.0055 7.5 25.0087 7.5 25.0119 7.5C25.015 7.5 25.0182 7.5 25.0213 7.5C25.0245 7.5 25.0276 7.5 25.0308 7.5C25.0339 7.5 25.0371 7.5 25.0402 7.5C25.0434 7.5 25.0465 7.5 25.0497 7.5C25.0528 7.5 25.056 7.5 25.0591 7.5C25.0623 7.5 25.0654 7.5 25.0686 7.5C25.0717 7.5 25.0749 7.5 25.078 7.5C25.0812 7.5 25.0843 7.5 25.0875 7.5C25.0907 7.5 25.0938 7.5 25.097 7.5C25.1001 7.5 25.1033 7.5 25.1064 7.5C25.1096 7.5 25.1127 7.5 25.1159 7.5C25.119 7.5 25.1222 7.5 25.1253 7.5C25.1285 7.5 25.1316 7.5 25.1348 7.5C25.138 7.5 25.1411 7.5 25.1443 7.5C25.1474 7.5 25.1506 7.5 25.1537 7.5C25.1569 7.5 25.16 7.5 25.1632 7.5C25.1664 7.5 25.1695 7.5 25.1727 7.5C25.1758 7.5 25.179 7.5 25.1821 7.5C25.1853 7.5 25.1884 7.5 25.1916 7.5C25.1948 7.5 25.1979 7.5 25.2011 7.5C25.2042 7.5 25.2074 7.5 25.2105 7.5C25.2137 7.5 25.2169 7.5 25.22 7.5C25.2232 7.5 25.2263 7.5 25.2295 7.5C25.2326 7.5 25.2358 7.5 25.239 7.5C25.2421 7.5 25.2453 7.5 25.2484 7.5C25.2516 7.5 25.2548 7.5 25.2579 7.5C25.2611 7.5 25.2642 7.5 25.2674 7.5C25.2706 7.5 25.2737 7.5 25.2769 7.5C25.28 7.5 25.2832 7.5 25.2864 7.5C25.2895 7.5 25.2927 7.5 25.2958 7.5C25.299 7.5 25.3022 7.5 25.3053 7.5C25.3085 7.5 25.3116 7.5 25.3148 7.5C25.318 7.5 25.3211 7.5 25.3243 7.5C25.3275 7.5 25.3306 7.5 25.3338 7.5C25.337 7.5 25.3401 7.5 25.3433 7.5C25.3464 7.5 25.3496 7.5 25.3528 7.5C25.3559 7.5 25.3591 7.5 25.3623 7.5C25.3654 7.5 25.3686 7.5 25.3718 7.5C25.3749 7.5 25.3781 7.5 25.3813 7.5C25.3844 7.5 25.3876 7.5 25.3908 7.5C25.3939 7.5 25.3971 7.5 25.4003 7.5C25.4034 7.5 25.4066 7.5 25.4098 7.5C25.4129 7.5 25.4161 7.5 25.4193 7.5C25.4224 7.5 25.4256 7.5 25.4288 7.5C25.4319 7.5 25.4351 7.5 25.4383 7.5C25.4414 7.5 25.4446 7.5 25.4478 7.5C25.451 7.5 25.4541 7.5 25.4573 7.5C25.4605 7.5 25.4636 7.5 25.4668 7.5C25.47 7.5 25.4732 7.5 25.4763 7.5C25.4795 7.5 25.4827 7.5 25.4858 7.5C25.489 7.5 25.4922 7.5 25.4954 7.5C25.4985 7.5 25.5017 7.5 25.5049 7.5C25.5081 7.5 25.5112 7.5 25.5144 7.5C25.5176 7.5 25.5208 7.5 25.5239 7.5C25.5271 7.5 25.5303 7.5 25.5335 7.5C25.5366 7.5 25.5398 7.5 25.543 7.5C25.5462 7.5 25.5494 7.5 25.5525 7.5C25.5557 7.5 25.5589 7.5 25.5621 7.5C25.5652 7.5 25.5684 7.5 25.5716 7.5C25.5748 7.5 25.578 7.5 25.5811 7.5C25.5843 7.5 25.5875 7.5 25.5907 7.5C25.5939 7.5 25.597 7.5 25.6002 7.5C25.6034 7.5 25.6066 7.5 25.6098 7.5C25.613 7.5 25.6161 7.5 25.6193 7.5C25.6225 7.5 25.6257 7.5 25.6289 7.5C25.6321 7.5 25.6352 7.5 25.6384 7.5C25.6416 7.5 25.6448 7.5 25.648 7.5C25.6512 7.5 25.6544 7.5 25.6575 7.5C25.6607 7.5 25.6639 7.5 25.6671 7.5C25.6703 7.5 25.6735 7.5 25.6767 7.5C25.6799 7.5 25.683 7.5 25.6862 7.5C25.6894 7.5 25.6926 7.5 25.6958 7.5C25.699 7.5 25.7022 7.5 25.7054 7.5C25.7086 7.5 25.7118 7.5 25.7149 7.5C25.7181 7.5 25.7213 7.5 25.7245 7.5C25.7277 7.5 25.7309 7.5 25.7341 7.5C25.7373 7.5 25.7405 7.5 25.7437 7.5C25.7469 7.5 25.7501 7.5 25.7533 7.5C25.7565 7.5 25.7597 7.5 25.7629 7.5C25.7661 7.5 25.7693 7.5 25.7724 7.5C25.7756 7.5 25.7788 7.5 25.782 7.5C25.7852 7.5 25.7884 7.5 25.7916 7.5C25.7948 7.5 25.798 7.5 25.8012 7.5C25.8044 7.5 25.8076 7.5 25.8108 7.5C25.814 7.5 25.8172 7.5 25.8205 7.5C25.8237 7.5 25.8269 7.5 25.8301 7.5C25.8333 7.5 25.8365 7.5 25.8397 7.5C25.8429 7.5 25.8461 7.5 25.8493 7.5C25.8525 7.5 25.8557 7.5 25.8589 7.5C25.8621 7.5 25.8653 7.5 25.8685 7.5C25.8717 7.5 25.8749 7.5 25.8782 7.5C25.8814 7.5 25.8846 7.5 25.8878 7.5C25.891 7.5 25.8942 7.5 25.8974 7.5C25.9006 7.5 25.9038 7.5 25.907 7.5C25.9103 7.5 25.9135 7.5 25.9167 7.5C25.9199 7.5 25.9231 7.5 25.9263 7.5C25.9295 7.5 25.9328 7.5 25.936 7.5C25.9392 7.5 25.9424 7.5 25.9456 7.5C25.9488 7.5 25.9521 7.5 25.9553 7.5C25.9585 7.5 25.9617 7.5 25.9649 7.5C25.9681 7.5 25.9714 7.5 25.9746 7.5C25.9778 7.5 25.981 7.5 25.9842 7.5C25.9875 7.5 25.9907 7.5 25.9939 7.5C25.9971 7.5 26.0004 7.5 26.0036 7.5C26.0068 7.5 26.01 7.5 26.0132 7.5C26.0165 7.5 26.0197 7.5 26.0229 7.5C26.0262 7.5 26.0294 7.5 26.0326 7.5C26.0358 7.5 26.0391 7.5 26.0423 7.5C26.0455 7.5 26.0487 7.5 26.052 7.5C26.0552 7.5 26.0584 7.5 26.0617 7.5C26.0649 7.5 26.0681 7.5 26.0714 7.5C26.0746 7.5 26.0778 7.5 26.0811 7.5C26.0843 7.5 26.0875 7.5 26.0908 7.5C26.094 7.5 26.0972 7.5 26.1005 7.5C26.1037 7.5 26.1069 7.5 26.1102 7.5C26.1134 7.5 26.1167 7.5 26.1199 7.5C26.1231 7.5 26.1264 7.5 26.1296 7.5C26.1329 7.5 26.1361 7.5 26.1393 7.5C26.1426 7.5 26.1458 7.5 26.1491 7.5C26.1523 7.5 26.1555 7.5 26.1588 7.5C26.162 7.5 26.1653 7.5 26.1685 7.5C26.1718 7.5 26.175 7.5 26.1783 7.5C26.1815 7.5 26.1848 7.5 26.188 7.5C26.1913 7.5 26.1945 7.5 26.1978 7.5C26.201 7.5 26.2043 7.5 26.2075 7.5C26.2108 7.5 26.214 7.5 26.2173 7.5C26.2205 7.5 26.2238 7.5 26.227 7.5C26.2303 7.5 26.2335 7.5 26.2368 7.5C26.24 7.5 26.2433 7.5 26.2465 7.5C26.2498 7.5 26.2531 7.5 26.2563 7.5C26.2596 7.5 26.2628 7.5 26.2661 7.5C26.2694 7.5 26.2726 7.5 26.2759 7.5C26.2791 7.5 26.2824 7.5 26.2857 7.5C26.2889 7.5 26.2922 7.5 26.2955 7.5C26.2987 7.5 26.302 7.5 26.3052 7.5C26.3085 7.5 26.3118 7.5 26.315 7.5C26.3183 7.5 26.3216 7.5 26.3248 7.5C26.3281 7.5 26.3314 7.5 26.3347 7.5C26.3379 7.5 26.3412 7.5 26.3445 7.5C26.3477 7.5 26.351 7.5 26.3543 7.5C26.3576 7.5 26.3608 7.5 26.3641 7.5C26.3674 7.5 26.3707 7.5 26.3739 7.5C26.3772 7.5 26.3805 7.5 26.3838 7.5C26.387 7.5 26.3903 7.5 26.3936 7.5C26.3969 7.5 26.4002 7.5 26.4034 7.5C26.4067 7.5 26.41 7.5 26.4133 7.5C26.4166 7.5 26.4198 7.5 26.4231 7.5C26.4264 7.5 26.4297 7.5 26.433 7.5C26.4363 7.5 26.4396 7.5 26.4428 7.5C26.4461 7.5 26.4494 7.5 26.4527 7.5C26.456 7.5 26.4593 7.5 26.4626 7.5C26.4659 7.5 26.4692 7.5 26.4725 7.5C26.4757 7.5 26.479 7.5 26.4823 7.5C26.4856 7.5 26.4889 7.5 26.4922 7.5C26.4955 7.5 26.4988 7.5 26.5021 7.5C26.5054 7.5 26.5087 7.5 26.512 7.5C26.5153 7.5 26.5186 7.5 26.5219 7.5C26.5252 7.5 26.5285 7.5 26.5318 7.5C26.5351 7.5 26.5384 7.5 26.5417 7.5C26.545 7.5 26.5483 7.5 26.5516 7.5C26.5549 7.5 26.5582 7.5 26.5616 7.5C26.5649 7.5 26.5682 7.5 26.5715 7.5C26.5748 7.5 26.5781 7.5 26.5814 7.5C26.5847 7.5 26.588 7.5 26.5913 7.5C26.5947 7.5 26.598 7.5 26.6013 7.5C26.6046 7.5 26.6079 7.5 26.6112 7.5C26.6146 7.5 26.6179 7.5 26.6212 7.5C26.6245 7.5 26.6278 7.5 26.6311 7.5C26.6345 7.5 26.6378 7.5 26.6411 7.5C26.6444 7.5 26.6478 7.5 26.6511 7.5C26.6544 7.5 26.6577 7.5 26.6611 7.5C26.6644 7.5 26.6677 7.5 26.671 7.5C26.6744 7.5 26.6777 7.5 26.681 7.5C26.6843 7.5 26.6877 7.5 26.691 7.5C26.6943 7.5 26.6977 7.5 26.701 7.5C26.7043 7.5 26.7077 7.5 26.711 7.5C26.7143 7.5 26.7177 7.5 26.721 7.5C26.7244 7.5 26.7277 7.5 26.731 7.5C26.7344 7.5 26.7377 7.5 26.7411 7.5C26.7444 7.5 26.7477 7.5 26.7511 7.5C26.7544 7.5 26.7578 7.5 26.7611 7.5C26.7645 7.5 26.7678 7.5 26.7711 7.5C26.7745 7.5 26.7778 7.5 26.7812 7.5C26.7845 7.5 26.7879 7.5 26.7912 7.5C26.7946 7.5 26.7979 7.5 26.8013 7.5C26.8046 7.5 26.808 7.5 26.8114 7.5C26.8147 7.5 26.8181 7.5 26.8214 7.5C26.8248 7.5 26.8281 7.5 26.8315 7.5C26.8348 7.5 26.8382 7.5 26.8416 7.5C26.8449 7.5 26.8483 7.5 26.8517 7.5C26.855 7.5 26.8584 7.5 26.8617 7.5C26.8651 7.5 26.8685 7.5 26.8718 7.5C26.8752 7.5 26.8786 7.5 26.8819 7.5C26.8853 7.5 26.8887 7.5 26.8921 7.5C26.8954 7.5 26.8988 7.5 26.9022 7.5C26.9055 7.5 26.9089 7.5 26.9123 7.5C26.9157 7.5 26.919 7.5 26.9224 7.5C26.9258 7.5 26.9292 7.5 26.9326 7.5C26.9359 7.5 26.9393 7.5 26.9427 7.5C26.9461 7.5 26.9495 7.5 26.9528 7.5C26.9562 7.5 26.9596 7.5 26.963 7.5C26.9664 7.5 26.9698 7.5 26.9732 7.5C26.9765 7.5 26.9799 7.5 26.9833 7.5C26.9867 7.5 26.9901 7.5 26.9935 7.5C26.9969 7.5 27.0003 7.5 27.0037 7.5C27.0071 7.5 27.0105 7.5 27.0139 7.5C27.0173 7.5 27.0207 7.5 27.024 7.5C27.0274 7.5 27.0308 7.5 27.0342 7.5C27.0376 7.5 27.0411 7.5 27.0445 7.5C27.0479 7.5 27.0513 7.5 27.0547 7.5C27.0581 7.5 27.0615 7.5 27.0649 7.5C27.0683 7.5 27.0717 7.5 27.0751 7.5C27.0785 7.5 27.0819 7.5 27.0853 7.5C27.0888 7.5 27.0922 7.5 27.0956 7.5C27.099 7.5 27.1024 7.5 27.1058 7.5C27.1092 7.5 27.1127 7.5 27.1161 7.5C27.1195 7.5 27.1229 7.5 27.1263 7.5C27.1298 7.5 27.1332 7.5 27.1366 7.5C27.14 7.5 27.1435 7.5 27.1469 7.5C27.1503 7.5 27.1537 7.5 27.1572 7.5C27.1606 7.5 27.164 7.5 27.1674 7.5C27.1709 7.5 27.1743 7.5 27.1777 7.5C27.1812 7.5 27.1846 7.5 27.188 7.5C27.1915 7.5 27.1949 7.5 27.1984 7.5C27.2018 7.5 27.2052 7.5 27.2087 7.5C27.2121 7.5 27.2155 7.5 27.219 7.5C27.2224 7.5 27.2259 7.5 27.2293 7.5C27.2328 7.5 27.2362 7.5 27.2397 7.5C27.2431 7.5 27.2466 7.5 27.25 7.5V6.5C27.2466 6.5 27.2431 6.5 27.2397 6.5C27.2362 6.5 27.2328 6.5 27.2293 6.5C27.2259 6.5 27.2224 6.5 27.219 6.5C27.2155 6.5 27.2121 6.5 27.2087 6.5C27.2052 6.5 27.2018 6.5 27.1984 6.5C27.1949 6.5 27.1915 6.5 27.188 6.5C27.1846 6.5 27.1812 6.5 27.1777 6.5C27.1743 6.5 27.1709 6.5 27.1674 6.5C27.164 6.5 27.1606 6.5 27.1572 6.5C27.1537 6.5 27.1503 6.5 27.1469 6.5C27.1435 6.5 27.14 6.5 27.1366 6.5C27.1332 6.5 27.1298 6.5 27.1263 6.5C27.1229 6.5 27.1195 6.5 27.1161 6.5C27.1127 6.5 27.1092 6.5 27.1058 6.5C27.1024 6.5 27.099 6.5 27.0956 6.5C27.0922 6.5 27.0888 6.5 27.0853 6.5C27.0819 6.5 27.0785 6.5 27.0751 6.5C27.0717 6.5 27.0683 6.5 27.0649 6.5C27.0615 6.5 27.0581 6.5 27.0547 6.5C27.0513 6.5 27.0479 6.5 27.0445 6.5C27.0411 6.5 27.0376 6.5 27.0342 6.5C27.0308 6.5 27.0274 6.5 27.024 6.5C27.0207 6.5 27.0173 6.5 27.0139 6.5C27.0105 6.5 27.0071 6.5 27.0037 6.5C27.0003 6.5 26.9969 6.5 26.9935 6.5C26.9901 6.5 26.9867 6.5 26.9833 6.5C26.9799 6.5 26.9765 6.5 26.9732 6.5C26.9698 6.5 26.9664 6.5 26.963 6.5C26.9596 6.5 26.9562 6.5 26.9528 6.5C26.9495 6.5 26.9461 6.5 26.9427 6.5C26.9393 6.5 26.9359 6.5 26.9326 6.5C26.9292 6.5 26.9258 6.5 26.9224 6.5C26.919 6.5 26.9157 6.5 26.9123 6.5C26.9089 6.5 26.9055 6.5 26.9022 6.5C26.8988 6.5 26.8954 6.5 26.8921 6.5C26.8887 6.5 26.8853 6.5 26.8819 6.5C26.8786 6.5 26.8752 6.5 26.8718 6.5C26.8685 6.5 26.8651 6.5 26.8617 6.5C26.8584 6.5 26.855 6.5 26.8517 6.5C26.8483 6.5 26.8449 6.5 26.8416 6.5C26.8382 6.5 26.8348 6.5 26.8315 6.5C26.8281 6.5 26.8248 6.5 26.8214 6.5C26.8181 6.5 26.8147 6.5 26.8114 6.5C26.808 6.5 26.8046 6.5 26.8013 6.5C26.7979 6.5 26.7946 6.5 26.7912 6.5C26.7879 6.5 26.7845 6.5 26.7812 6.5C26.7778 6.5 26.7745 6.5 26.7711 6.5C26.7678 6.5 26.7645 6.5 26.7611 6.5C26.7578 6.5 26.7544 6.5 26.7511 6.5C26.7477 6.5 26.7444 6.5 26.7411 6.5C26.7377 6.5 26.7344 6.5 26.731 6.5C26.7277 6.5 26.7244 6.5 26.721 6.5C26.7177 6.5 26.7143 6.5 26.711 6.5C26.7077 6.5 26.7043 6.5 26.701 6.5C26.6977 6.5 26.6943 6.5 26.691 6.5C26.6877 6.5 26.6843 6.5 26.681 6.5C26.6777 6.5 26.6744 6.5 26.671 6.5C26.6677 6.5 26.6644 6.5 26.6611 6.5C26.6577 6.5 26.6544 6.5 26.6511 6.5C26.6478 6.5 26.6444 6.5 26.6411 6.5C26.6378 6.5 26.6345 6.5 26.6311 6.5C26.6278 6.5 26.6245 6.5 26.6212 6.5C26.6179 6.5 26.6146 6.5 26.6112 6.5C26.6079 6.5 26.6046 6.5 26.6013 6.5C26.598 6.5 26.5947 6.5 26.5913 6.5C26.588 6.5 26.5847 6.5 26.5814 6.5C26.5781 6.5 26.5748 6.5 26.5715 6.5C26.5682 6.5 26.5649 6.5 26.5616 6.5C26.5582 6.5 26.5549 6.5 26.5516 6.5C26.5483 6.5 26.545 6.5 26.5417 6.5C26.5384 6.5 26.5351 6.5 26.5318 6.5C26.5285 6.5 26.5252 6.5 26.5219 6.5C26.5186 6.5 26.5153 6.5 26.512 6.5C26.5087 6.5 26.5054 6.5 26.5021 6.5C26.4988 6.5 26.4955 6.5 26.4922 6.5C26.4889 6.5 26.4856 6.5 26.4823 6.5C26.479 6.5 26.4757 6.5 26.4725 6.5C26.4692 6.5 26.4659 6.5 26.4626 6.5C26.4593 6.5 26.456 6.5 26.4527 6.5C26.4494 6.5 26.4461 6.5 26.4428 6.5C26.4396 6.5 26.4363 6.5 26.433 6.5C26.4297 6.5 26.4264 6.5 26.4231 6.5C26.4198 6.5 26.4166 6.5 26.4133 6.5C26.41 6.5 26.4067 6.5 26.4034 6.5C26.4002 6.5 26.3969 6.5 26.3936 6.5C26.3903 6.5 26.387 6.5 26.3838 6.5C26.3805 6.5 26.3772 6.5 26.3739 6.5C26.3707 6.5 26.3674 6.5 26.3641 6.5C26.3608 6.5 26.3576 6.5 26.3543 6.5C26.351 6.5 26.3477 6.5 26.3445 6.5C26.3412 6.5 26.3379 6.5 26.3347 6.5C26.3314 6.5 26.3281 6.5 26.3248 6.5C26.3216 6.5 26.3183 6.5 26.315 6.5C26.3118 6.5 26.3085 6.5 26.3052 6.5C26.302 6.5 26.2987 6.5 26.2955 6.5C26.2922 6.5 26.2889 6.5 26.2857 6.5C26.2824 6.5 26.2791 6.5 26.2759 6.5C26.2726 6.5 26.2694 6.5 26.2661 6.5C26.2628 6.5 26.2596 6.5 26.2563 6.5C26.2531 6.5 26.2498 6.5 26.2465 6.5C26.2433 6.5 26.24 6.5 26.2368 6.5C26.2335 6.5 26.2303 6.5 26.227 6.5C26.2238 6.5 26.2205 6.5 26.2173 6.5C26.214 6.5 26.2108 6.5 26.2075 6.5C26.2043 6.5 26.201 6.5 26.1978 6.5C26.1945 6.5 26.1913 6.5 26.188 6.5C26.1848 6.5 26.1815 6.5 26.1783 6.5C26.175 6.5 26.1718 6.5 26.1685 6.5C26.1653 6.5 26.162 6.5 26.1588 6.5C26.1555 6.5 26.1523 6.5 26.1491 6.5C26.1458 6.5 26.1426 6.5 26.1393 6.5C26.1361 6.5 26.1329 6.5 26.1296 6.5C26.1264 6.5 26.1231 6.5 26.1199 6.5C26.1167 6.5 26.1134 6.5 26.1102 6.5C26.1069 6.5 26.1037 6.5 26.1005 6.5C26.0972 6.5 26.094 6.5 26.0908 6.5C26.0875 6.5 26.0843 6.5 26.0811 6.5C26.0778 6.5 26.0746 6.5 26.0714 6.5C26.0681 6.5 26.0649 6.5 26.0617 6.5C26.0584 6.5 26.0552 6.5 26.052 6.5C26.0487 6.5 26.0455 6.5 26.0423 6.5C26.0391 6.5 26.0358 6.5 26.0326 6.5C26.0294 6.5 26.0262 6.5 26.0229 6.5C26.0197 6.5 26.0165 6.5 26.0132 6.5C26.01 6.5 26.0068 6.5 26.0036 6.5C26.0004 6.5 25.9971 6.5 25.9939 6.5C25.9907 6.5 25.9875 6.5 25.9842 6.5C25.981 6.5 25.9778 6.5 25.9746 6.5C25.9714 6.5 25.9681 6.5 25.9649 6.5C25.9617 6.5 25.9585 6.5 25.9553 6.5C25.9521 6.5 25.9488 6.5 25.9456 6.5C25.9424 6.5 25.9392 6.5 25.936 6.5C25.9328 6.5 25.9295 6.5 25.9263 6.5C25.9231 6.5 25.9199 6.5 25.9167 6.5C25.9135 6.5 25.9103 6.5 25.907 6.5C25.9038 6.5 25.9006 6.5 25.8974 6.5C25.8942 6.5 25.891 6.5 25.8878 6.5C25.8846 6.5 25.8814 6.5 25.8782 6.5C25.8749 6.5 25.8717 6.5 25.8685 6.5C25.8653 6.5 25.8621 6.5 25.8589 6.5C25.8557 6.5 25.8525 6.5 25.8493 6.5C25.8461 6.5 25.8429 6.5 25.8397 6.5C25.8365 6.5 25.8333 6.5 25.8301 6.5C25.8269 6.5 25.8237 6.5 25.8205 6.5C25.8172 6.5 25.814 6.5 25.8108 6.5C25.8076 6.5 25.8044 6.5 25.8012 6.5C25.798 6.5 25.7948 6.5 25.7916 6.5C25.7884 6.5 25.7852 6.5 25.782 6.5C25.7788 6.5 25.7756 6.5 25.7724 6.5C25.7693 6.5 25.7661 6.5 25.7629 6.5C25.7597 6.5 25.7565 6.5 25.7533 6.5C25.7501 6.5 25.7469 6.5 25.7437 6.5C25.7405 6.5 25.7373 6.5 25.7341 6.5C25.7309 6.5 25.7277 6.5 25.7245 6.5C25.7213 6.5 25.7181 6.5 25.7149 6.5C25.7118 6.5 25.7086 6.5 25.7054 6.5C25.7022 6.5 25.699 6.5 25.6958 6.5C25.6926 6.5 25.6894 6.5 25.6862 6.5C25.683 6.5 25.6799 6.5 25.6767 6.5C25.6735 6.5 25.6703 6.5 25.6671 6.5C25.6639 6.5 25.6607 6.5 25.6575 6.5C25.6544 6.5 25.6512 6.5 25.648 6.5C25.6448 6.5 25.6416 6.5 25.6384 6.5C25.6352 6.5 25.6321 6.5 25.6289 6.5C25.6257 6.5 25.6225 6.5 25.6193 6.5C25.6161 6.5 25.613 6.5 25.6098 6.5C25.6066 6.5 25.6034 6.5 25.6002 6.5C25.597 6.5 25.5939 6.5 25.5907 6.5C25.5875 6.5 25.5843 6.5 25.5811 6.5C25.578 6.5 25.5748 6.5 25.5716 6.5C25.5684 6.5 25.5652 6.5 25.5621 6.5C25.5589 6.5 25.5557 6.5 25.5525 6.5C25.5494 6.5 25.5462 6.5 25.543 6.5C25.5398 6.5 25.5366 6.5 25.5335 6.5C25.5303 6.5 25.5271 6.5 25.5239 6.5C25.5208 6.5 25.5176 6.5 25.5144 6.5C25.5112 6.5 25.5081 6.5 25.5049 6.5C25.5017 6.5 25.4985 6.5 25.4954 6.5C25.4922 6.5 25.489 6.5 25.4858 6.5C25.4827 6.5 25.4795 6.5 25.4763 6.5C25.4732 6.5 25.47 6.5 25.4668 6.5C25.4636 6.5 25.4605 6.5 25.4573 6.5C25.4541 6.5 25.451 6.5 25.4478 6.5C25.4446 6.5 25.4414 6.5 25.4383 6.5C25.4351 6.5 25.4319 6.5 25.4288 6.5C25.4256 6.5 25.4224 6.5 25.4193 6.5C25.4161 6.5 25.4129 6.5 25.4098 6.5C25.4066 6.5 25.4034 6.5 25.4003 6.5C25.3971 6.5 25.3939 6.5 25.3908 6.5C25.3876 6.5 25.3844 6.5 25.3813 6.5C25.3781 6.5 25.3749 6.5 25.3718 6.5C25.3686 6.5 25.3654 6.5 25.3623 6.5C25.3591 6.5 25.3559 6.5 25.3528 6.5C25.3496 6.5 25.3464 6.5 25.3433 6.5C25.3401 6.5 25.337 6.5 25.3338 6.5C25.3306 6.5 25.3275 6.5 25.3243 6.5C25.3211 6.5 25.318 6.5 25.3148 6.5C25.3116 6.5 25.3085 6.5 25.3053 6.5C25.3022 6.5 25.299 6.5 25.2958 6.5C25.2927 6.5 25.2895 6.5 25.2864 6.5C25.2832 6.5 25.28 6.5 25.2769 6.5C25.2737 6.5 25.2706 6.5 25.2674 6.5C25.2642 6.5 25.2611 6.5 25.2579 6.5C25.2548 6.5 25.2516 6.5 25.2484 6.5C25.2453 6.5 25.2421 6.5 25.239 6.5C25.2358 6.5 25.2326 6.5 25.2295 6.5C25.2263 6.5 25.2232 6.5 25.22 6.5C25.2169 6.5 25.2137 6.5 25.2105 6.5C25.2074 6.5 25.2042 6.5 25.2011 6.5C25.1979 6.5 25.1948 6.5 25.1916 6.5C25.1884 6.5 25.1853 6.5 25.1821 6.5C25.179 6.5 25.1758 6.5 25.1727 6.5C25.1695 6.5 25.1664 6.5 25.1632 6.5C25.16 6.5 25.1569 6.5 25.1537 6.5C25.1506 6.5 25.1474 6.5 25.1443 6.5C25.1411 6.5 25.138 6.5 25.1348 6.5C25.1316 6.5 25.1285 6.5 25.1253 6.5C25.1222 6.5 25.119 6.5 25.1159 6.5C25.1127 6.5 25.1096 6.5 25.1064 6.5C25.1033 6.5 25.1001 6.5 25.097 6.5C25.0938 6.5 25.0907 6.5 25.0875 6.5C25.0843 6.5 25.0812 6.5 25.078 6.5C25.0749 6.5 25.0717 6.5 25.0686 6.5C25.0654 6.5 25.0623 6.5 25.0591 6.5C25.056 6.5 25.0528 6.5 25.0497 6.5C25.0465 6.5 25.0434 6.5 25.0402 6.5C25.0371 6.5 25.0339 6.5 25.0308 6.5C25.0276 6.5 25.0245 6.5 25.0213 6.5C25.0182 6.5 25.015 6.5 25.0119 6.5C25.0087 6.5 25.0055 6.5 25.0024 6.5C24.9992 6.5 24.9961 6.5 24.9929 6.5C24.9898 6.5 24.9866 6.5 24.9835 6.5C24.9803 6.5 24.9772 6.5 24.974 6.5C24.9709 6.5 24.9677 6.5 24.9646 6.5C24.9614 6.5 24.9583 6.5 24.9551 6.5C24.952 6.5 24.9488 6.5 24.9457 6.5C24.9425 6.5 24.9394 6.5 24.9362 6.5C24.9331 6.5 24.9299 6.5 24.9268 6.5C24.9236 6.5 24.9205 6.5 24.9173 6.5C24.9142 6.5 24.911 6.5 24.9079 6.5C24.9047 6.5 24.9016 6.5 24.8984 6.5C24.8953 6.5 24.8921 6.5 24.889 6.5C24.8858 6.5 24.8827 6.5 24.8795 6.5C24.8764 6.5 24.8732 6.5 24.8701 6.5C24.867 6.5 24.8638 6.5 24.8607 6.5C24.8575 6.5 24.8544 6.5 24.8512 6.5C24.8481 6.5 24.8449 6.5 24.8418 6.5C24.8386 6.5 24.8355 6.5 24.8323 6.5C24.8292 6.5 24.826 6.5 24.8229 6.5C24.8197 6.5 24.8166 6.5 24.8134 6.5C24.8103 6.5 24.8071 6.5 24.804 6.5C24.8008 6.5 24.7977 6.5 24.7945 6.5C24.7914 6.5 24.7882 6.5 24.7851 6.5C24.7819 6.5 24.7788 6.5 24.7756 6.5C24.7725 6.5 24.7693 6.5 24.7662 6.5C24.763 6.5 24.7599 6.5 24.7567 6.5C24.7536 6.5 24.7504 6.5 24.7473 6.5C24.7441 6.5 24.741 6.5 24.7378 6.5C24.7347 6.5 24.7315 6.5 24.7284 6.5C24.7252 6.5 24.7221 6.5 24.7189 6.5C24.7158 6.5 24.7126 6.5 24.7095 6.5C24.7063 6.5 24.7032 6.5 24.7 6.5C24.6969 6.5 24.6937 6.5 24.6906 6.5C24.6874 6.5 24.6843 6.5 24.6811 6.5C24.678 6.5 24.6748 6.5 24.6717 6.5C24.6685 6.5 24.6654 6.5 24.6622 6.5C24.6591 6.5 24.6559 6.5 24.6528 6.5C24.6496 6.5 24.6465 6.5 24.6433 6.5C24.6402 6.5 24.637 6.5 24.6339 6.5C24.6307 6.5 24.6276 6.5 24.6244 6.5C24.6213 6.5 24.6181 6.5 24.615 6.5C24.6118 6.5 24.6087 6.5 24.6055 6.5C24.6024 6.5 24.5992 6.5 24.5961 6.5C24.5929 6.5 24.5898 6.5 24.5866 6.5C24.5834 6.5 24.5803 6.5 24.5771 6.5C24.574 6.5 24.5708 6.5 24.5677 6.5C24.5645 6.5 24.5614 6.5 24.5582 6.5C24.5551 6.5 24.5519 6.5 24.5488 6.5C24.5456 6.5 24.5425 6.5 24.5393 6.5C24.5362 6.5 24.533 6.5 24.5298 6.5C24.5267 6.5 24.5235 6.5 24.5204 6.5C24.5172 6.5 24.5141 6.5 24.5109 6.5C24.5078 6.5 24.5046 6.5 24.5015 6.5C24.4983 6.5 24.4951 6.5 24.492 6.5C24.4888 6.5 24.4857 6.5 24.4825 6.5C24.4794 6.5 24.4762 6.5 24.4731 6.5C24.4699 6.5 24.4667 6.5 24.4636 6.5C24.4604 6.5 24.4573 6.5 24.4541 6.5C24.451 6.5 24.4478 6.5 24.4447 6.5C24.4415 6.5 24.4383 6.5 24.4352 6.5C24.432 6.5 24.4289 6.5 24.4257 6.5C24.4226 6.5 24.4194 6.5 24.4162 6.5C24.4131 6.5 24.4099 6.5 24.4068 6.5C24.4036 6.5 24.4004 6.5 24.3973 6.5C24.3941 6.5 24.391 6.5 24.3878 6.5C24.3846 6.5 24.3815 6.5 24.3783 6.5C24.3752 6.5 24.372 6.5 24.3688 6.5C24.3657 6.5 24.3625 6.5 24.3594 6.5C24.3562 6.5 24.353 6.5 24.3499 6.5C24.3467 6.5 24.3436 6.5 24.3404 6.5C24.3372 6.5 24.3341 6.5 24.3309 6.5C24.3278 6.5 24.3246 6.5 24.3214 6.5C24.3183 6.5 24.3151 6.5 24.3119 6.5C24.3088 6.5 24.3056 6.5 24.3024 6.5C24.2993 6.5 24.2961 6.5 24.293 6.5C24.2898 6.5 24.2866 6.5 24.2835 6.5C24.2803 6.5 24.2771 6.5 24.274 6.5C24.2708 6.5 24.2676 6.5 24.2645 6.5C24.2613 6.5 24.2581 6.5 24.255 6.5C24.2518 6.5 24.2486 6.5 24.2455 6.5C24.2423 6.5 24.2391 6.5 24.236 6.5C24.2328 6.5 24.2296 6.5 24.2265 6.5C24.2233 6.5 24.2201 6.5 24.217 6.5C24.2138 6.5 24.2106 6.5 24.2074 6.5C24.2043 6.5 24.2011 6.5 24.1979 6.5C24.1948 6.5 24.1916 6.5 24.1884 6.5C24.1853 6.5 24.1821 6.5 24.1789 6.5C24.1757 6.5 24.1726 6.5 24.1694 6.5C24.1662 6.5 24.1631 6.5 24.1599 6.5C24.1567 6.5 24.1535 6.5 24.1504 6.5C24.1472 6.5 24.144 6.5 24.1408 6.5C24.1377 6.5 24.1345 6.5 24.1313 6.5C24.1281 6.5 24.125 6.5 24.1218 6.5C24.1186 6.5 24.1154 6.5 24.1123 6.5C24.1091 6.5 24.1059 6.5 24.1027 6.5C24.0996 6.5 24.0964 6.5 24.0932 6.5C24.09 6.5 24.0868 6.5 24.0837 6.5C24.0805 6.5 24.0773 6.5 24.0741 6.5C24.0709 6.5 24.0678 6.5 24.0646 6.5C24.0614 6.5 24.0582 6.5 24.055 6.5C24.0519 6.5 24.0487 6.5 24.0455 6.5C24.0423 6.5 24.0391 6.5 24.036 6.5C24.0328 6.5 24.0296 6.5 24.0264 6.5C24.0232 6.5 24.02 6.5 24.0169 6.5C24.0137 6.5 24.0105 6.5 24.0073 6.5C24.0041 6.5 24.0009 6.5 23.9977 6.5C23.9946 6.5 23.9914 6.5 23.9882 6.5C23.985 6.5 23.9818 6.5 23.9786 6.5C23.9754 6.5 23.9723 6.5 23.9691 6.5C23.9659 6.5 23.9627 6.5 23.9595 6.5C23.9563 6.5 23.9531 6.5 23.9499 6.5C23.9467 6.5 23.9435 6.5 23.9404 6.5C23.9372 6.5 23.934 6.5 23.9308 6.5C23.9276 6.5 23.9244 6.5 23.9212 6.5C23.918 6.5 23.9148 6.5 23.9116 6.5C23.9084 6.5 23.9052 6.5 23.902 6.5C23.8988 6.5 23.8957 6.5 23.8925 6.5C23.8893 6.5 23.8861 6.5 23.8829 6.5C23.8797 6.5 23.8765 6.5 23.8733 6.5C23.8701 6.5 23.8669 6.5 23.8637 6.5C23.8605 6.5 23.8573 6.5 23.8541 6.5C23.8509 6.5 23.8477 6.5 23.8445 6.5C23.8413 6.5 23.8381 6.5 23.8349 6.5C23.8317 6.5 23.8285 6.5 23.8253 6.5C23.8221 6.5 23.8189 6.5 23.8157 6.5C23.8125 6.5 23.8093 6.5 23.8061 6.5C23.8028 6.5 23.7996 6.5 23.7964 6.5C23.7932 6.5 23.79 6.5 23.7868 6.5C23.7836 6.5 23.7804 6.5 23.7772 6.5C23.774 6.5 23.7708 6.5 23.7676 6.5C23.7644 6.5 23.7612 6.5 23.7579 6.5C23.7547 6.5 23.7515 6.5 23.7483 6.5C23.7451 6.5 23.7419 6.5 23.7387 6.5C23.7355 6.5 23.7323 6.5 23.729 6.5C23.7258 6.5 23.7226 6.5 23.7194 6.5C23.7162 6.5 23.713 6.5 23.7098 6.5C23.7065 6.5 23.7033 6.5 23.7001 6.5C23.6969 6.5 23.6937 6.5 23.6905 6.5C23.6872 6.5 23.684 6.5 23.6808 6.5C23.6776 6.5 23.6744 6.5 23.6711 6.5C23.6679 6.5 23.6647 6.5 23.6615 6.5C23.6583 6.5 23.655 6.5 23.6518 6.5C23.6486 6.5 23.6454 6.5 23.6421 6.5C23.6389 6.5 23.6357 6.5 23.6325 6.5C23.6293 6.5 23.626 6.5 23.6228 6.5C23.6196 6.5 23.6163 6.5 23.6131 6.5C23.6099 6.5 23.6067 6.5 23.6034 6.5C23.6002 6.5 23.597 6.5 23.5937 6.5C23.5905 6.5 23.5873 6.5 23.5841 6.5C23.5808 6.5 23.5776 6.5 23.5744 6.5C23.5711 6.5 23.5679 6.5 23.5647 6.5C23.5614 6.5 23.5582 6.5 23.555 6.5C23.5517 6.5 23.5485 6.5 23.5453 6.5C23.542 6.5 23.5388 6.5 23.5355 6.5C23.5323 6.5 23.5291 6.5 23.5258 6.5C23.5226 6.5 23.5194 6.5 23.5161 6.5C23.5129 6.5 23.5096 6.5 23.5064 6.5C23.5032 6.5 23.4999 6.5 23.4967 6.5C23.4934 6.5 23.4902 6.5 23.4869 6.5C23.4837 6.5 23.4804 6.5 23.4772 6.5C23.474 6.5 23.4707 6.5 23.4675 6.5C23.4642 6.5 23.461 6.5 23.4577 6.5C23.4545 6.5 23.4512 6.5 23.448 6.5C23.4447 6.5 23.4415 6.5 23.4382 6.5C23.435 6.5 23.4317 6.5 23.4285 6.5C23.4252 6.5 23.422 6.5 23.4187 6.5C23.4155 6.5 23.4122 6.5 23.4089 6.5C23.4057 6.5 23.4024 6.5 23.3992 6.5C23.3959 6.5 23.3927 6.5 23.3894 6.5C23.3862 6.5 23.3829 6.5 23.3796 6.5C23.3764 6.5 23.3731 6.5 23.3699 6.5C23.3666 6.5 23.3633 6.5 23.3601 6.5C23.3568 6.5 23.3535 6.5 23.3503 6.5C23.347 6.5 23.3437 6.5 23.3405 6.5C23.3372 6.5 23.334 6.5 23.3307 6.5C23.3274 6.5 23.3241 6.5 23.3209 6.5C23.3176 6.5 23.3143 6.5 23.3111 6.5C23.3078 6.5 23.3045 6.5 23.3013 6.5C23.298 6.5 23.2947 6.5 23.2914 6.5C23.2882 6.5 23.2849 6.5 23.2816 6.5C23.2783 6.5 23.2751 6.5 23.2718 6.5C23.2685 6.5 23.2652 6.5 23.262 6.5C23.2587 6.5 23.2554 6.5 23.2521 6.5C23.2489 6.5 23.2456 6.5 23.2423 6.5C23.239 6.5 23.2357 6.5 23.2324 6.5C23.2292 6.5 23.2259 6.5 23.2226 6.5C23.2193 6.5 23.216 6.5 23.2127 6.5C23.2095 6.5 23.2062 6.5 23.2029 6.5C23.1996 6.5 23.1963 6.5 23.193 6.5C23.1897 6.5 23.1864 6.5 23.1831 6.5C23.1799 6.5 23.1766 6.5 23.1733 6.5C23.17 6.5 23.1667 6.5 23.1634 6.5C23.1601 6.5 23.1568 6.5 23.1535 6.5C23.1502 6.5 23.1469 6.5 23.1436 6.5C23.1403 6.5 23.137 6.5 23.1337 6.5C23.1304 6.5 23.1271 6.5 23.1238 6.5C23.1205 6.5 23.1172 6.5 23.1139 6.5C23.1106 6.5 23.1073 6.5 23.104 6.5C23.1007 6.5 23.0974 6.5 23.0941 6.5C23.0908 6.5 23.0875 6.5 23.0842 6.5C23.0809 6.5 23.0776 6.5 23.0742 6.5C23.0709 6.5 23.0676 6.5 23.0643 6.5C23.061 6.5 23.0577 6.5 23.0544 6.5C23.0511 6.5 23.0478 6.5 23.0444 6.5C23.0411 6.5 23.0378 6.5 23.0345 6.5C23.0312 6.5 23.0279 6.5 23.0245 6.5C23.0212 6.5 23.0179 6.5 23.0146 6.5C23.0113 6.5 23.0079 6.5 23.0046 6.5C23.0013 6.5 22.998 6.5 22.9946 6.5C22.9913 6.5 22.988 6.5 22.9847 6.5C22.9813 6.5 22.978 6.5 22.9747 6.5C22.9714 6.5 22.968 6.5 22.9647 6.5C22.9614 6.5 22.958 6.5 22.9547 6.5C22.9514 6.5 22.9481 6.5 22.9447 6.5C22.9414 6.5 22.9381 6.5 22.9347 6.5C22.9314 6.5 22.928 6.5 22.9247 6.5C22.9214 6.5 22.918 6.5 22.9147 6.5C22.9114 6.5 22.908 6.5 22.9047 6.5C22.9013 6.5 22.898 6.5 22.8947 6.5C22.8913 6.5 22.888 6.5 22.8846 6.5C22.8813 6.5 22.8779 6.5 22.8746 6.5C22.8712 6.5 22.8679 6.5 22.8645 6.5C22.8612 6.5 22.8578 6.5 22.8545 6.5C22.8511 6.5 22.8478 6.5 22.8444 6.5C22.8411 6.5 22.8377 6.5 22.8344 6.5C22.831 6.5 22.8277 6.5 22.8243 6.5C22.821 6.5 22.8176 6.5 22.8142 6.5C22.8109 6.5 22.8075 6.5 22.8042 6.5C22.8008 6.5 22.7974 6.5 22.7941 6.5C22.7907 6.5 22.7873 6.5 22.784 6.5C22.7806 6.5 22.7773 6.5 22.7739 6.5C22.7705 6.5 22.7672 6.5 22.7638 6.5C22.7604 6.5 22.757 6.5 22.7537 6.5C22.7503 6.5 22.7469 6.5 22.7436 6.5C22.7402 6.5 22.7368 6.5 22.7334 6.5C22.7301 6.5 22.7267 6.5 22.7233 6.5C22.7199 6.5 22.7166 6.5 22.7132 6.5C22.7098 6.5 22.7064 6.5 22.703 6.5C22.6997 6.5 22.6963 6.5 22.6929 6.5C22.6895 6.5 22.6861 6.5 22.6827 6.5C22.6794 6.5 22.676 6.5 22.6726 6.5C22.6692 6.5 22.6658 6.5 22.6624 6.5C22.659 6.5 22.6556 6.5 22.6522 6.5C22.6488 6.5 22.6455 6.5 22.6421 6.5C22.6387 6.5 22.6353 6.5 22.6319 6.5C22.6285 6.5 22.6251 6.5 22.6217 6.5C22.6183 6.5 22.6149 6.5 22.6115 6.5C22.6081 6.5 22.6047 6.5 22.6013 6.5C22.5979 6.5 22.5945 6.5 22.5911 6.5C22.5877 6.5 22.5843 6.5 22.5808 6.5C22.5774 6.5 22.574 6.5 22.5706 6.5C22.5672 6.5 22.5638 6.5 22.5604 6.5C22.557 6.5 22.5536 6.5 22.5501 6.5C22.5467 6.5 22.5433 6.5 22.5399 6.5C22.5365 6.5 22.5331 6.5 22.5296 6.5C22.5262 6.5 22.5228 6.5 22.5194 6.5C22.516 6.5 22.5125 6.5 22.5091 6.5C22.5057 6.5 22.5023 6.5 22.4988 6.5C22.4954 6.5 22.492 6.5 22.4886 6.5C22.4851 6.5 22.4817 6.5 22.4783 6.5C22.4749 6.5 22.4714 6.5 22.468 6.5C22.4646 6.5 22.4611 6.5 22.4577 6.5C22.4543 6.5 22.4508 6.5 22.4474 6.5C22.4439 6.5 22.4405 6.5 22.4371 6.5C22.4336 6.5 22.4302 6.5 22.4267 6.5C22.4233 6.5 22.4199 6.5 22.4164 6.5C22.413 6.5 22.4095 6.5 22.4061 6.5C22.4026 6.5 22.3992 6.5 22.3957 6.5C22.3923 6.5 22.3888 6.5 22.3854 6.5C22.3819 6.5 22.3785 6.5 22.375 6.5C22.3716 6.5 22.3681 6.5 22.3647 6.5C22.3612 6.5 22.3577 6.5 22.3543 6.5C22.3508 6.5 22.3474 6.5 22.3439 6.5C22.3404 6.5 22.337 6.5 22.3335 6.5C22.33 6.5 22.3266 6.5 22.3231 6.5C22.3197 6.5 22.3162 6.5 22.3127 6.5C22.3092 6.5 22.3058 6.5 22.3023 6.5C22.2988 6.5 22.2954 6.5 22.2919 6.5C22.2884 6.5 22.2849 6.5 22.2815 6.5C22.278 6.5 22.2745 6.5 22.271 6.5C22.2676 6.5 22.2641 6.5 22.2606 6.5C22.2571 6.5 22.2536 6.5 22.2501 6.5V7.5ZM27.25 7.5C27.2994 7.5 27.4035 7.50122 27.4999 7.48632C27.5588 7.47721 27.8366 7.43504 27.9745 7.16493C28.1194 6.8812 27.9773 6.61966 27.9231 6.5302C27.849 6.40774 27.7372 6.28012 27.6036 6.14645L26.8964 6.85355C27.0128 6.96988 27.0566 7.02976 27.0676 7.04792C27.0728 7.0566 27.0557 7.03189 27.045 6.98114C27.033 6.92428 27.0272 6.82121 27.084 6.71007C27.1395 6.60136 27.2233 6.54695 27.2711 6.52377C27.295 6.51216 27.3144 6.50598 27.3258 6.50284C27.3374 6.49962 27.3451 6.49838 27.3471 6.49806C27.3499 6.49763 27.3441 6.49864 27.3242 6.4993C27.3045 6.49995 27.2822 6.5 27.25 6.5V7.5ZM20.75 6C20.75 6.82852 21.4218 7.5 22.2501 7.5V6.5C21.9739 6.5 21.75 6.27605 21.75 6H20.75Z" fill="#264AE5"/>
<path d="M16.5594 14.3094H12.8656C12.4963 14.3094 12.25 14.5557 12.25 14.925C12.25 15.2944 12.4963 15.5407 12.8656 15.5407H16.5594V19.2345C16.5594 19.6038 16.8057 19.8501 17.175 19.8501C17.5444 19.8501 17.7907 19.6038 17.7907 19.2345V15.5407H21.4845C21.8538 15.5407 22.1001 15.2944 22.1001 14.925C22.1001 14.5557 21.8538 14.3094 21.4845 14.3094H17.7907V10.6156C17.7907 10.2463 17.5444 10 17.175 10C16.8057 10 16.5594 10.2463 16.5594 10.6156V14.3094Z" fill="#264AE5"/>
</svg>
