<svg width="21" height="17" viewBox="0 0 21 17" fill="none" xmlns="http://www.w3.org/2000/svg">
<path d="M1.5 16L0.5 15V2L1.5 0.5H6.5H18.5L20 2L20.5 14.5L19.5 16H18H1.5Z" fill="white"/>
<path d="M20.9158 2.22509C20.9158 1.63496 20.6814 1.069 20.2641 0.651713C19.8468 0.234428 19.2809 0 18.6907 0H2.22509C1.63496 0 1.069 0.234428 0.651713 0.651713C0.234428 1.069 0 1.63496 0 2.22509V11.8903V14.502C0 15.0921 0.234428 15.6581 0.651713 16.0754C1.069 16.4927 1.63496 16.7271 2.22509 16.7271H18.6907C19.2809 16.7271 19.8468 16.4927 20.2641 16.0754C20.6814 15.6581 20.9158 15.0921 20.9158 14.502V2.22509ZM2.22509 15.6145C1.93002 15.6145 1.64704 15.4973 1.4384 15.2887C1.22976 15.0801 1.11254 14.7971 1.11254 14.502V12.1768L5.70735 9.00882C5.91338 8.86658 6.16136 8.798 6.4112 8.81415C6.66103 8.8303 6.89812 8.93024 7.08412 9.09783L14.3157 15.6145H2.22509ZM19.8005 14.502C19.8005 14.7971 19.6833 15.0801 19.4746 15.2887C19.266 15.4973 18.983 15.6145 18.6879 15.6145H15.9789L13.1364 13.0529L19.8116 8.81413L19.8005 14.502ZM19.8005 7.49576L12.2908 12.2797L7.84065 8.26898C7.46865 7.93382 6.99448 7.73392 6.4948 7.70162C5.99513 7.66932 5.49916 7.8065 5.08711 8.09097L1.11254 10.825V2.22509C1.11254 1.93002 1.22976 1.64704 1.4384 1.4384C1.64704 1.22976 1.93002 1.11254 2.22509 1.11254H18.6907C18.9858 1.11254 19.2688 1.22976 19.4774 1.4384C19.6861 1.64704 19.8033 1.93002 19.8033 2.22509L19.8005 7.49576Z" fill="#CED0D3"/>
<path d="M12.2963 3.2959C11.8288 3.2959 11.3717 3.43455 10.9829 3.69433C10.5941 3.95411 10.2911 4.32334 10.1122 4.75533C9.93321 5.18732 9.8864 5.66268 9.97762 6.12128C10.0688 6.57988 10.294 7.00113 10.6246 7.33176C10.9553 7.6624 11.3765 7.88756 11.8351 7.97878C12.2937 8.07 12.7691 8.02319 13.2011 7.84425C13.6331 7.66531 14.0023 7.36229 14.2621 6.97351C14.5218 6.58472 14.6605 6.12764 14.6605 5.66005C14.6598 5.03327 14.4104 4.43236 13.9672 3.98916C13.524 3.54595 12.9231 3.29663 12.2963 3.2959ZM12.2963 6.91166C12.0488 6.91166 11.8068 6.83826 11.601 6.70073C11.3952 6.5632 11.2347 6.36773 11.14 6.13902C11.0453 5.91032 11.0205 5.65866 11.0688 5.41588C11.1171 5.17309 11.2363 4.95007 11.4113 4.77503C11.5864 4.59999 11.8094 4.48079 12.0522 4.43249C12.295 4.3842 12.5466 4.40898 12.7753 4.50372C13.004 4.59845 13.1995 4.75887 13.337 4.9647C13.4746 5.17052 13.548 5.41251 13.548 5.66005C13.5472 5.99152 13.415 6.30916 13.1804 6.54328C12.9457 6.7774 12.6278 6.90888 12.2963 6.90888V6.91166Z" fill="#CED0D3"/>
<path d="M12.2963 3.2959C11.8288 3.2959 11.3717 3.43455 10.9829 3.69433C10.5941 3.95411 10.2911 4.32334 10.1122 4.75533C9.93321 5.18732 9.8864 5.66268 9.97762 6.12128C10.0688 6.57988 10.294 7.00113 10.6246 7.33176C10.9553 7.6624 11.3765 7.88756 11.8351 7.97878C12.2937 8.07 12.7691 8.02319 13.2011 7.84425C13.6331 7.66531 14.0023 7.36229 14.2621 6.97351C14.5218 6.58472 14.6605 6.12764 14.6605 5.66005C14.6598 5.03327 14.4104 4.43236 13.9672 3.98916C13.524 3.54595 12.9231 3.29663 12.2963 3.2959ZM12.2963 6.91166C12.0488 6.91166 11.8068 6.83826 11.601 6.70073C11.3952 6.5632 11.2347 6.36773 11.14 6.13902C11.0453 5.91032 11.0205 5.65866 11.0688 5.41588C11.1171 5.17309 11.2363 4.95007 11.4113 4.77503C11.5864 4.59999 11.8094 4.48079 12.0522 4.43249C12.295 4.3842 12.5466 4.40898 12.7753 4.50372C13.004 4.59845 13.1995 4.75887 13.337 4.9647C13.4746 5.17052 13.548 5.41251 13.548 5.66005C13.5472 5.99152 13.415 6.30916 13.1804 6.54328C12.9457 6.7774 12.6278 6.90888 12.2963 6.90888V6.91166Z" fill="#CED0D3"/>
</svg>
