<svg width="142px" height="242px" x="0px" y="0px" viewBox="0 0 142 242" xmlns="http://www.w3.org/2000/svg" version="1.1" style="transform: translate(0,0)"><rect x="0" y="0" width="142" height="242" style="fill:#ffffff;"></rect><g transform="translate(10, 10)" style="fill:#000000;"><rect x="0" y="0" width="2" height="200"></rect><rect x="4" y="0" width="4" height="200"></rect><rect x="12" y="0" width="2" height="200"></rect><rect x="18" y="0" width="2" height="200"></rect><rect x="22" y="0" width="2" height="200"></rect><rect x="26" y="0" width="2" height="200"></rect><rect x="30" y="0" width="4" height="200"></rect><rect x="38" y="0" width="2" height="200"></rect><rect x="42" y="0" width="2" height="200"></rect><rect x="46" y="0" width="2" height="200"></rect><rect x="52" y="0" width="2" height="200"></rect><rect x="56" y="0" width="4" height="200"></rect><rect x="62" y="0" width="4" height="200"></rect><rect x="70" y="0" width="2" height="200"></rect><rect x="74" y="0" width="2" height="200"></rect><rect x="78" y="0" width="2" height="200"></rect><rect x="82" y="0" width="2" height="200"></rect><rect x="86" y="0" width="4" height="200"></rect><rect x="92" y="0" width="2" height="200"></rect><rect x="98" y="0" width="2" height="200"></rect><rect x="102" y="0" width="2" height="200"></rect><rect x="108" y="0" width="2" height="200"></rect><rect x="114" y="0" width="2" height="200"></rect><rect x="118" y="0" width="4" height="200"></rect><text style="font: 20px monospace" text-anchor="middle" x="61" y="222">1234</text></g></svg>