<svg width="312px" height="226px" x="0px" y="0px" viewBox="0 0 312 226" xmlns="http://www.w3.org/2000/svg" version="1.1" style="transform: translate(0,0)"><rect x="0" y="0" width="312" height="226" style="fill:#ffffff;"></rect><g transform="translate(2, 2)" style="fill:#000000;"><rect x="0" y="0" width="2" height="200"></rect><rect x="4" y="0" width="2" height="200"></rect><rect x="8" y="0" width="8" height="200"></rect><rect x="18" y="0" width="4" height="200"></rect><rect x="24" y="0" width="2" height="200"></rect><rect x="32" y="0" width="2" height="200"></rect><rect x="36" y="0" width="2" height="200"></rect><rect x="42" y="0" width="2" height="200"></rect><rect x="46" y="0" width="4" height="200"></rect><rect x="54" y="0" width="4" height="200"></rect><rect x="62" y="0" width="2" height="200"></rect><rect x="66" y="0" width="2" height="200"></rect><rect x="72" y="0" width="4" height="200"></rect><rect x="80" y="0" width="2" height="200"></rect><rect x="86" y="0" width="2" height="200"></rect><rect x="90" y="0" width="2" height="200"></rect><rect x="100" y="0" width="2" height="200"></rect><rect x="104" y="0" width="2" height="200"></rect><rect x="108" y="0" width="2" height="200"></rect><rect x="112" y="0" width="2" height="200"></rect><rect x="122" y="0" width="2" height="200"></rect><rect x="126" y="0" width="4" height="200"></rect><rect x="134" y="0" width="2" height="200"></rect><rect x="140" y="0" width="2" height="200"></rect><rect x="144" y="0" width="2" height="200"></rect><rect x="148" y="0" width="4" height="200"></rect><rect x="156" y="0" width="4" height="200"></rect><rect x="162" y="0" width="4" height="200"></rect><rect x="168" y="0" width="2" height="200"></rect><rect x="172" y="0" width="2" height="200"></rect><rect x="180" y="0" width="2" height="200"></rect><rect x="184" y="0" width="2" height="200"></rect><rect x="190" y="0" width="4" height="200"></rect><rect x="198" y="0" width="2" height="200"></rect><rect x="206" y="0" width="2" height="200"></rect><rect x="210" y="0" width="4" height="200"></rect><rect x="216" y="0" width="2" height="200"></rect><rect x="220" y="0" width="2" height="200"></rect><rect x="224" y="0" width="4" height="200"></rect><rect x="234" y="0" width="4" height="200"></rect><rect x="242" y="0" width="2" height="200"></rect><rect x="248" y="0" width="2" height="200"></rect><rect x="252" y="0" width="2" height="200"></rect><rect x="258" y="0" width="4" height="200"></rect><rect x="264" y="0" width="4" height="200"></rect><rect x="270" y="0" width="2" height="200"></rect><rect x="278" y="0" width="2" height="200"></rect><rect x="282" y="0" width="2" height="200"></rect><rect x="288" y="0" width="2" height="200"></rect><rect x="292" y="0" width="2" height="200"></rect><rect x="296" y="0" width="8" height="200"></rect><rect x="306" y="0" width="2" height="200"></rect><text style="font: 20px monospace" text-anchor="middle" x="154" y="222">CODE93EXAMPLE</text></g></svg>