<svg width="420px" height="226px" x="0px" y="0px" viewBox="0 0 420 226" xmlns="http://www.w3.org/2000/svg" version="1.1" style="transform: translate(0,0)"><rect x="0" y="0" width="420" height="226" style="fill:#ffffff;"></rect><g transform="translate(2, 2)" style="fill:#000000;"><rect x="0" y="0" width="2" height="200"></rect><rect x="8" y="0" width="2" height="200"></rect><rect x="12" y="0" width="6" height="200"></rect><rect x="20" y="0" width="6" height="200"></rect><rect x="28" y="0" width="2" height="200"></rect><rect x="32" y="0" width="6" height="200"></rect><rect x="40" y="0" width="2" height="200"></rect><rect x="44" y="0" width="2" height="200"></rect><rect x="52" y="0" width="6" height="200"></rect><rect x="60" y="0" width="2" height="200"></rect><rect x="64" y="0" width="6" height="200"></rect><rect x="72" y="0" width="2" height="200"></rect><rect x="76" y="0" width="6" height="200"></rect><rect x="88" y="0" width="2" height="200"></rect><rect x="92" y="0" width="2" height="200"></rect><rect x="96" y="0" width="2" height="200"></rect><rect x="100" y="0" width="6" height="200"></rect><rect x="108" y="0" width="2" height="200"></rect><rect x="112" y="0" width="2" height="200"></rect><rect x="120" y="0" width="6" height="200"></rect><rect x="128" y="0" width="2" height="200"></rect><rect x="132" y="0" width="6" height="200"></rect><rect x="140" y="0" width="2" height="200"></rect><rect x="144" y="0" width="2" height="200"></rect><rect x="152" y="0" width="6" height="200"></rect><rect x="160" y="0" width="6" height="200"></rect><rect x="168" y="0" width="2" height="200"></rect><rect x="172" y="0" width="6" height="200"></rect><rect x="180" y="0" width="2" height="200"></rect><rect x="188" y="0" width="2" height="200"></rect><rect x="192" y="0" width="2" height="200"></rect><rect x="200" y="0" width="2" height="200"></rect><rect x="204" y="0" width="2" height="200"></rect><rect x="208" y="0" width="6" height="200"></rect><rect x="216" y="0" width="6" height="200"></rect><rect x="224" y="0" width="6" height="200"></rect><rect x="236" y="0" width="6" height="200"></rect><rect x="244" y="0" width="2" height="200"></rect><rect x="248" y="0" width="2" height="200"></rect><rect x="252" y="0" width="2" height="200"></rect><rect x="256" y="0" width="6" height="200"></rect><rect x="264" y="0" width="2" height="200"></rect><rect x="268" y="0" width="6" height="200"></rect><rect x="276" y="0" width="2" height="200"></rect><rect x="284" y="0" width="2" height="200"></rect><rect x="288" y="0" width="6" height="200"></rect><rect x="296" y="0" width="2" height="200"></rect><rect x="300" y="0" width="2" height="200"></rect><rect x="304" y="0" width="6" height="200"></rect><rect x="316" y="0" width="2" height="200"></rect><rect x="320" y="0" width="2" height="200"></rect><rect x="324" y="0" width="6" height="200"></rect><rect x="332" y="0" width="2" height="200"></rect><rect x="336" y="0" width="2" height="200"></rect><rect x="344" y="0" width="6" height="200"></rect><rect x="352" y="0" width="2" height="200"></rect><rect x="356" y="0" width="2" height="200"></rect><rect x="360" y="0" width="6" height="200"></rect><rect x="372" y="0" width="2" height="200"></rect><rect x="376" y="0" width="6" height="200"></rect><rect x="384" y="0" width="2" height="200"></rect><rect x="392" y="0" width="2" height="200"></rect><rect x="396" y="0" width="6" height="200"></rect><rect x="404" y="0" width="6" height="200"></rect><rect x="412" y="0" width="2" height="200"></rect><text style="font: 20px monospace" text-anchor="middle" x="208" y="222">HELLO-WORLD</text></g></svg>