<svg width="296px" height="242px" x="0px" y="0px" viewBox="0 0 296 242" xmlns="http://www.w3.org/2000/svg" version="1.1" style="transform: translate(0,0)"><rect x="0" y="0" width="296" height="242" style="fill:#ffffff;"></rect><g transform="translate(10, 10)" style="fill:#000000;"><text style="font: 20px monospace" text-anchor="start" x="0" y="222">5</text></g><g transform="translate(34, 10)" style="fill:#000000;"><rect x="0" y="0" width="2" height="212"></rect><rect x="4" y="0" width="2" height="212"></rect><text style="font: 20px monospace" text-anchor="middle" x="3" y="234"></text></g><g transform="translate(40, 10)" style="fill:#000000;"><rect x="6" y="0" width="2" height="200"></rect><rect x="10" y="0" width="4" height="200"></rect><rect x="16" y="0" width="2" height="200"></rect><rect x="22" y="0" width="6" height="200"></rect><rect x="30" y="0" width="4" height="200"></rect><rect x="38" y="0" width="4" height="200"></rect><rect x="46" y="0" width="2" height="200"></rect><rect x="52" y="0" width="4" height="200"></rect><rect x="58" y="0" width="8" height="200"></rect><rect x="68" y="0" width="2" height="200"></rect><rect x="74" y="0" width="6" height="200"></rect><rect x="82" y="0" width="2" height="200"></rect><text style="font: 20px monospace" text-anchor="middle" x="42" y="222">901234</text></g><g transform="translate(124, 10)" style="fill:#000000;"><rect x="2" y="0" width="2" height="212"></rect><rect x="6" y="0" width="2" height="212"></rect><text style="font: 20px monospace" text-anchor="middle" x="5" y="234"></text></g><g transform="translate(134, 10)" style="fill:#000000;"><rect x="0" y="0" width="4" height="200"></rect><rect x="8" y="0" width="4" height="200"></rect><rect x="14" y="0" width="4" height="200"></rect><rect x="20" y="0" width="4" height="200"></rect><rect x="28" y="0" width="2" height="200"></rect><rect x="38" y="0" width="2" height="200"></rect><rect x="42" y="0" width="2" height="200"></rect><rect x="46" y="0" width="6" height="200"></rect><rect x="56" y="0" width="2" height="200"></rect><rect x="62" y="0" width="6" height="200"></rect><rect x="70" y="0" width="2" height="200"></rect><rect x="78" y="0" width="2" height="200"></rect><text style="font: 20px monospace" text-anchor="middle" x="42" y="222">123457</text></g><g transform="translate(218, 10)" style="fill:#000000;"><rect x="0" y="0" width="2" height="212"></rect><rect x="4" y="0" width="2" height="212"></rect><text style="font: 20px monospace" text-anchor="middle" x="3" y="234"></text></g><g transform="translate(224, 10)" style="fill:#000000;"><text style="font: 20px monospace" text-anchor="middle" x="20" y="122"></text></g><g transform="translate(264, 10)" style="fill:#000000;"><rect x="0" y="0" width="1" height="100"></rect><rect x="2" y="0" width="2" height="100"></rect><rect x="6" y="0" width="3" height="100"></rect><rect x="10" y="0" width="1" height="100"></rect><rect x="12" y="0" width="1" height="100"></rect><rect x="15" y="0" width="1" height="100"></rect><rect x="18" y="0" width="2" height="100"></rect><text style="font: 20px monospace" text-anchor="middle" x="11" y="122">42</text></g></svg>