<svg width="218px" height="226px" x="0px" y="0px" viewBox="0 0 218 226" xmlns="http://www.w3.org/2000/svg" version="1.1" style="transform: translate(0,0)"><rect x="0" y="0" width="218" height="226" style="fill:#ffffff;"></rect><g transform="translate(2, 2)" style="fill:#000000;"><text style="font: 20px monospace" text-anchor="start" x="0" y="222">5</text></g><g transform="translate(26, 2)" style="fill:#000000;"><rect x="0" y="0" width="2" height="212"></rect><rect x="4" y="0" width="2" height="212"></rect><text style="font: 20px monospace" text-anchor="middle" x="3" y="234"></text></g><g transform="translate(32, 2)" style="fill:#000000;"><rect x="6" y="0" width="2" height="200"></rect><rect x="10" y="0" width="4" height="200"></rect><rect x="16" y="0" width="2" height="200"></rect><rect x="22" y="0" width="6" height="200"></rect><rect x="30" y="0" width="4" height="200"></rect><rect x="38" y="0" width="4" height="200"></rect><rect x="46" y="0" width="2" height="200"></rect><rect x="52" y="0" width="4" height="200"></rect><rect x="58" y="0" width="8" height="200"></rect><rect x="68" y="0" width="2" height="200"></rect><rect x="74" y="0" width="6" height="200"></rect><rect x="82" y="0" width="2" height="200"></rect><text style="font: 20px monospace" text-anchor="middle" x="42" y="222">901234</text></g><g transform="translate(116, 2)" style="fill:#000000;"><rect x="2" y="0" width="2" height="212"></rect><rect x="6" y="0" width="2" height="212"></rect><text style="font: 20px monospace" text-anchor="middle" x="5" y="234"></text></g><g transform="translate(126, 2)" style="fill:#000000;"><rect x="0" y="0" width="4" height="200"></rect><rect x="8" y="0" width="4" height="200"></rect><rect x="14" y="0" width="4" height="200"></rect><rect x="20" y="0" width="4" height="200"></rect><rect x="28" y="0" width="2" height="200"></rect><rect x="38" y="0" width="2" height="200"></rect><rect x="42" y="0" width="2" height="200"></rect><rect x="46" y="0" width="6" height="200"></rect><rect x="56" y="0" width="2" height="200"></rect><rect x="62" y="0" width="6" height="200"></rect><rect x="70" y="0" width="2" height="200"></rect><rect x="78" y="0" width="2" height="200"></rect><text style="font: 20px monospace" text-anchor="middle" x="42" y="222">123457</text></g><g transform="translate(210, 2)" style="fill:#000000;"><rect x="0" y="0" width="2" height="212"></rect><rect x="4" y="0" width="2" height="212"></rect><text style="font: 20px monospace" text-anchor="middle" x="3" y="234"></text></g></svg>