<svg width="194px" height="226px" x="0px" y="0px" viewBox="0 0 194 226" xmlns="http://www.w3.org/2000/svg" version="1.1" style="transform: translate(0,0)"><rect x="0" y="0" width="194" height="226" style="fill:#ffffff;"></rect><g transform="translate(2, 2)" style="fill:#000000;"><rect x="0" y="0" width="2" height="200"></rect><rect x="4" y="0" width="2" height="200"></rect><rect x="12" y="0" width="2" height="200"></rect><rect x="16" y="0" width="4" height="200"></rect><rect x="22" y="0" width="2" height="200"></rect><rect x="28" y="0" width="6" height="200"></rect><rect x="36" y="0" width="4" height="200"></rect><rect x="44" y="0" width="4" height="200"></rect><rect x="52" y="0" width="2" height="200"></rect><rect x="58" y="0" width="4" height="200"></rect><rect x="64" y="0" width="8" height="200"></rect><rect x="74" y="0" width="2" height="200"></rect><rect x="80" y="0" width="6" height="200"></rect><rect x="88" y="0" width="2" height="200"></rect><rect x="92" y="0" width="2" height="200"></rect><rect x="96" y="0" width="2" height="200"></rect><rect x="100" y="0" width="4" height="200"></rect><rect x="108" y="0" width="4" height="200"></rect><rect x="114" y="0" width="4" height="200"></rect><rect x="120" y="0" width="4" height="200"></rect><rect x="128" y="0" width="2" height="200"></rect><rect x="138" y="0" width="2" height="200"></rect><rect x="142" y="0" width="2" height="200"></rect><rect x="146" y="0" width="6" height="200"></rect><rect x="156" y="0" width="2" height="200"></rect><rect x="162" y="0" width="6" height="200"></rect><rect x="170" y="0" width="2" height="200"></rect><rect x="178" y="0" width="2" height="200"></rect><rect x="184" y="0" width="2" height="200"></rect><rect x="188" y="0" width="2" height="200"></rect><text style="font: 20px monospace" text-anchor="middle" x="95" y="222">5901234123457</text></g></svg>