<svg width="154px" height="242px" x="0px" y="0px" viewBox="0 0 154 242" xmlns="http://www.w3.org/2000/svg" version="1.1" style="transform: translate(0,0)"><rect x="0" y="0" width="154" height="242" style="fill:#ffffff;"></rect><g transform="translate(10, 10)" style="fill:#000000;"><rect x="0" y="0" width="2" height="200"></rect><rect x="4" y="0" width="2" height="200"></rect><rect x="12" y="0" width="2" height="200"></rect><rect x="16" y="0" width="4" height="200"></rect><rect x="22" y="0" width="2" height="200"></rect><rect x="26" y="0" width="8" height="200"></rect><rect x="36" y="0" width="8" height="200"></rect><rect x="46" y="0" width="2" height="200"></rect><rect x="50" y="0" width="4" height="200"></rect><rect x="56" y="0" width="6" height="200"></rect><rect x="64" y="0" width="2" height="200"></rect><rect x="68" y="0" width="2" height="200"></rect><rect x="72" y="0" width="2" height="200"></rect><rect x="78" y="0" width="6" height="200"></rect><rect x="86" y="0" width="6" height="200"></rect><rect x="96" y="0" width="2" height="200"></rect><rect x="100" y="0" width="2" height="200"></rect><rect x="108" y="0" width="2" height="200"></rect><rect x="114" y="0" width="2" height="200"></rect><rect x="118" y="0" width="6" height="200"></rect><rect x="128" y="0" width="2" height="200"></rect><rect x="132" y="0" width="2" height="200"></rect><text style="font: 20px monospace" text-anchor="middle" x="67" y="222">96385074</text></g></svg>