<svg width="216px" height="242px" x="0px" y="0px" viewBox="0 0 216 242" xmlns="http://www.w3.org/2000/svg" version="1.1" style="transform: translate(0,0)"><rect x="0" y="0" width="216" height="242" style="fill:#ffffff;"></rect><g transform="translate(10, 10)" style="fill:#000000;"><rect x="0" y="0" width="2" height="212"></rect><rect x="4" y="0" width="2" height="212"></rect><text style="font: 20px monospace" text-anchor="middle" x="3" y="234"></text></g><g transform="translate(16, 10)" style="fill:#000000;"><rect x="6" y="0" width="2" height="200"></rect><rect x="10" y="0" width="4" height="200"></rect><rect x="16" y="0" width="2" height="200"></rect><rect x="20" y="0" width="8" height="200"></rect><rect x="30" y="0" width="8" height="200"></rect><rect x="40" y="0" width="2" height="200"></rect><rect x="44" y="0" width="4" height="200"></rect><rect x="50" y="0" width="6" height="200"></rect><text style="font: 20px monospace" text-anchor="middle" x="28" y="222">9638</text></g><g transform="translate(72, 10)" style="fill:#000000;"><rect x="2" y="0" width="2" height="212"></rect><rect x="6" y="0" width="2" height="212"></rect><text style="font: 20px monospace" text-anchor="middle" x="5" y="234"></text></g><g transform="translate(82, 10)" style="fill:#000000;"><rect x="0" y="0" width="2" height="200"></rect><rect x="6" y="0" width="6" height="200"></rect><rect x="14" y="0" width="6" height="200"></rect><rect x="24" y="0" width="2" height="200"></rect><rect x="28" y="0" width="2" height="200"></rect><rect x="36" y="0" width="2" height="200"></rect><rect x="42" y="0" width="2" height="200"></rect><rect x="46" y="0" width="6" height="200"></rect><text style="font: 20px monospace" text-anchor="middle" x="28" y="222">5074</text></g><g transform="translate(138, 10)" style="fill:#000000;"><rect x="0" y="0" width="2" height="212"></rect><rect x="4" y="0" width="2" height="212"></rect><text style="font: 20px monospace" text-anchor="middle" x="3" y="234"></text></g><g transform="translate(144, 10)" style="fill:#000000;"><text style="font: 20px monospace" text-anchor="middle" x="20" y="122"></text></g><g transform="translate(184, 10)" style="fill:#000000;"><rect x="0" y="0" width="1" height="100"></rect><rect x="2" y="0" width="2" height="100"></rect><rect x="6" y="0" width="3" height="100"></rect><rect x="10" y="0" width="1" height="100"></rect><rect x="12" y="0" width="1" height="100"></rect><rect x="15" y="0" width="1" height="100"></rect><rect x="18" y="0" width="2" height="100"></rect><text style="font: 20px monospace" text-anchor="middle" x="11" y="122">42</text></g></svg>