<svg width="274px" height="226px" x="0px" y="0px" viewBox="0 0 274 226" xmlns="http://www.w3.org/2000/svg" version="1.1" style="transform: translate(0,0)"><rect x="0" y="0" width="274" height="226" style="fill:#ffffff;"></rect><g transform="translate(2, 2)" style="fill:#000000;"><rect x="0" y="0" width="2" height="200"></rect><rect x="4" y="0" width="2" height="200"></rect><rect x="8" y="0" width="2" height="200"></rect><rect x="12" y="0" width="2" height="200"></rect><rect x="16" y="0" width="6" height="200"></rect><rect x="28" y="0" width="6" height="200"></rect><rect x="36" y="0" width="2" height="200"></rect><rect x="44" y="0" width="2" height="200"></rect><rect x="48" y="0" width="2" height="200"></rect><rect x="52" y="0" width="6" height="200"></rect><rect x="64" y="0" width="6" height="200"></rect><rect x="76" y="0" width="2" height="200"></rect><rect x="80" y="0" width="2" height="200"></rect><rect x="88" y="0" width="6" height="200"></rect><rect x="100" y="0" width="6" height="200"></rect><rect x="108" y="0" width="2" height="200"></rect><rect x="112" y="0" width="2" height="200"></rect><rect x="116" y="0" width="6" height="200"></rect><rect x="128" y="0" width="2" height="200"></rect><rect x="132" y="0" width="2" height="200"></rect><rect x="136" y="0" width="6" height="200"></rect><rect x="144" y="0" width="2" height="200"></rect><rect x="152" y="0" width="6" height="200"></rect><rect x="164" y="0" width="6" height="200"></rect><rect x="176" y="0" width="2" height="200"></rect><rect x="180" y="0" width="2" height="200"></rect><rect x="184" y="0" width="2" height="200"></rect><rect x="188" y="0" width="6" height="200"></rect><rect x="196" y="0" width="6" height="200"></rect><rect x="208" y="0" width="2" height="200"></rect><rect x="212" y="0" width="2" height="200"></rect><rect x="220" y="0" width="2" height="200"></rect><rect x="224" y="0" width="6" height="200"></rect><rect x="236" y="0" width="6" height="200"></rect><rect x="244" y="0" width="2" height="200"></rect><rect x="248" y="0" width="2" height="200"></rect><rect x="252" y="0" width="2" height="200"></rect><rect x="260" y="0" width="6" height="200"></rect><rect x="268" y="0" width="2" height="200"></rect><text style="font: 20px monospace" text-anchor="middle" x="135" y="222">04006381333931</text></g></svg>