<svg width="337px" height="242px" x="0px" y="0px" viewBox="0 0 337 242" xmlns="http://www.w3.org/2000/svg" version="1.1" style="transform: translate(0,0)"><rect x="0" y="0" width="337" height="242" style="fill:#ffffff;"></rect><g transform="translate(10, 10)" style="fill:#000000;"><text style="font: 20px monospace" text-anchor="start" x="0" y="222">1</text></g><g transform="translate(26, 10)" style="fill:#000000;"><rect x="0" y="0" width="2" height="212"></rect><rect x="4" y="0" width="2" height="212"></rect><rect x="10" y="0" width="4" height="212"></rect><rect x="18" y="0" width="2" height="212"></rect><text style="font: 20px monospace" text-anchor="middle" x="10" y="234"></text></g><g transform="translate(46, 10)" style="fill:#000000;"><rect x="4" y="0" width="2" height="200"></rect><rect x="10" y="0" width="4" height="200"></rect><rect x="16" y="0" width="8" height="200"></rect><rect x="26" y="0" width="2" height="200"></rect><rect x="30" y="0" width="2" height="200"></rect><rect x="38" y="0" width="4" height="200"></rect><rect x="44" y="0" width="4" height="200"></rect><rect x="54" y="0" width="2" height="200"></rect><rect x="58" y="0" width="2" height="200"></rect><rect x="62" y="0" width="8" height="200"></rect><text style="font: 20px monospace" text-anchor="middle" x="35" y="222">23456</text></g><g transform="translate(116, 10)" style="fill:#000000;"><rect x="2" y="0" width="2" height="212"></rect><rect x="6" y="0" width="2" height="212"></rect><text style="font: 20px monospace" text-anchor="middle" x="5" y="234"></text></g><g transform="translate(126, 10)" style="fill:#000000;"><rect x="0" y="0" width="2" height="200"></rect><rect x="8" y="0" width="2" height="200"></rect><rect x="14" y="0" width="2" height="200"></rect><rect x="20" y="0" width="2" height="200"></rect><rect x="28" y="0" width="6" height="200"></rect><rect x="36" y="0" width="2" height="200"></rect><rect x="42" y="0" width="6" height="200"></rect><rect x="52" y="0" width="2" height="200"></rect><rect x="56" y="0" width="4" height="200"></rect><rect x="64" y="0" width="4" height="200"></rect><text style="font: 20px monospace" text-anchor="middle" x="35" y="222">78901</text></g><g transform="translate(196, 10)" style="fill:#000000;"><rect x="0" y="0" width="4" height="212"></rect><rect x="6" y="0" width="4" height="212"></rect><rect x="14" y="0" width="2" height="212"></rect><rect x="18" y="0" width="2" height="212"></rect><text style="font: 20px monospace" text-anchor="middle" x="10" y="234"></text></g><g transform="translate(216, 10)" style="fill:#000000;"><text style="font: 20px monospace" text-anchor="end" x="15" y="222">2</text></g><g transform="translate(232, 10)" style="fill:#000000;"><text style="font: 20px monospace" text-anchor="middle" x="20" y="122"></text></g><g transform="translate(272, 10)" style="fill:#000000;"><rect x="3" y="0" width="1" height="100"></rect><rect x="5" y="0" width="2" height="100"></rect><rect x="8" y="0" width="2" height="100"></rect><rect x="13" y="0" width="1" height="100"></rect><rect x="15" y="0" width="1" height="100"></rect><rect x="18" y="0" width="2" height="100"></rect><rect x="22" y="0" width="1" height="100"></rect><rect x="24" y="0" width="1" height="100"></rect><rect x="27" y="0" width="2" height="100"></rect><rect x="30" y="0" width="2" height="100"></rect><rect x="33" y="0" width="1" height="100"></rect><rect x="35" y="0" width="4" height="100"></rect><rect x="40" y="0" width="1" height="100"></rect><rect x="42" y="0" width="1" height="100"></rect><rect x="45" y="0" width="3" height="100"></rect><rect x="49" y="0" width="1" height="100"></rect><text style="font: 20px monospace" text-anchor="start" x="0" y="122">51234</text></g></svg>