<svg width="16" height="16" viewBox="0 0 16 16" fill="none" xmlns="http://www.w3.org/2000/svg">
<rect x="6.52563" y="5.20264" width="2.94873" height="7.75342" fill="white"/>
<path d="M14.855 12.485L11.885 7.55497L8.81998 2.46997C8.44498 1.84497 7.55498 1.84497 7.17998 2.46997L4.11498 7.55497L1.14498 12.485C0.749981 13.145 1.20998 14 1.96998 14H14.03C14.79 14 15.25 13.145 14.855 12.485ZM7.99998 12.5C7.44998 12.5 6.99998 12.05 6.99998 11.5C6.99998 11 7.36998 10.59 7.84998 10.515C7.89998 10.505 7.94998 10.5 7.99998 10.5C8.04998 10.5 8.10498 10.505 8.14998 10.515C8.62998 10.59 8.99998 11 8.99998 11.5C8.99998 12.05 8.54998 12.5 7.99998 12.5ZM8.99998 9.49997H6.99998V5.49997H8.99998V9.49997Z" fill="#ECA51C"/>
</svg>
