<svg width="24" height="24" viewBox="0 0 24 24" fill="none" xmlns="http://www.w3.org/2000/svg">
    <path d="M12 10.9425L15.9675 6.96753L17.0325 8.03253L13.0575 12L17.0325 15.9675L15.9675 17.0325L12 13.0575L8.03253 17.0325L6.96753 15.9675L10.9425 12L6.96753 8.03253L8.03253 6.96753L12 10.9425Z" fill="#264AE5"/>
    <path fill-rule="evenodd" clip-rule="evenodd" d="M1.5 12C1.5 6.21 6.21 1.5 12 1.5C17.79 1.5 22.5 6.21 22.5 12C22.5 17.79 17.79 22.5 12 22.5C6.21 22.5 1.5 17.79 1.5 12ZM3 12C3 16.965 7.035 21 12 21C16.965 21 21 16.965 21 12C21 7.035 16.965 3 12 3C7.035 3 3 7.035 3 12Z" fill="#264AE5"/>
</svg>
