<svg width="24" height="24" viewBox="0 0 24 24" fill="none" xmlns="http://www.w3.org/2000/svg">
<path fill-rule="evenodd" clip-rule="evenodd" d="M8.25 12C8.25 9.93 9.93 8.25 12 8.25C14.07 8.25 15.75 9.93 15.75 12C15.75 14.07 14.07 15.75 12 15.75C9.93 15.75 8.25 14.07 8.25 12ZM9.75 12C9.75 13.2375 10.7625 14.25 12 14.25C13.2375 14.25 14.25 13.2375 14.25 12C14.25 10.7625 13.2375 9.75 12 9.75C10.7625 9.75 9.75 10.7625 9.75 12Z" fill="#264AE5"/>
<path fill-rule="evenodd" clip-rule="evenodd" d="M0.884839 11.5725C1.08734 11.28 5.87984 4.5 11.9998 4.5C18.1198 4.5 22.9123 11.28 23.1148 11.5725L23.4148 12L23.1148 12.4275C22.9123 12.72 18.1198 19.5 11.9998 19.5C5.87984 19.5 1.08734 12.72 0.884839 12.4275L0.584839 12L0.884839 11.5725ZM2.43734 12C3.56234 13.44 7.48484 18 11.9998 18C16.5148 18 20.4373 13.44 21.5623 12C20.4373 10.56 16.5148 6 11.9998 6C7.48484 6 3.56234 10.56 2.43734 12Z" fill="#264AE5"/>
</svg>
