<svg width="24" height="24" viewBox="0 0 24 24" fill="none" xmlns="http://www.w3.org/2000/svg">
<path d="M11.6175 14.8425L7.62754 10.635H7.62004C7.29004 10.29 7.53004 9.69 7.99504 9.69L10.4925 9.75V1.875C10.4925 1.665 10.6575 1.5 10.8675 1.5H13.1175C13.3275 1.5 13.4925 1.665 13.4925 1.875V9.75L15.975 9.69C16.4475 9.69 16.68 10.2825 16.35 10.635L12.36 14.8425C12.1575 15.06 11.82 15.06 11.6175 14.8425Z" fill="#264AE5"/>
<path d="M16.5 5.25H19.5C20.7375 5.25 21.75 6.2625 21.75 7.5V18C21.75 19.2375 20.7375 20.25 19.5 20.25H4.5C3.2625 20.25 2.25 19.2375 2.25 18V7.5C2.25 6.2625 3.2625 5.25 4.5 5.25H7.5V8.25H5.25V17.25H18.75V8.25H16.5V5.25Z" fill="#264AE5"/>
</svg>