<svg width="64" height="63" viewBox="0 0 64 63" fill="none" xmlns="http://www.w3.org/2000/svg">
<path d="M61.998 7.435C63.106 7.435 64 6.531 64 5.433V2.323C64 1.225 63.106 0.321 61.998 0.321H58.898C57.79 0.321 56.896 1.225 56.896 2.323V2.585H35.556V2.002C35.556 0.904 34.652 0 33.554 0H30.444C29.346 0 28.442 0.904 28.442 2.002V2.585H7.317V2.323C7.317 1.225 6.413 0.321 5.315 0.321H2.205C1.107 0.321 0.203 1.225 0.203 2.323V5.433C0.203 6.531 1.107 7.435 2.205 7.435H2.574V27.55H2.002C0.894 27.55 0 28.454 0 29.552V32.662C0 33.76 0.894 34.664 2.002 34.664H2.575V54.779H2.196C1.098 54.779 0.194 55.683 0.194 56.781V59.891C0.194 60.989 1.098 61.883 2.196 61.883H5.296C6.404 61.883 7.298 60.989 7.298 59.891V59.619H28.444V60.192C28.444 61.3 29.348 62.194 30.446 62.194H33.556C34.654 62.194 35.558 61.3 35.558 60.192V59.619H56.898V59.891C56.898 60.989 57.792 61.883 58.9 61.883H62C63.108 61.883 64.002 60.989 64.002 59.891V56.781C64.002 55.683 63.108 54.779 62 54.779H61.427V34.663H62C63.108 34.663 64.002 33.759 64.002 32.661V29.551C64.002 28.453 63.108 27.549 62 27.549H61.427V7.435H61.998ZM59.481 27.55H58.898C57.79 27.55 56.896 28.454 56.896 29.552V32.662C56.896 33.76 57.79 34.664 58.898 34.664H59.481V54.779H58.898C57.79 54.779 56.896 55.683 56.896 56.781V57.675H35.556V57.092C35.556 55.994 34.652 55.09 33.554 55.09H30.444C29.346 55.09 28.442 55.994 28.442 57.092V57.675H7.298V56.781C7.298 55.683 6.404 54.779 5.296 54.779H4.519V34.663H5.102C6.21 34.663 7.104 33.759 7.104 32.661V29.551C7.104 28.453 6.21 27.549 5.102 27.549H4.519V7.435H5.316C6.414 7.435 7.318 6.531 7.318 5.433V4.529H28.444V5.112C28.444 6.21 29.348 7.114 30.446 7.114H33.556C34.654 7.114 35.558 6.21 35.558 5.112V4.529H56.898V5.433C56.898 6.531 57.792 7.435 58.9 7.435H59.483L59.481 27.55Z" fill="#8B8D92"/>
<path d="M44.7648 15.0044H19.4479C17.1031 15.0044 15.2056 16.8942 15.2056 19.239V42.6446C15.2056 44.9825 17.1023 46.8792 19.4479 46.8792H44.7655C47.1034 46.8792 49.0001 44.9825 49.0001 42.6446V19.239C48.9994 16.8942 47.1026 15.0044 44.7648 15.0044ZM45.8999 38.1341C45.8999 38.3208 45.8845 38.4853 45.8553 38.6498L41.8674 32.5707C41.2103 31.5777 39.7463 31.5777 39.0892 32.5707L34.7201 39.2477L27.3038 27.9411C26.6467 26.9404 25.1826 26.9404 24.5255 27.9411L18.3043 37.4255V20.6508C18.3043 19.239 19.4471 18.097 20.8581 18.097H43.3453C44.764 18.097 45.8991 19.2398 45.8991 20.6508L45.8999 38.1341Z" fill="#264AE5"/>
<path d="M34.9662 22.9897C33.1532 22.9897 31.6899 24.4523 31.6899 26.266C31.6899 28.079 33.1525 29.5422 34.9662 29.5422C36.7799 29.5422 38.2424 28.0797 38.2424 26.266C38.2424 24.453 36.7791 22.9897 34.9662 22.9897Z" fill="#264AE5"/>
</svg>
