<svg width="18" height="22" viewBox="0 0 18 22" fill="none" xmlns="http://www.w3.org/2000/svg">
<path d="M1 20.0291V1.37791C1 1.16919 1.16919 1 1.37791 1H12.3009C12.5661 1 12.8205 1.10536 13.008 1.29289L16.9571 5.24199C17.1446 5.42953 17.25 5.68388 17.25 5.9491V20.0291C17.25 20.5814 16.8023 21.0291 16.25 21.0291H2C1.44772 21.0291 1 20.5814 1 20.0291Z" fill="white" stroke="#CED0D3"/>
<path d="M12.3372 1L12.5608 0.552786C12.4058 0.475289 12.2217 0.483571 12.0743 0.574675C11.9269 0.665778 11.8372 0.826711 11.8372 1H12.3372ZM13.093 1.37791L13.4465 1.02435L13.3892 0.96698L13.3166 0.930693L13.093 1.37791ZM11.8372 1V4.53488H12.8372V1H11.8372ZM17.2256 4.80342L13.4465 1.02435L12.7394 1.73146L16.5185 5.51053L17.2256 4.80342ZM13.3166 0.930693L12.5608 0.552786L12.1136 1.44721L12.8694 1.82512L13.3166 0.930693ZM13.3374 6.03488C13.3398 6.03488 13.3422 6.03488 13.3446 6.03488C13.3471 6.03488 13.3495 6.03488 13.3519 6.03488C13.3543 6.03488 13.3567 6.03488 13.3591 6.03488C13.3616 6.03488 13.364 6.03488 13.3664 6.03488C13.3688 6.03488 13.3712 6.03488 13.3736 6.03488C13.376 6.03488 13.3784 6.03488 13.3808 6.03488C13.3833 6.03488 13.3857 6.03488 13.3881 6.03488C13.3905 6.03488 13.3929 6.03488 13.3953 6.03488C13.3977 6.03488 13.4001 6.03488 13.4025 6.03488C13.4049 6.03488 13.4073 6.03488 13.4097 6.03488C13.4121 6.03488 13.4145 6.03488 13.417 6.03488C13.4194 6.03488 13.4218 6.03488 13.4242 6.03488C13.4266 6.03488 13.429 6.03488 13.4314 6.03488C13.4338 6.03488 13.4362 6.03488 13.4386 6.03488C13.441 6.03488 13.4434 6.03488 13.4458 6.03488C13.4482 6.03488 13.4505 6.03488 13.4529 6.03488C13.4553 6.03488 13.4577 6.03488 13.4601 6.03488C13.4625 6.03488 13.4649 6.03488 13.4673 6.03488C13.4697 6.03488 13.4721 6.03488 13.4745 6.03488C13.4769 6.03488 13.4793 6.03488 13.4817 6.03488C13.4841 6.03488 13.4864 6.03488 13.4888 6.03488C13.4912 6.03488 13.4936 6.03488 13.496 6.03488C13.4984 6.03488 13.5008 6.03488 13.5032 6.03488C13.5055 6.03488 13.5079 6.03488 13.5103 6.03488C13.5127 6.03488 13.5151 6.03488 13.5175 6.03488C13.5199 6.03488 13.5222 6.03488 13.5246 6.03488C13.527 6.03488 13.5294 6.03488 13.5318 6.03488C13.5341 6.03488 13.5365 6.03488 13.5389 6.03488C13.5413 6.03488 13.5437 6.03488 13.546 6.03488C13.5484 6.03488 13.5508 6.03488 13.5532 6.03488C13.5556 6.03488 13.5579 6.03488 13.5603 6.03488C13.5627 6.03488 13.5651 6.03488 13.5674 6.03488C13.5698 6.03488 13.5722 6.03488 13.5746 6.03488C13.5769 6.03488 13.5793 6.03488 13.5817 6.03488C13.584 6.03488 13.5864 6.03488 13.5888 6.03488C13.5912 6.03488 13.5935 6.03488 13.5959 6.03488C13.5983 6.03488 13.6006 6.03488 13.603 6.03488C13.6054 6.03488 13.6077 6.03488 13.6101 6.03488C13.6125 6.03488 13.6148 6.03488 13.6172 6.03488C13.6196 6.03488 13.6219 6.03488 13.6243 6.03488C13.6267 6.03488 13.629 6.03488 13.6314 6.03488C13.6338 6.03488 13.6361 6.03488 13.6385 6.03488C13.6408 6.03488 13.6432 6.03488 13.6456 6.03488C13.6479 6.03488 13.6503 6.03488 13.6526 6.03488C13.655 6.03488 13.6574 6.03488 13.6597 6.03488C13.6621 6.03488 13.6644 6.03488 13.6668 6.03488C13.6691 6.03488 13.6715 6.03488 13.6739 6.03488C13.6762 6.03488 13.6786 6.03488 13.6809 6.03488C13.6833 6.03488 13.6856 6.03488 13.688 6.03488C13.6903 6.03488 13.6927 6.03488 13.695 6.03488C13.6974 6.03488 13.6997 6.03488 13.7021 6.03488C13.7044 6.03488 13.7068 6.03488 13.7091 6.03488C13.7115 6.03488 13.7138 6.03488 13.7162 6.03488C13.7185 6.03488 13.7209 6.03488 13.7232 6.03488C13.7256 6.03488 13.7279 6.03488 13.7303 6.03488C13.7326 6.03488 13.735 6.03488 13.7373 6.03488C13.7397 6.03488 13.742 6.03488 13.7443 6.03488C13.7467 6.03488 13.749 6.03488 13.7514 6.03488C13.7537 6.03488 13.7561 6.03488 13.7584 6.03488C13.7607 6.03488 13.7631 6.03488 13.7654 6.03488C13.7678 6.03488 13.7701 6.03488 13.7724 6.03488C13.7748 6.03488 13.7771 6.03488 13.7795 6.03488C13.7818 6.03488 13.7841 6.03488 13.7865 6.03488C13.7888 6.03488 13.7912 6.03488 13.7935 6.03488C13.7958 6.03488 13.7982 6.03488 13.8005 6.03488C13.8028 6.03488 13.8052 6.03488 13.8075 6.03488C13.8098 6.03488 13.8122 6.03488 13.8145 6.03488C13.8168 6.03488 13.8192 6.03488 13.8215 6.03488C13.8238 6.03488 13.8262 6.03488 13.8285 6.03488C13.8308 6.03488 13.8331 6.03488 13.8355 6.03488C13.8378 6.03488 13.8401 6.03488 13.8425 6.03488C13.8448 6.03488 13.8471 6.03488 13.8494 6.03488C13.8518 6.03488 13.8541 6.03488 13.8564 6.03488C13.8588 6.03488 13.8611 6.03488 13.8634 6.03488C13.8657 6.03488 13.8681 6.03488 13.8704 6.03488C13.8727 6.03488 13.875 6.03488 13.8773 6.03488C13.8797 6.03488 13.882 6.03488 13.8843 6.03488C13.8866 6.03488 13.889 6.03488 13.8913 6.03488C13.8936 6.03488 13.8959 6.03488 13.8982 6.03488C13.9006 6.03488 13.9029 6.03488 13.9052 6.03488C13.9075 6.03488 13.9098 6.03488 13.9122 6.03488C13.9145 6.03488 13.9168 6.03488 13.9191 6.03488C13.9214 6.03488 13.9237 6.03488 13.9261 6.03488C13.9284 6.03488 13.9307 6.03488 13.933 6.03488C13.9353 6.03488 13.9376 6.03488 13.94 6.03488C13.9423 6.03488 13.9446 6.03488 13.9469 6.03488C13.9492 6.03488 13.9515 6.03488 13.9538 6.03488C13.9561 6.03488 13.9585 6.03488 13.9608 6.03488C13.9631 6.03488 13.9654 6.03488 13.9677 6.03488C13.97 6.03488 13.9723 6.03488 13.9746 6.03488C13.9769 6.03488 13.9792 6.03488 13.9816 6.03488C13.9839 6.03488 13.9862 6.03488 13.9885 6.03488C13.9908 6.03488 13.9931 6.03488 13.9954 6.03488C13.9977 6.03488 14 6.03488 14.0023 6.03488C14.0046 6.03488 14.0069 6.03488 14.0092 6.03488C14.0115 6.03488 14.0138 6.03488 14.0161 6.03488C14.0184 6.03488 14.0207 6.03488 14.0231 6.03488C14.0254 6.03488 14.0277 6.03488 14.03 6.03488C14.0323 6.03488 14.0346 6.03488 14.0369 6.03488C14.0392 6.03488 14.0415 6.03488 14.0438 6.03488C14.0461 6.03488 14.0484 6.03488 14.0507 6.03488C14.053 6.03488 14.0553 6.03488 14.0576 6.03488C14.0599 6.03488 14.0622 6.03488 14.0645 6.03488C14.0667 6.03488 14.069 6.03488 14.0713 6.03488C14.0736 6.03488 14.0759 6.03488 14.0782 6.03488C14.0805 6.03488 14.0828 6.03488 14.0851 6.03488C14.0874 6.03488 14.0897 6.03488 14.092 6.03488C14.0943 6.03488 14.0966 6.03488 14.0989 6.03488C14.1012 6.03488 14.1035 6.03488 14.1058 6.03488C14.1081 6.03488 14.1103 6.03488 14.1126 6.03488C14.1149 6.03488 14.1172 6.03488 14.1195 6.03488C14.1218 6.03488 14.1241 6.03488 14.1264 6.03488C14.1287 6.03488 14.131 6.03488 14.1332 6.03488C14.1355 6.03488 14.1378 6.03488 14.1401 6.03488C14.1424 6.03488 14.1447 6.03488 14.147 6.03488C14.1493 6.03488 14.1516 6.03488 14.1538 6.03488C14.1561 6.03488 14.1584 6.03488 14.1607 6.03488C14.163 6.03488 14.1653 6.03488 14.1676 6.03488C14.1698 6.03488 14.1721 6.03488 14.1744 6.03488C14.1767 6.03488 14.179 6.03488 14.1813 6.03488C14.1835 6.03488 14.1858 6.03488 14.1881 6.03488C14.1904 6.03488 14.1927 6.03488 14.195 6.03488C14.1972 6.03488 14.1995 6.03488 14.2018 6.03488C14.2041 6.03488 14.2064 6.03488 14.2086 6.03488C14.2109 6.03488 14.2132 6.03488 14.2155 6.03488C14.2178 6.03488 14.22 6.03488 14.2223 6.03488C14.2246 6.03488 14.2269 6.03488 14.2292 6.03488C14.2314 6.03488 14.2337 6.03488 14.236 6.03488C14.2383 6.03488 14.2405 6.03488 14.2428 6.03488C14.2451 6.03488 14.2474 6.03488 14.2497 6.03488C14.2519 6.03488 14.2542 6.03488 14.2565 6.03488C14.2588 6.03488 14.261 6.03488 14.2633 6.03488C14.2656 6.03488 14.2679 6.03488 14.2701 6.03488C14.2724 6.03488 14.2747 6.03488 14.2769 6.03488C14.2792 6.03488 14.2815 6.03488 14.2838 6.03488C14.286 6.03488 14.2883 6.03488 14.2906 6.03488C14.2929 6.03488 14.2951 6.03488 14.2974 6.03488C14.2997 6.03488 14.3019 6.03488 14.3042 6.03488C14.3065 6.03488 14.3088 6.03488 14.311 6.03488C14.3133 6.03488 14.3156 6.03488 14.3178 6.03488C14.3201 6.03488 14.3224 6.03488 14.3246 6.03488C14.3269 6.03488 14.3292 6.03488 14.3314 6.03488C14.3337 6.03488 14.336 6.03488 14.3382 6.03488C14.3405 6.03488 14.3428 6.03488 14.345 6.03488C14.3473 6.03488 14.3496 6.03488 14.3518 6.03488C14.3541 6.03488 14.3564 6.03488 14.3586 6.03488C14.3609 6.03488 14.3632 6.03488 14.3654 6.03488C14.3677 6.03488 14.37 6.03488 14.3722 6.03488C14.3745 6.03488 14.3768 6.03488 14.379 6.03488C14.3813 6.03488 14.3836 6.03488 14.3858 6.03488C14.3881 6.03488 14.3903 6.03488 14.3926 6.03488C14.3949 6.03488 14.3971 6.03488 14.3994 6.03488C14.4017 6.03488 14.4039 6.03488 14.4062 6.03488C14.4084 6.03488 14.4107 6.03488 14.413 6.03488C14.4152 6.03488 14.4175 6.03488 14.4197 6.03488C14.422 6.03488 14.4243 6.03488 14.4265 6.03488C14.4288 6.03488 14.431 6.03488 14.4333 6.03488C14.4356 6.03488 14.4378 6.03488 14.4401 6.03488C14.4423 6.03488 14.4446 6.03488 14.4469 6.03488C14.4491 6.03488 14.4514 6.03488 14.4536 6.03488C14.4559 6.03488 14.4581 6.03488 14.4604 6.03488C14.4627 6.03488 14.4649 6.03488 14.4672 6.03488C14.4694 6.03488 14.4717 6.03488 14.4739 6.03488C14.4762 6.03488 14.4785 6.03488 14.4807 6.03488C14.483 6.03488 14.4852 6.03488 14.4875 6.03488C14.4897 6.03488 14.492 6.03488 14.4942 6.03488C14.4965 6.03488 14.4987 6.03488 14.501 6.03488C14.5033 6.03488 14.5055 6.03488 14.5078 6.03488C14.51 6.03488 14.5123 6.03488 14.5145 6.03488C14.5168 6.03488 14.519 6.03488 14.5213 6.03488C14.5235 6.03488 14.5258 6.03488 14.528 6.03488C14.5303 6.03488 14.5325 6.03488 14.5348 6.03488C14.537 6.03488 14.5393 6.03488 14.5415 6.03488C14.5438 6.03488 14.5461 6.03488 14.5483 6.03488C14.5506 6.03488 14.5528 6.03488 14.5551 6.03488C14.5573 6.03488 14.5596 6.03488 14.5618 6.03488C14.5641 6.03488 14.5663 6.03488 14.5686 6.03488C14.5708 6.03488 14.5731 6.03488 14.5753 6.03488C14.5776 6.03488 14.5798 6.03488 14.582 6.03488C14.5843 6.03488 14.5865 6.03488 14.5888 6.03488C14.591 6.03488 14.5933 6.03488 14.5955 6.03488C14.5978 6.03488 14.6 6.03488 14.6023 6.03488C14.6045 6.03488 14.6068 6.03488 14.609 6.03488C14.6113 6.03488 14.6135 6.03488 14.6158 6.03488C14.618 6.03488 14.6203 6.03488 14.6225 6.03488C14.6248 6.03488 14.627 6.03488 14.6292 6.03488C14.6315 6.03488 14.6337 6.03488 14.636 6.03488C14.6382 6.03488 14.6405 6.03488 14.6427 6.03488C14.645 6.03488 14.6472 6.03488 14.6495 6.03488C14.6517 6.03488 14.6539 6.03488 14.6562 6.03488C14.6584 6.03488 14.6607 6.03488 14.6629 6.03488C14.6652 6.03488 14.6674 6.03488 14.6697 6.03488C14.6719 6.03488 14.6741 6.03488 14.6764 6.03488C14.6786 6.03488 14.6809 6.03488 14.6831 6.03488C14.6854 6.03488 14.6876 6.03488 14.6898 6.03488C14.6921 6.03488 14.6943 6.03488 14.6966 6.03488C14.6988 6.03488 14.7011 6.03488 14.7033 6.03488C14.7055 6.03488 14.7078 6.03488 14.71 6.03488C14.7123 6.03488 14.7145 6.03488 14.7168 6.03488C14.719 6.03488 14.7212 6.03488 14.7235 6.03488C14.7257 6.03488 14.728 6.03488 14.7302 6.03488C14.7324 6.03488 14.7347 6.03488 14.7369 6.03488C14.7392 6.03488 14.7414 6.03488 14.7436 6.03488C14.7459 6.03488 14.7481 6.03488 14.7504 6.03488C14.7526 6.03488 14.7548 6.03488 14.7571 6.03488C14.7593 6.03488 14.7616 6.03488 14.7638 6.03488C14.766 6.03488 14.7683 6.03488 14.7705 6.03488C14.7728 6.03488 14.775 6.03488 14.7772 6.03488C14.7795 6.03488 14.7817 6.03488 14.784 6.03488C14.7862 6.03488 14.7884 6.03488 14.7907 6.03488C14.7929 6.03488 14.7952 6.03488 14.7974 6.03488C14.7996 6.03488 14.8019 6.03488 14.8041 6.03488C14.8063 6.03488 14.8086 6.03488 14.8108 6.03488C14.8131 6.03488 14.8153 6.03488 14.8175 6.03488C14.8198 6.03488 14.822 6.03488 14.8243 6.03488C14.8265 6.03488 14.8287 6.03488 14.831 6.03488C14.8332 6.03488 14.8354 6.03488 14.8377 6.03488C14.8399 6.03488 14.8422 6.03488 14.8444 6.03488C14.8466 6.03488 14.8489 6.03488 14.8511 6.03488C14.8533 6.03488 14.8556 6.03488 14.8578 6.03488C14.8601 6.03488 14.8623 6.03488 14.8645 6.03488C14.8668 6.03488 14.869 6.03488 14.8712 6.03488C14.8735 6.03488 14.8757 6.03488 14.8779 6.03488C14.8802 6.03488 14.8824 6.03488 14.8847 6.03488C14.8869 6.03488 14.8891 6.03488 14.8914 6.03488C14.8936 6.03488 14.8958 6.03488 14.8981 6.03488C14.9003 6.03488 14.9025 6.03488 14.9048 6.03488C14.907 6.03488 14.9093 6.03488 14.9115 6.03488C14.9137 6.03488 14.916 6.03488 14.9182 6.03488C14.9204 6.03488 14.9227 6.03488 14.9249 6.03488C14.9271 6.03488 14.9294 6.03488 14.9316 6.03488C14.9338 6.03488 14.9361 6.03488 14.9383 6.03488C14.9406 6.03488 14.9428 6.03488 14.945 6.03488C14.9473 6.03488 14.9495 6.03488 14.9517 6.03488C14.954 6.03488 14.9562 6.03488 14.9584 6.03488C14.9607 6.03488 14.9629 6.03488 14.9651 6.03488C14.9674 6.03488 14.9696 6.03488 14.9718 6.03488C14.9741 6.03488 14.9763 6.03488 14.9786 6.03488C14.9808 6.03488 14.983 6.03488 14.9853 6.03488C14.9875 6.03488 14.9897 6.03488 14.992 6.03488C14.9942 6.03488 14.9964 6.03488 14.9987 6.03488C15.0009 6.03488 15.0031 6.03488 15.0054 6.03488C15.0076 6.03488 15.0098 6.03488 15.0121 6.03488C15.0143 6.03488 15.0165 6.03488 15.0188 6.03488C15.021 6.03488 15.0233 6.03488 15.0255 6.03488C15.0277 6.03488 15.03 6.03488 15.0322 6.03488C15.0344 6.03488 15.0367 6.03488 15.0389 6.03488C15.0411 6.03488 15.0434 6.03488 15.0456 6.03488C15.0478 6.03488 15.0501 6.03488 15.0523 6.03488C15.0545 6.03488 15.0568 6.03488 15.059 6.03488C15.0612 6.03488 15.0635 6.03488 15.0657 6.03488C15.0679 6.03488 15.0702 6.03488 15.0724 6.03488C15.0747 6.03488 15.0769 6.03488 15.0791 6.03488C15.0814 6.03488 15.0836 6.03488 15.0858 6.03488C15.0881 6.03488 15.0903 6.03488 15.0925 6.03488C15.0948 6.03488 15.097 6.03488 15.0992 6.03488C15.1015 6.03488 15.1037 6.03488 15.1059 6.03488C15.1082 6.03488 15.1104 6.03488 15.1126 6.03488C15.1149 6.03488 15.1171 6.03488 15.1194 6.03488C15.1216 6.03488 15.1238 6.03488 15.1261 6.03488C15.1283 6.03488 15.1305 6.03488 15.1328 6.03488C15.135 6.03488 15.1372 6.03488 15.1395 6.03488C15.1417 6.03488 15.1439 6.03488 15.1462 6.03488C15.1484 6.03488 15.1506 6.03488 15.1529 6.03488C15.1551 6.03488 15.1574 6.03488 15.1596 6.03488C15.1618 6.03488 15.1641 6.03488 15.1663 6.03488C15.1685 6.03488 15.1708 6.03488 15.173 6.03488C15.1752 6.03488 15.1775 6.03488 15.1797 6.03488C15.182 6.03488 15.1842 6.03488 15.1864 6.03488C15.1887 6.03488 15.1909 6.03488 15.1931 6.03488C15.1954 6.03488 15.1976 6.03488 15.1998 6.03488C15.2021 6.03488 15.2043 6.03488 15.2066 6.03488C15.2088 6.03488 15.211 6.03488 15.2133 6.03488C15.2155 6.03488 15.2177 6.03488 15.22 6.03488C15.2222 6.03488 15.2244 6.03488 15.2267 6.03488C15.2289 6.03488 15.2312 6.03488 15.2334 6.03488C15.2356 6.03488 15.2379 6.03488 15.2401 6.03488C15.2423 6.03488 15.2446 6.03488 15.2468 6.03488C15.2491 6.03488 15.2513 6.03488 15.2535 6.03488C15.2558 6.03488 15.258 6.03488 15.2603 6.03488C15.2625 6.03488 15.2647 6.03488 15.267 6.03488C15.2692 6.03488 15.2714 6.03488 15.2737 6.03488C15.2759 6.03488 15.2782 6.03488 15.2804 6.03488C15.2826 6.03488 15.2849 6.03488 15.2871 6.03488C15.2894 6.03488 15.2916 6.03488 15.2938 6.03488C15.2961 6.03488 15.2983 6.03488 15.3005 6.03488C15.3028 6.03488 15.305 6.03488 15.3073 6.03488C15.3095 6.03488 15.3117 6.03488 15.314 6.03488C15.3162 6.03488 15.3185 6.03488 15.3207 6.03488C15.3229 6.03488 15.3252 6.03488 15.3274 6.03488C15.3297 6.03488 15.3319 6.03488 15.3342 6.03488C15.3364 6.03488 15.3386 6.03488 15.3409 6.03488C15.3431 6.03488 15.3454 6.03488 15.3476 6.03488C15.3498 6.03488 15.3521 6.03488 15.3543 6.03488C15.3566 6.03488 15.3588 6.03488 15.361 6.03488C15.3633 6.03488 15.3655 6.03488 15.3678 6.03488C15.37 6.03488 15.3723 6.03488 15.3745 6.03488C15.3767 6.03488 15.379 6.03488 15.3812 6.03488C15.3835 6.03488 15.3857 6.03488 15.388 6.03488C15.3902 6.03488 15.3924 6.03488 15.3947 6.03488C15.3969 6.03488 15.3992 6.03488 15.4014 6.03488C15.4037 6.03488 15.4059 6.03488 15.4081 6.03488C15.4104 6.03488 15.4126 6.03488 15.4149 6.03488C15.4171 6.03488 15.4194 6.03488 15.4216 6.03488C15.4239 6.03488 15.4261 6.03488 15.4283 6.03488C15.4306 6.03488 15.4328 6.03488 15.4351 6.03488C15.4373 6.03488 15.4396 6.03488 15.4418 6.03488C15.4441 6.03488 15.4463 6.03488 15.4486 6.03488C15.4508 6.03488 15.4531 6.03488 15.4553 6.03488C15.4575 6.03488 15.4598 6.03488 15.462 6.03488C15.4643 6.03488 15.4665 6.03488 15.4688 6.03488C15.471 6.03488 15.4733 6.03488 15.4755 6.03488C15.4778 6.03488 15.48 6.03488 15.4823 6.03488C15.4845 6.03488 15.4868 6.03488 15.489 6.03488C15.4913 6.03488 15.4935 6.03488 15.4958 6.03488C15.498 6.03488 15.5003 6.03488 15.5025 6.03488C15.5048 6.03488 15.507 6.03488 15.5093 6.03488C15.5115 6.03488 15.5138 6.03488 15.516 6.03488C15.5183 6.03488 15.5205 6.03488 15.5228 6.03488C15.525 6.03488 15.5273 6.03488 15.5295 6.03488C15.5318 6.03488 15.534 6.03488 15.5363 6.03488C15.5385 6.03488 15.5408 6.03488 15.543 6.03488C15.5453 6.03488 15.5475 6.03488 15.5498 6.03488C15.552 6.03488 15.5543 6.03488 15.5565 6.03488C15.5588 6.03488 15.561 6.03488 15.5633 6.03488C15.5655 6.03488 15.5678 6.03488 15.57 6.03488C15.5723 6.03488 15.5746 6.03488 15.5768 6.03488C15.5791 6.03488 15.5813 6.03488 15.5836 6.03488C15.5858 6.03488 15.5881 6.03488 15.5903 6.03488C15.5926 6.03488 15.5949 6.03488 15.5971 6.03488C15.5994 6.03488 15.6016 6.03488 15.6039 6.03488C15.6061 6.03488 15.6084 6.03488 15.6106 6.03488C15.6129 6.03488 15.6152 6.03488 15.6174 6.03488C15.6197 6.03488 15.6219 6.03488 15.6242 6.03488C15.6264 6.03488 15.6287 6.03488 15.631 6.03488C15.6332 6.03488 15.6355 6.03488 15.6377 6.03488C15.64 6.03488 15.6423 6.03488 15.6445 6.03488C15.6468 6.03488 15.649 6.03488 15.6513 6.03488C15.6536 6.03488 15.6558 6.03488 15.6581 6.03488C15.6603 6.03488 15.6626 6.03488 15.6649 6.03488C15.6671 6.03488 15.6694 6.03488 15.6716 6.03488C15.6739 6.03488 15.6762 6.03488 15.6784 6.03488C15.6807 6.03488 15.683 6.03488 15.6852 6.03488C15.6875 6.03488 15.6897 6.03488 15.692 6.03488C15.6943 6.03488 15.6965 6.03488 15.6988 6.03488C15.7011 6.03488 15.7033 6.03488 15.7056 6.03488C15.7079 6.03488 15.7101 6.03488 15.7124 6.03488C15.7146 6.03488 15.7169 6.03488 15.7192 6.03488C15.7214 6.03488 15.7237 6.03488 15.726 6.03488C15.7282 6.03488 15.7305 6.03488 15.7328 6.03488C15.735 6.03488 15.7373 6.03488 15.7396 6.03488C15.7418 6.03488 15.7441 6.03488 15.7464 6.03488C15.7487 6.03488 15.7509 6.03488 15.7532 6.03488C15.7555 6.03488 15.7577 6.03488 15.76 6.03488C15.7623 6.03488 15.7645 6.03488 15.7668 6.03488C15.7691 6.03488 15.7713 6.03488 15.7736 6.03488C15.7759 6.03488 15.7782 6.03488 15.7804 6.03488C15.7827 6.03488 15.785 6.03488 15.7873 6.03488C15.7895 6.03488 15.7918 6.03488 15.7941 6.03488C15.7963 6.03488 15.7986 6.03488 15.8009 6.03488C15.8032 6.03488 15.8054 6.03488 15.8077 6.03488C15.81 6.03488 15.8123 6.03488 15.8145 6.03488C15.8168 6.03488 15.8191 6.03488 15.8214 6.03488C15.8236 6.03488 15.8259 6.03488 15.8282 6.03488C15.8305 6.03488 15.8327 6.03488 15.835 6.03488C15.8373 6.03488 15.8396 6.03488 15.8419 6.03488C15.8441 6.03488 15.8464 6.03488 15.8487 6.03488C15.851 6.03488 15.8532 6.03488 15.8555 6.03488C15.8578 6.03488 15.8601 6.03488 15.8624 6.03488C15.8646 6.03488 15.8669 6.03488 15.8692 6.03488C15.8715 6.03488 15.8738 6.03488 15.876 6.03488C15.8783 6.03488 15.8806 6.03488 15.8829 6.03488C15.8852 6.03488 15.8875 6.03488 15.8897 6.03488C15.892 6.03488 15.8943 6.03488 15.8966 6.03488C15.8989 6.03488 15.9012 6.03488 15.9034 6.03488C15.9057 6.03488 15.908 6.03488 15.9103 6.03488C15.9126 6.03488 15.9149 6.03488 15.9172 6.03488C15.9194 6.03488 15.9217 6.03488 15.924 6.03488C15.9263 6.03488 15.9286 6.03488 15.9309 6.03488C15.9332 6.03488 15.9355 6.03488 15.9377 6.03488C15.94 6.03488 15.9423 6.03488 15.9446 6.03488C15.9469 6.03488 15.9492 6.03488 15.9515 6.03488C15.9538 6.03488 15.9561 6.03488 15.9583 6.03488C15.9606 6.03488 15.9629 6.03488 15.9652 6.03488C15.9675 6.03488 15.9698 6.03488 15.9721 6.03488C15.9744 6.03488 15.9767 6.03488 15.979 6.03488C15.9813 6.03488 15.9836 6.03488 15.9859 6.03488C15.9882 6.03488 15.9904 6.03488 15.9927 6.03488C15.995 6.03488 15.9973 6.03488 15.9996 6.03488C16.0019 6.03488 16.0042 6.03488 16.0065 6.03488C16.0088 6.03488 16.0111 6.03488 16.0134 6.03488C16.0157 6.03488 16.018 6.03488 16.0203 6.03488C16.0226 6.03488 16.0249 6.03488 16.0272 6.03488C16.0295 6.03488 16.0318 6.03488 16.0341 6.03488C16.0364 6.03488 16.0387 6.03488 16.041 6.03488C16.0433 6.03488 16.0456 6.03488 16.0479 6.03488C16.0502 6.03488 16.0525 6.03488 16.0548 6.03488C16.0571 6.03488 16.0594 6.03488 16.0617 6.03488C16.064 6.03488 16.0663 6.03488 16.0686 6.03488C16.0709 6.03488 16.0733 6.03488 16.0756 6.03488C16.0779 6.03488 16.0802 6.03488 16.0825 6.03488C16.0848 6.03488 16.0871 6.03488 16.0894 6.03488C16.0917 6.03488 16.094 6.03488 16.0963 6.03488C16.0986 6.03488 16.1009 6.03488 16.1033 6.03488C16.1056 6.03488 16.1079 6.03488 16.1102 6.03488C16.1125 6.03488 16.1148 6.03488 16.1171 6.03488C16.1194 6.03488 16.1217 6.03488 16.1241 6.03488C16.1264 6.03488 16.1287 6.03488 16.131 6.03488C16.1333 6.03488 16.1356 6.03488 16.1379 6.03488C16.1402 6.03488 16.1426 6.03488 16.1449 6.03488C16.1472 6.03488 16.1495 6.03488 16.1518 6.03488C16.1541 6.03488 16.1565 6.03488 16.1588 6.03488C16.1611 6.03488 16.1634 6.03488 16.1657 6.03488C16.168 6.03488 16.1704 6.03488 16.1727 6.03488C16.175 6.03488 16.1773 6.03488 16.1796 6.03488C16.182 6.03488 16.1843 6.03488 16.1866 6.03488C16.1889 6.03488 16.1913 6.03488 16.1936 6.03488C16.1959 6.03488 16.1982 6.03488 16.2005 6.03488C16.2029 6.03488 16.2052 6.03488 16.2075 6.03488C16.2098 6.03488 16.2122 6.03488 16.2145 6.03488C16.2168 6.03488 16.2191 6.03488 16.2215 6.03488C16.2238 6.03488 16.2261 6.03488 16.2285 6.03488C16.2308 6.03488 16.2331 6.03488 16.2354 6.03488C16.2378 6.03488 16.2401 6.03488 16.2424 6.03488C16.2448 6.03488 16.2471 6.03488 16.2494 6.03488C16.2517 6.03488 16.2541 6.03488 16.2564 6.03488C16.2587 6.03488 16.2611 6.03488 16.2634 6.03488C16.2657 6.03488 16.2681 6.03488 16.2704 6.03488C16.2727 6.03488 16.2751 6.03488 16.2774 6.03488C16.2798 6.03488 16.2821 6.03488 16.2844 6.03488C16.2868 6.03488 16.2891 6.03488 16.2914 6.03488C16.2938 6.03488 16.2961 6.03488 16.2984 6.03488C16.3008 6.03488 16.3031 6.03488 16.3055 6.03488C16.3078 6.03488 16.3101 6.03488 16.3125 6.03488C16.3148 6.03488 16.3172 6.03488 16.3195 6.03488C16.3219 6.03488 16.3242 6.03488 16.3265 6.03488C16.3289 6.03488 16.3312 6.03488 16.3336 6.03488C16.3359 6.03488 16.3383 6.03488 16.3406 6.03488C16.343 6.03488 16.3453 6.03488 16.3476 6.03488C16.35 6.03488 16.3523 6.03488 16.3547 6.03488C16.357 6.03488 16.3594 6.03488 16.3617 6.03488C16.3641 6.03488 16.3664 6.03488 16.3688 6.03488C16.3711 6.03488 16.3735 6.03488 16.3758 6.03488C16.3782 6.03488 16.3805 6.03488 16.3829 6.03488C16.3852 6.03488 16.3876 6.03488 16.3899 6.03488C16.3923 6.03488 16.3947 6.03488 16.397 6.03488C16.3994 6.03488 16.4017 6.03488 16.4041 6.03488C16.4064 6.03488 16.4088 6.03488 16.4111 6.03488C16.4135 6.03488 16.4159 6.03488 16.4182 6.03488C16.4206 6.03488 16.4229 6.03488 16.4253 6.03488C16.4277 6.03488 16.43 6.03488 16.4324 6.03488C16.4347 6.03488 16.4371 6.03488 16.4395 6.03488C16.4418 6.03488 16.4442 6.03488 16.4466 6.03488C16.4489 6.03488 16.4513 6.03488 16.4536 6.03488C16.456 6.03488 16.4584 6.03488 16.4607 6.03488C16.4631 6.03488 16.4655 6.03488 16.4678 6.03488C16.4702 6.03488 16.4726 6.03488 16.4749 6.03488C16.4773 6.03488 16.4797 6.03488 16.4821 6.03488C16.4844 6.03488 16.4868 6.03488 16.4892 6.03488C16.4915 6.03488 16.4939 6.03488 16.4963 6.03488C16.4987 6.03488 16.501 6.03488 16.5034 6.03488C16.5058 6.03488 16.5081 6.03488 16.5105 6.03488C16.5129 6.03488 16.5153 6.03488 16.5176 6.03488C16.52 6.03488 16.5224 6.03488 16.5248 6.03488C16.5272 6.03488 16.5295 6.03488 16.5319 6.03488C16.5343 6.03488 16.5367 6.03488 16.5391 6.03488C16.5414 6.03488 16.5438 6.03488 16.5462 6.03488C16.5486 6.03488 16.551 6.03488 16.5533 6.03488C16.5557 6.03488 16.5581 6.03488 16.5605 6.03488C16.5629 6.03488 16.5653 6.03488 16.5676 6.03488C16.57 6.03488 16.5724 6.03488 16.5748 6.03488C16.5772 6.03488 16.5796 6.03488 16.582 6.03488C16.5844 6.03488 16.5867 6.03488 16.5891 6.03488C16.5915 6.03488 16.5939 6.03488 16.5963 6.03488C16.5987 6.03488 16.6011 6.03488 16.6035 6.03488C16.6059 6.03488 16.6083 6.03488 16.6107 6.03488C16.6131 6.03488 16.6155 6.03488 16.6178 6.03488C16.6202 6.03488 16.6226 6.03488 16.625 6.03488C16.6274 6.03488 16.6298 6.03488 16.6322 6.03488C16.6346 6.03488 16.637 6.03488 16.6394 6.03488C16.6418 6.03488 16.6442 6.03488 16.6466 6.03488C16.649 6.03488 16.6514 6.03488 16.6538 6.03488C16.6562 6.03488 16.6586 6.03488 16.661 6.03488C16.6634 6.03488 16.6658 6.03488 16.6683 6.03488C16.6707 6.03488 16.6731 6.03488 16.6755 6.03488C16.6779 6.03488 16.6803 6.03488 16.6827 6.03488C16.6851 6.03488 16.6875 6.03488 16.6899 6.03488C16.6923 6.03488 16.6947 6.03488 16.6971 6.03488C16.6996 6.03488 16.702 6.03488 16.7044 6.03488C16.7068 6.03488 16.7092 6.03488 16.7116 6.03488C16.714 6.03488 16.7165 6.03488 16.7189 6.03488C16.7213 6.03488 16.7237 6.03488 16.7261 6.03488C16.7285 6.03488 16.731 6.03488 16.7334 6.03488C16.7358 6.03488 16.7382 6.03488 16.7406 6.03488C16.743 6.03488 16.7455 6.03488 16.7479 6.03488C16.7503 6.03488 16.7527 6.03488 16.7552 6.03488C16.7576 6.03488 16.76 6.03488 16.7624 6.03488C16.7648 6.03488 16.7673 6.03488 16.7697 6.03488C16.7721 6.03488 16.7746 6.03488 16.777 6.03488C16.7794 6.03488 16.7818 6.03488 16.7843 6.03488C16.7867 6.03488 16.7891 6.03488 16.7916 6.03488C16.794 6.03488 16.7964 6.03488 16.7988 6.03488C16.8013 6.03488 16.8037 6.03488 16.8061 6.03488C16.8086 6.03488 16.811 6.03488 16.8134 6.03488C16.8159 6.03488 16.8183 6.03488 16.8208 6.03488C16.8232 6.03488 16.8256 6.03488 16.8281 6.03488C16.8305 6.03488 16.8329 6.03488 16.8354 6.03488C16.8378 6.03488 16.8403 6.03488 16.8427 6.03488C16.8451 6.03488 16.8476 6.03488 16.85 6.03488C16.8525 6.03488 16.8549 6.03488 16.8574 6.03488C16.8598 6.03488 16.8623 6.03488 16.8647 6.03488C16.8671 6.03488 16.8696 6.03488 16.872 6.03488V5.03488C16.8696 5.03488 16.8671 5.03488 16.8647 5.03488C16.8623 5.03488 16.8598 5.03488 16.8574 5.03488C16.8549 5.03488 16.8525 5.03488 16.85 5.03488C16.8476 5.03488 16.8451 5.03488 16.8427 5.03488C16.8403 5.03488 16.8378 5.03488 16.8354 5.03488C16.8329 5.03488 16.8305 5.03488 16.8281 5.03488C16.8256 5.03488 16.8232 5.03488 16.8208 5.03488C16.8183 5.03488 16.8159 5.03488 16.8134 5.03488C16.811 5.03488 16.8086 5.03488 16.8061 5.03488C16.8037 5.03488 16.8013 5.03488 16.7988 5.03488C16.7964 5.03488 16.794 5.03488 16.7916 5.03488C16.7891 5.03488 16.7867 5.03488 16.7843 5.03488C16.7818 5.03488 16.7794 5.03488 16.777 5.03488C16.7746 5.03488 16.7721 5.03488 16.7697 5.03488C16.7673 5.03488 16.7648 5.03488 16.7624 5.03488C16.76 5.03488 16.7576 5.03488 16.7552 5.03488C16.7527 5.03488 16.7503 5.03488 16.7479 5.03488C16.7455 5.03488 16.743 5.03488 16.7406 5.03488C16.7382 5.03488 16.7358 5.03488 16.7334 5.03488C16.731 5.03488 16.7285 5.03488 16.7261 5.03488C16.7237 5.03488 16.7213 5.03488 16.7189 5.03488C16.7165 5.03488 16.714 5.03488 16.7116 5.03488C16.7092 5.03488 16.7068 5.03488 16.7044 5.03488C16.702 5.03488 16.6996 5.03488 16.6971 5.03488C16.6947 5.03488 16.6923 5.03488 16.6899 5.03488C16.6875 5.03488 16.6851 5.03488 16.6827 5.03488C16.6803 5.03488 16.6779 5.03488 16.6755 5.03488C16.6731 5.03488 16.6707 5.03488 16.6683 5.03488C16.6658 5.03488 16.6634 5.03488 16.661 5.03488C16.6586 5.03488 16.6562 5.03488 16.6538 5.03488C16.6514 5.03488 16.649 5.03488 16.6466 5.03488C16.6442 5.03488 16.6418 5.03488 16.6394 5.03488C16.637 5.03488 16.6346 5.03488 16.6322 5.03488C16.6298 5.03488 16.6274 5.03488 16.625 5.03488C16.6226 5.03488 16.6202 5.03488 16.6178 5.03488C16.6155 5.03488 16.6131 5.03488 16.6107 5.03488C16.6083 5.03488 16.6059 5.03488 16.6035 5.03488C16.6011 5.03488 16.5987 5.03488 16.5963 5.03488C16.5939 5.03488 16.5915 5.03488 16.5891 5.03488C16.5867 5.03488 16.5844 5.03488 16.582 5.03488C16.5796 5.03488 16.5772 5.03488 16.5748 5.03488C16.5724 5.03488 16.57 5.03488 16.5676 5.03488C16.5653 5.03488 16.5629 5.03488 16.5605 5.03488C16.5581 5.03488 16.5557 5.03488 16.5533 5.03488C16.551 5.03488 16.5486 5.03488 16.5462 5.03488C16.5438 5.03488 16.5414 5.03488 16.5391 5.03488C16.5367 5.03488 16.5343 5.03488 16.5319 5.03488C16.5295 5.03488 16.5272 5.03488 16.5248 5.03488C16.5224 5.03488 16.52 5.03488 16.5176 5.03488C16.5153 5.03488 16.5129 5.03488 16.5105 5.03488C16.5081 5.03488 16.5058 5.03488 16.5034 5.03488C16.501 5.03488 16.4987 5.03488 16.4963 5.03488C16.4939 5.03488 16.4915 5.03488 16.4892 5.03488C16.4868 5.03488 16.4844 5.03488 16.4821 5.03488C16.4797 5.03488 16.4773 5.03488 16.4749 5.03488C16.4726 5.03488 16.4702 5.03488 16.4678 5.03488C16.4655 5.03488 16.4631 5.03488 16.4607 5.03488C16.4584 5.03488 16.456 5.03488 16.4536 5.03488C16.4513 5.03488 16.4489 5.03488 16.4466 5.03488C16.4442 5.03488 16.4418 5.03488 16.4395 5.03488C16.4371 5.03488 16.4347 5.03488 16.4324 5.03488C16.43 5.03488 16.4277 5.03488 16.4253 5.03488C16.4229 5.03488 16.4206 5.03488 16.4182 5.03488C16.4159 5.03488 16.4135 5.03488 16.4111 5.03488C16.4088 5.03488 16.4064 5.03488 16.4041 5.03488C16.4017 5.03488 16.3994 5.03488 16.397 5.03488C16.3947 5.03488 16.3923 5.03488 16.3899 5.03488C16.3876 5.03488 16.3852 5.03488 16.3829 5.03488C16.3805 5.03488 16.3782 5.03488 16.3758 5.03488C16.3735 5.03488 16.3711 5.03488 16.3688 5.03488C16.3664 5.03488 16.3641 5.03488 16.3617 5.03488C16.3594 5.03488 16.357 5.03488 16.3547 5.03488C16.3523 5.03488 16.35 5.03488 16.3476 5.03488C16.3453 5.03488 16.343 5.03488 16.3406 5.03488C16.3383 5.03488 16.3359 5.03488 16.3336 5.03488C16.3312 5.03488 16.3289 5.03488 16.3265 5.03488C16.3242 5.03488 16.3219 5.03488 16.3195 5.03488C16.3172 5.03488 16.3148 5.03488 16.3125 5.03488C16.3101 5.03488 16.3078 5.03488 16.3055 5.03488C16.3031 5.03488 16.3008 5.03488 16.2984 5.03488C16.2961 5.03488 16.2938 5.03488 16.2914 5.03488C16.2891 5.03488 16.2868 5.03488 16.2844 5.03488C16.2821 5.03488 16.2798 5.03488 16.2774 5.03488C16.2751 5.03488 16.2727 5.03488 16.2704 5.03488C16.2681 5.03488 16.2657 5.03488 16.2634 5.03488C16.2611 5.03488 16.2587 5.03488 16.2564 5.03488C16.2541 5.03488 16.2517 5.03488 16.2494 5.03488C16.2471 5.03488 16.2448 5.03488 16.2424 5.03488C16.2401 5.03488 16.2378 5.03488 16.2354 5.03488C16.2331 5.03488 16.2308 5.03488 16.2285 5.03488C16.2261 5.03488 16.2238 5.03488 16.2215 5.03488C16.2191 5.03488 16.2168 5.03488 16.2145 5.03488C16.2122 5.03488 16.2098 5.03488 16.2075 5.03488C16.2052 5.03488 16.2029 5.03488 16.2005 5.03488C16.1982 5.03488 16.1959 5.03488 16.1936 5.03488C16.1913 5.03488 16.1889 5.03488 16.1866 5.03488C16.1843 5.03488 16.182 5.03488 16.1796 5.03488C16.1773 5.03488 16.175 5.03488 16.1727 5.03488C16.1704 5.03488 16.168 5.03488 16.1657 5.03488C16.1634 5.03488 16.1611 5.03488 16.1588 5.03488C16.1565 5.03488 16.1541 5.03488 16.1518 5.03488C16.1495 5.03488 16.1472 5.03488 16.1449 5.03488C16.1426 5.03488 16.1402 5.03488 16.1379 5.03488C16.1356 5.03488 16.1333 5.03488 16.131 5.03488C16.1287 5.03488 16.1264 5.03488 16.1241 5.03488C16.1217 5.03488 16.1194 5.03488 16.1171 5.03488C16.1148 5.03488 16.1125 5.03488 16.1102 5.03488C16.1079 5.03488 16.1056 5.03488 16.1033 5.03488C16.1009 5.03488 16.0986 5.03488 16.0963 5.03488C16.094 5.03488 16.0917 5.03488 16.0894 5.03488C16.0871 5.03488 16.0848 5.03488 16.0825 5.03488C16.0802 5.03488 16.0779 5.03488 16.0756 5.03488C16.0733 5.03488 16.0709 5.03488 16.0686 5.03488C16.0663 5.03488 16.064 5.03488 16.0617 5.03488C16.0594 5.03488 16.0571 5.03488 16.0548 5.03488C16.0525 5.03488 16.0502 5.03488 16.0479 5.03488C16.0456 5.03488 16.0433 5.03488 16.041 5.03488C16.0387 5.03488 16.0364 5.03488 16.0341 5.03488C16.0318 5.03488 16.0295 5.03488 16.0272 5.03488C16.0249 5.03488 16.0226 5.03488 16.0203 5.03488C16.018 5.03488 16.0157 5.03488 16.0134 5.03488C16.0111 5.03488 16.0088 5.03488 16.0065 5.03488C16.0042 5.03488 16.0019 5.03488 15.9996 5.03488C15.9973 5.03488 15.995 5.03488 15.9927 5.03488C15.9904 5.03488 15.9882 5.03488 15.9859 5.03488C15.9836 5.03488 15.9813 5.03488 15.979 5.03488C15.9767 5.03488 15.9744 5.03488 15.9721 5.03488C15.9698 5.03488 15.9675 5.03488 15.9652 5.03488C15.9629 5.03488 15.9606 5.03488 15.9583 5.03488C15.9561 5.03488 15.9538 5.03488 15.9515 5.03488C15.9492 5.03488 15.9469 5.03488 15.9446 5.03488C15.9423 5.03488 15.94 5.03488 15.9377 5.03488C15.9355 5.03488 15.9332 5.03488 15.9309 5.03488C15.9286 5.03488 15.9263 5.03488 15.924 5.03488C15.9217 5.03488 15.9194 5.03488 15.9172 5.03488C15.9149 5.03488 15.9126 5.03488 15.9103 5.03488C15.908 5.03488 15.9057 5.03488 15.9034 5.03488C15.9012 5.03488 15.8989 5.03488 15.8966 5.03488C15.8943 5.03488 15.892 5.03488 15.8897 5.03488C15.8875 5.03488 15.8852 5.03488 15.8829 5.03488C15.8806 5.03488 15.8783 5.03488 15.876 5.03488C15.8738 5.03488 15.8715 5.03488 15.8692 5.03488C15.8669 5.03488 15.8646 5.03488 15.8624 5.03488C15.8601 5.03488 15.8578 5.03488 15.8555 5.03488C15.8532 5.03488 15.851 5.03488 15.8487 5.03488C15.8464 5.03488 15.8441 5.03488 15.8419 5.03488C15.8396 5.03488 15.8373 5.03488 15.835 5.03488C15.8327 5.03488 15.8305 5.03488 15.8282 5.03488C15.8259 5.03488 15.8236 5.03488 15.8214 5.03488C15.8191 5.03488 15.8168 5.03488 15.8145 5.03488C15.8123 5.03488 15.81 5.03488 15.8077 5.03488C15.8054 5.03488 15.8032 5.03488 15.8009 5.03488C15.7986 5.03488 15.7963 5.03488 15.7941 5.03488C15.7918 5.03488 15.7895 5.03488 15.7873 5.03488C15.785 5.03488 15.7827 5.03488 15.7804 5.03488C15.7782 5.03488 15.7759 5.03488 15.7736 5.03488C15.7713 5.03488 15.7691 5.03488 15.7668 5.03488C15.7645 5.03488 15.7623 5.03488 15.76 5.03488C15.7577 5.03488 15.7555 5.03488 15.7532 5.03488C15.7509 5.03488 15.7487 5.03488 15.7464 5.03488C15.7441 5.03488 15.7418 5.03488 15.7396 5.03488C15.7373 5.03488 15.735 5.03488 15.7328 5.03488C15.7305 5.03488 15.7282 5.03488 15.726 5.03488C15.7237 5.03488 15.7214 5.03488 15.7192 5.03488C15.7169 5.03488 15.7146 5.03488 15.7124 5.03488C15.7101 5.03488 15.7079 5.03488 15.7056 5.03488C15.7033 5.03488 15.7011 5.03488 15.6988 5.03488C15.6965 5.03488 15.6943 5.03488 15.692 5.03488C15.6897 5.03488 15.6875 5.03488 15.6852 5.03488C15.683 5.03488 15.6807 5.03488 15.6784 5.03488C15.6762 5.03488 15.6739 5.03488 15.6716 5.03488C15.6694 5.03488 15.6671 5.03488 15.6649 5.03488C15.6626 5.03488 15.6603 5.03488 15.6581 5.03488C15.6558 5.03488 15.6536 5.03488 15.6513 5.03488C15.649 5.03488 15.6468 5.03488 15.6445 5.03488C15.6423 5.03488 15.64 5.03488 15.6377 5.03488C15.6355 5.03488 15.6332 5.03488 15.631 5.03488C15.6287 5.03488 15.6264 5.03488 15.6242 5.03488C15.6219 5.03488 15.6197 5.03488 15.6174 5.03488C15.6152 5.03488 15.6129 5.03488 15.6106 5.03488C15.6084 5.03488 15.6061 5.03488 15.6039 5.03488C15.6016 5.03488 15.5994 5.03488 15.5971 5.03488C15.5949 5.03488 15.5926 5.03488 15.5903 5.03488C15.5881 5.03488 15.5858 5.03488 15.5836 5.03488C15.5813 5.03488 15.5791 5.03488 15.5768 5.03488C15.5746 5.03488 15.5723 5.03488 15.57 5.03488C15.5678 5.03488 15.5655 5.03488 15.5633 5.03488C15.561 5.03488 15.5588 5.03488 15.5565 5.03488C15.5543 5.03488 15.552 5.03488 15.5498 5.03488C15.5475 5.03488 15.5453 5.03488 15.543 5.03488C15.5408 5.03488 15.5385 5.03488 15.5363 5.03488C15.534 5.03488 15.5318 5.03488 15.5295 5.03488C15.5273 5.03488 15.525 5.03488 15.5228 5.03488C15.5205 5.03488 15.5183 5.03488 15.516 5.03488C15.5138 5.03488 15.5115 5.03488 15.5093 5.03488C15.507 5.03488 15.5048 5.03488 15.5025 5.03488C15.5003 5.03488 15.498 5.03488 15.4958 5.03488C15.4935 5.03488 15.4913 5.03488 15.489 5.03488C15.4868 5.03488 15.4845 5.03488 15.4823 5.03488C15.48 5.03488 15.4778 5.03488 15.4755 5.03488C15.4733 5.03488 15.471 5.03488 15.4688 5.03488C15.4665 5.03488 15.4643 5.03488 15.462 5.03488C15.4598 5.03488 15.4575 5.03488 15.4553 5.03488C15.4531 5.03488 15.4508 5.03488 15.4486 5.03488C15.4463 5.03488 15.4441 5.03488 15.4418 5.03488C15.4396 5.03488 15.4373 5.03488 15.4351 5.03488C15.4328 5.03488 15.4306 5.03488 15.4283 5.03488C15.4261 5.03488 15.4239 5.03488 15.4216 5.03488C15.4194 5.03488 15.4171 5.03488 15.4149 5.03488C15.4126 5.03488 15.4104 5.03488 15.4081 5.03488C15.4059 5.03488 15.4037 5.03488 15.4014 5.03488C15.3992 5.03488 15.3969 5.03488 15.3947 5.03488C15.3924 5.03488 15.3902 5.03488 15.388 5.03488C15.3857 5.03488 15.3835 5.03488 15.3812 5.03488C15.379 5.03488 15.3767 5.03488 15.3745 5.03488C15.3723 5.03488 15.37 5.03488 15.3678 5.03488C15.3655 5.03488 15.3633 5.03488 15.361 5.03488C15.3588 5.03488 15.3566 5.03488 15.3543 5.03488C15.3521 5.03488 15.3498 5.03488 15.3476 5.03488C15.3454 5.03488 15.3431 5.03488 15.3409 5.03488C15.3386 5.03488 15.3364 5.03488 15.3342 5.03488C15.3319 5.03488 15.3297 5.03488 15.3274 5.03488C15.3252 5.03488 15.3229 5.03488 15.3207 5.03488C15.3185 5.03488 15.3162 5.03488 15.314 5.03488C15.3117 5.03488 15.3095 5.03488 15.3073 5.03488C15.305 5.03488 15.3028 5.03488 15.3005 5.03488C15.2983 5.03488 15.2961 5.03488 15.2938 5.03488C15.2916 5.03488 15.2894 5.03488 15.2871 5.03488C15.2849 5.03488 15.2826 5.03488 15.2804 5.03488C15.2782 5.03488 15.2759 5.03488 15.2737 5.03488C15.2714 5.03488 15.2692 5.03488 15.267 5.03488C15.2647 5.03488 15.2625 5.03488 15.2603 5.03488C15.258 5.03488 15.2558 5.03488 15.2535 5.03488C15.2513 5.03488 15.2491 5.03488 15.2468 5.03488C15.2446 5.03488 15.2423 5.03488 15.2401 5.03488C15.2379 5.03488 15.2356 5.03488 15.2334 5.03488C15.2312 5.03488 15.2289 5.03488 15.2267 5.03488C15.2244 5.03488 15.2222 5.03488 15.22 5.03488C15.2177 5.03488 15.2155 5.03488 15.2133 5.03488C15.211 5.03488 15.2088 5.03488 15.2066 5.03488C15.2043 5.03488 15.2021 5.03488 15.1998 5.03488C15.1976 5.03488 15.1954 5.03488 15.1931 5.03488C15.1909 5.03488 15.1887 5.03488 15.1864 5.03488C15.1842 5.03488 15.182 5.03488 15.1797 5.03488C15.1775 5.03488 15.1752 5.03488 15.173 5.03488C15.1708 5.03488 15.1685 5.03488 15.1663 5.03488C15.1641 5.03488 15.1618 5.03488 15.1596 5.03488C15.1574 5.03488 15.1551 5.03488 15.1529 5.03488C15.1506 5.03488 15.1484 5.03488 15.1462 5.03488C15.1439 5.03488 15.1417 5.03488 15.1395 5.03488C15.1372 5.03488 15.135 5.03488 15.1328 5.03488C15.1305 5.03488 15.1283 5.03488 15.1261 5.03488C15.1238 5.03488 15.1216 5.03488 15.1194 5.03488C15.1171 5.03488 15.1149 5.03488 15.1126 5.03488C15.1104 5.03488 15.1082 5.03488 15.1059 5.03488C15.1037 5.03488 15.1015 5.03488 15.0992 5.03488C15.097 5.03488 15.0948 5.03488 15.0925 5.03488C15.0903 5.03488 15.0881 5.03488 15.0858 5.03488C15.0836 5.03488 15.0814 5.03488 15.0791 5.03488C15.0769 5.03488 15.0747 5.03488 15.0724 5.03488C15.0702 5.03488 15.0679 5.03488 15.0657 5.03488C15.0635 5.03488 15.0612 5.03488 15.059 5.03488C15.0568 5.03488 15.0545 5.03488 15.0523 5.03488C15.0501 5.03488 15.0478 5.03488 15.0456 5.03488C15.0434 5.03488 15.0411 5.03488 15.0389 5.03488C15.0367 5.03488 15.0344 5.03488 15.0322 5.03488C15.03 5.03488 15.0277 5.03488 15.0255 5.03488C15.0233 5.03488 15.021 5.03488 15.0188 5.03488C15.0165 5.03488 15.0143 5.03488 15.0121 5.03488C15.0098 5.03488 15.0076 5.03488 15.0054 5.03488C15.0031 5.03488 15.0009 5.03488 14.9987 5.03488C14.9964 5.03488 14.9942 5.03488 14.992 5.03488C14.9897 5.03488 14.9875 5.03488 14.9853 5.03488C14.983 5.03488 14.9808 5.03488 14.9786 5.03488C14.9763 5.03488 14.9741 5.03488 14.9718 5.03488C14.9696 5.03488 14.9674 5.03488 14.9651 5.03488C14.9629 5.03488 14.9607 5.03488 14.9584 5.03488C14.9562 5.03488 14.954 5.03488 14.9517 5.03488C14.9495 5.03488 14.9473 5.03488 14.945 5.03488C14.9428 5.03488 14.9406 5.03488 14.9383 5.03488C14.9361 5.03488 14.9338 5.03488 14.9316 5.03488C14.9294 5.03488 14.9271 5.03488 14.9249 5.03488C14.9227 5.03488 14.9204 5.03488 14.9182 5.03488C14.916 5.03488 14.9137 5.03488 14.9115 5.03488C14.9093 5.03488 14.907 5.03488 14.9048 5.03488C14.9025 5.03488 14.9003 5.03488 14.8981 5.03488C14.8958 5.03488 14.8936 5.03488 14.8914 5.03488C14.8891 5.03488 14.8869 5.03488 14.8847 5.03488C14.8824 5.03488 14.8802 5.03488 14.8779 5.03488C14.8757 5.03488 14.8735 5.03488 14.8712 5.03488C14.869 5.03488 14.8668 5.03488 14.8645 5.03488C14.8623 5.03488 14.8601 5.03488 14.8578 5.03488C14.8556 5.03488 14.8533 5.03488 14.8511 5.03488C14.8489 5.03488 14.8466 5.03488 14.8444 5.03488C14.8422 5.03488 14.8399 5.03488 14.8377 5.03488C14.8354 5.03488 14.8332 5.03488 14.831 5.03488C14.8287 5.03488 14.8265 5.03488 14.8243 5.03488C14.822 5.03488 14.8198 5.03488 14.8175 5.03488C14.8153 5.03488 14.8131 5.03488 14.8108 5.03488C14.8086 5.03488 14.8063 5.03488 14.8041 5.03488C14.8019 5.03488 14.7996 5.03488 14.7974 5.03488C14.7952 5.03488 14.7929 5.03488 14.7907 5.03488C14.7884 5.03488 14.7862 5.03488 14.784 5.03488C14.7817 5.03488 14.7795 5.03488 14.7772 5.03488C14.775 5.03488 14.7728 5.03488 14.7705 5.03488C14.7683 5.03488 14.766 5.03488 14.7638 5.03488C14.7616 5.03488 14.7593 5.03488 14.7571 5.03488C14.7548 5.03488 14.7526 5.03488 14.7504 5.03488C14.7481 5.03488 14.7459 5.03488 14.7436 5.03488C14.7414 5.03488 14.7392 5.03488 14.7369 5.03488C14.7347 5.03488 14.7324 5.03488 14.7302 5.03488C14.728 5.03488 14.7257 5.03488 14.7235 5.03488C14.7212 5.03488 14.719 5.03488 14.7168 5.03488C14.7145 5.03488 14.7123 5.03488 14.71 5.03488C14.7078 5.03488 14.7055 5.03488 14.7033 5.03488C14.7011 5.03488 14.6988 5.03488 14.6966 5.03488C14.6943 5.03488 14.6921 5.03488 14.6898 5.03488C14.6876 5.03488 14.6854 5.03488 14.6831 5.03488C14.6809 5.03488 14.6786 5.03488 14.6764 5.03488C14.6741 5.03488 14.6719 5.03488 14.6697 5.03488C14.6674 5.03488 14.6652 5.03488 14.6629 5.03488C14.6607 5.03488 14.6584 5.03488 14.6562 5.03488C14.6539 5.03488 14.6517 5.03488 14.6495 5.03488C14.6472 5.03488 14.645 5.03488 14.6427 5.03488C14.6405 5.03488 14.6382 5.03488 14.636 5.03488C14.6337 5.03488 14.6315 5.03488 14.6292 5.03488C14.627 5.03488 14.6248 5.03488 14.6225 5.03488C14.6203 5.03488 14.618 5.03488 14.6158 5.03488C14.6135 5.03488 14.6113 5.03488 14.609 5.03488C14.6068 5.03488 14.6045 5.03488 14.6023 5.03488C14.6 5.03488 14.5978 5.03488 14.5955 5.03488C14.5933 5.03488 14.591 5.03488 14.5888 5.03488C14.5865 5.03488 14.5843 5.03488 14.582 5.03488C14.5798 5.03488 14.5776 5.03488 14.5753 5.03488C14.5731 5.03488 14.5708 5.03488 14.5686 5.03488C14.5663 5.03488 14.5641 5.03488 14.5618 5.03488C14.5596 5.03488 14.5573 5.03488 14.5551 5.03488C14.5528 5.03488 14.5506 5.03488 14.5483 5.03488C14.5461 5.03488 14.5438 5.03488 14.5415 5.03488C14.5393 5.03488 14.537 5.03488 14.5348 5.03488C14.5325 5.03488 14.5303 5.03488 14.528 5.03488C14.5258 5.03488 14.5235 5.03488 14.5213 5.03488C14.519 5.03488 14.5168 5.03488 14.5145 5.03488C14.5123 5.03488 14.51 5.03488 14.5078 5.03488C14.5055 5.03488 14.5033 5.03488 14.501 5.03488C14.4987 5.03488 14.4965 5.03488 14.4942 5.03488C14.492 5.03488 14.4897 5.03488 14.4875 5.03488C14.4852 5.03488 14.483 5.03488 14.4807 5.03488C14.4785 5.03488 14.4762 5.03488 14.4739 5.03488C14.4717 5.03488 14.4694 5.03488 14.4672 5.03488C14.4649 5.03488 14.4627 5.03488 14.4604 5.03488C14.4581 5.03488 14.4559 5.03488 14.4536 5.03488C14.4514 5.03488 14.4491 5.03488 14.4469 5.03488C14.4446 5.03488 14.4423 5.03488 14.4401 5.03488C14.4378 5.03488 14.4356 5.03488 14.4333 5.03488C14.431 5.03488 14.4288 5.03488 14.4265 5.03488C14.4243 5.03488 14.422 5.03488 14.4197 5.03488C14.4175 5.03488 14.4152 5.03488 14.413 5.03488C14.4107 5.03488 14.4084 5.03488 14.4062 5.03488C14.4039 5.03488 14.4017 5.03488 14.3994 5.03488C14.3971 5.03488 14.3949 5.03488 14.3926 5.03488C14.3903 5.03488 14.3881 5.03488 14.3858 5.03488C14.3836 5.03488 14.3813 5.03488 14.379 5.03488C14.3768 5.03488 14.3745 5.03488 14.3722 5.03488C14.37 5.03488 14.3677 5.03488 14.3654 5.03488C14.3632 5.03488 14.3609 5.03488 14.3586 5.03488C14.3564 5.03488 14.3541 5.03488 14.3518 5.03488C14.3496 5.03488 14.3473 5.03488 14.345 5.03488C14.3428 5.03488 14.3405 5.03488 14.3382 5.03488C14.336 5.03488 14.3337 5.03488 14.3314 5.03488C14.3292 5.03488 14.3269 5.03488 14.3246 5.03488C14.3224 5.03488 14.3201 5.03488 14.3178 5.03488C14.3156 5.03488 14.3133 5.03488 14.311 5.03488C14.3088 5.03488 14.3065 5.03488 14.3042 5.03488C14.3019 5.03488 14.2997 5.03488 14.2974 5.03488C14.2951 5.03488 14.2929 5.03488 14.2906 5.03488C14.2883 5.03488 14.286 5.03488 14.2838 5.03488C14.2815 5.03488 14.2792 5.03488 14.2769 5.03488C14.2747 5.03488 14.2724 5.03488 14.2701 5.03488C14.2679 5.03488 14.2656 5.03488 14.2633 5.03488C14.261 5.03488 14.2588 5.03488 14.2565 5.03488C14.2542 5.03488 14.2519 5.03488 14.2497 5.03488C14.2474 5.03488 14.2451 5.03488 14.2428 5.03488C14.2405 5.03488 14.2383 5.03488 14.236 5.03488C14.2337 5.03488 14.2314 5.03488 14.2292 5.03488C14.2269 5.03488 14.2246 5.03488 14.2223 5.03488C14.22 5.03488 14.2178 5.03488 14.2155 5.03488C14.2132 5.03488 14.2109 5.03488 14.2086 5.03488C14.2064 5.03488 14.2041 5.03488 14.2018 5.03488C14.1995 5.03488 14.1972 5.03488 14.195 5.03488C14.1927 5.03488 14.1904 5.03488 14.1881 5.03488C14.1858 5.03488 14.1835 5.03488 14.1813 5.03488C14.179 5.03488 14.1767 5.03488 14.1744 5.03488C14.1721 5.03488 14.1698 5.03488 14.1676 5.03488C14.1653 5.03488 14.163 5.03488 14.1607 5.03488C14.1584 5.03488 14.1561 5.03488 14.1538 5.03488C14.1516 5.03488 14.1493 5.03488 14.147 5.03488C14.1447 5.03488 14.1424 5.03488 14.1401 5.03488C14.1378 5.03488 14.1355 5.03488 14.1332 5.03488C14.131 5.03488 14.1287 5.03488 14.1264 5.03488C14.1241 5.03488 14.1218 5.03488 14.1195 5.03488C14.1172 5.03488 14.1149 5.03488 14.1126 5.03488C14.1103 5.03488 14.1081 5.03488 14.1058 5.03488C14.1035 5.03488 14.1012 5.03488 14.0989 5.03488C14.0966 5.03488 14.0943 5.03488 14.092 5.03488C14.0897 5.03488 14.0874 5.03488 14.0851 5.03488C14.0828 5.03488 14.0805 5.03488 14.0782 5.03488C14.0759 5.03488 14.0736 5.03488 14.0713 5.03488C14.069 5.03488 14.0667 5.03488 14.0645 5.03488C14.0622 5.03488 14.0599 5.03488 14.0576 5.03488C14.0553 5.03488 14.053 5.03488 14.0507 5.03488C14.0484 5.03488 14.0461 5.03488 14.0438 5.03488C14.0415 5.03488 14.0392 5.03488 14.0369 5.03488C14.0346 5.03488 14.0323 5.03488 14.03 5.03488C14.0277 5.03488 14.0254 5.03488 14.0231 5.03488C14.0207 5.03488 14.0184 5.03488 14.0161 5.03488C14.0138 5.03488 14.0115 5.03488 14.0092 5.03488C14.0069 5.03488 14.0046 5.03488 14.0023 5.03488C14 5.03488 13.9977 5.03488 13.9954 5.03488C13.9931 5.03488 13.9908 5.03488 13.9885 5.03488C13.9862 5.03488 13.9839 5.03488 13.9816 5.03488C13.9792 5.03488 13.9769 5.03488 13.9746 5.03488C13.9723 5.03488 13.97 5.03488 13.9677 5.03488C13.9654 5.03488 13.9631 5.03488 13.9608 5.03488C13.9585 5.03488 13.9561 5.03488 13.9538 5.03488C13.9515 5.03488 13.9492 5.03488 13.9469 5.03488C13.9446 5.03488 13.9423 5.03488 13.94 5.03488C13.9376 5.03488 13.9353 5.03488 13.933 5.03488C13.9307 5.03488 13.9284 5.03488 13.9261 5.03488C13.9237 5.03488 13.9214 5.03488 13.9191 5.03488C13.9168 5.03488 13.9145 5.03488 13.9122 5.03488C13.9098 5.03488 13.9075 5.03488 13.9052 5.03488C13.9029 5.03488 13.9006 5.03488 13.8982 5.03488C13.8959 5.03488 13.8936 5.03488 13.8913 5.03488C13.889 5.03488 13.8866 5.03488 13.8843 5.03488C13.882 5.03488 13.8797 5.03488 13.8773 5.03488C13.875 5.03488 13.8727 5.03488 13.8704 5.03488C13.8681 5.03488 13.8657 5.03488 13.8634 5.03488C13.8611 5.03488 13.8588 5.03488 13.8564 5.03488C13.8541 5.03488 13.8518 5.03488 13.8494 5.03488C13.8471 5.03488 13.8448 5.03488 13.8425 5.03488C13.8401 5.03488 13.8378 5.03488 13.8355 5.03488C13.8331 5.03488 13.8308 5.03488 13.8285 5.03488C13.8262 5.03488 13.8238 5.03488 13.8215 5.03488C13.8192 5.03488 13.8168 5.03488 13.8145 5.03488C13.8122 5.03488 13.8098 5.03488 13.8075 5.03488C13.8052 5.03488 13.8028 5.03488 13.8005 5.03488C13.7982 5.03488 13.7958 5.03488 13.7935 5.03488C13.7912 5.03488 13.7888 5.03488 13.7865 5.03488C13.7841 5.03488 13.7818 5.03488 13.7795 5.03488C13.7771 5.03488 13.7748 5.03488 13.7724 5.03488C13.7701 5.03488 13.7678 5.03488 13.7654 5.03488C13.7631 5.03488 13.7607 5.03488 13.7584 5.03488C13.7561 5.03488 13.7537 5.03488 13.7514 5.03488C13.749 5.03488 13.7467 5.03488 13.7443 5.03488C13.742 5.03488 13.7397 5.03488 13.7373 5.03488C13.735 5.03488 13.7326 5.03488 13.7303 5.03488C13.7279 5.03488 13.7256 5.03488 13.7232 5.03488C13.7209 5.03488 13.7185 5.03488 13.7162 5.03488C13.7138 5.03488 13.7115 5.03488 13.7091 5.03488C13.7068 5.03488 13.7044 5.03488 13.7021 5.03488C13.6997 5.03488 13.6974 5.03488 13.695 5.03488C13.6927 5.03488 13.6903 5.03488 13.688 5.03488C13.6856 5.03488 13.6833 5.03488 13.6809 5.03488C13.6786 5.03488 13.6762 5.03488 13.6739 5.03488C13.6715 5.03488 13.6691 5.03488 13.6668 5.03488C13.6644 5.03488 13.6621 5.03488 13.6597 5.03488C13.6574 5.03488 13.655 5.03488 13.6526 5.03488C13.6503 5.03488 13.6479 5.03488 13.6456 5.03488C13.6432 5.03488 13.6408 5.03488 13.6385 5.03488C13.6361 5.03488 13.6338 5.03488 13.6314 5.03488C13.629 5.03488 13.6267 5.03488 13.6243 5.03488C13.6219 5.03488 13.6196 5.03488 13.6172 5.03488C13.6148 5.03488 13.6125 5.03488 13.6101 5.03488C13.6077 5.03488 13.6054 5.03488 13.603 5.03488C13.6006 5.03488 13.5983 5.03488 13.5959 5.03488C13.5935 5.03488 13.5912 5.03488 13.5888 5.03488C13.5864 5.03488 13.584 5.03488 13.5817 5.03488C13.5793 5.03488 13.5769 5.03488 13.5746 5.03488C13.5722 5.03488 13.5698 5.03488 13.5674 5.03488C13.5651 5.03488 13.5627 5.03488 13.5603 5.03488C13.5579 5.03488 13.5556 5.03488 13.5532 5.03488C13.5508 5.03488 13.5484 5.03488 13.546 5.03488C13.5437 5.03488 13.5413 5.03488 13.5389 5.03488C13.5365 5.03488 13.5341 5.03488 13.5318 5.03488C13.5294 5.03488 13.527 5.03488 13.5246 5.03488C13.5222 5.03488 13.5199 5.03488 13.5175 5.03488C13.5151 5.03488 13.5127 5.03488 13.5103 5.03488C13.5079 5.03488 13.5055 5.03488 13.5032 5.03488C13.5008 5.03488 13.4984 5.03488 13.496 5.03488C13.4936 5.03488 13.4912 5.03488 13.4888 5.03488C13.4864 5.03488 13.4841 5.03488 13.4817 5.03488C13.4793 5.03488 13.4769 5.03488 13.4745 5.03488C13.4721 5.03488 13.4697 5.03488 13.4673 5.03488C13.4649 5.03488 13.4625 5.03488 13.4601 5.03488C13.4577 5.03488 13.4553 5.03488 13.4529 5.03488C13.4505 5.03488 13.4482 5.03488 13.4458 5.03488C13.4434 5.03488 13.441 5.03488 13.4386 5.03488C13.4362 5.03488 13.4338 5.03488 13.4314 5.03488C13.429 5.03488 13.4266 5.03488 13.4242 5.03488C13.4218 5.03488 13.4194 5.03488 13.417 5.03488C13.4145 5.03488 13.4121 5.03488 13.4097 5.03488C13.4073 5.03488 13.4049 5.03488 13.4025 5.03488C13.4001 5.03488 13.3977 5.03488 13.3953 5.03488C13.3929 5.03488 13.3905 5.03488 13.3881 5.03488C13.3857 5.03488 13.3833 5.03488 13.3808 5.03488C13.3784 5.03488 13.376 5.03488 13.3736 5.03488C13.3712 5.03488 13.3688 5.03488 13.3664 5.03488C13.364 5.03488 13.3616 5.03488 13.3591 5.03488C13.3567 5.03488 13.3543 5.03488 13.3519 5.03488C13.3495 5.03488 13.3471 5.03488 13.3446 5.03488C13.3422 5.03488 13.3398 5.03488 13.3374 5.03488V6.03488ZM16.872 6.03488C16.9065 6.03488 16.9955 6.03611 17.0796 6.02311C17.1261 6.01591 17.3943 5.97755 17.5284 5.71507C17.6694 5.43898 17.529 5.18889 17.4852 5.11659C17.4215 5.0113 17.3287 4.90657 17.2256 4.80342L16.5185 5.51053C16.5587 5.55074 16.5869 5.58155 16.606 5.60423C16.6259 5.62777 16.6314 5.63709 16.6297 5.63432C16.6286 5.63245 16.6239 5.62461 16.6182 5.61137C16.6125 5.59836 16.604 5.57607 16.5976 5.54583C16.5844 5.48301 16.5791 5.37517 16.6378 5.26022C16.6953 5.14769 16.7825 5.09042 16.8347 5.06509C16.8835 5.04143 16.9208 5.03578 16.9268 5.03485C16.9345 5.03366 16.93 5.03488 16.872 5.03488V6.03488ZM11.8372 4.53488C11.8372 5.36346 12.5091 6.03488 13.3374 6.03488V5.03488C13.0611 5.03488 12.8372 4.81088 12.8372 4.53488H11.8372Z" fill="#CED0D3"/>
<rect x="5.72726" y="8.09094" width="7.09091" height="1.18182" fill="#D9D9D9"/>
<rect x="5.72726" y="11.6364" width="7.09091" height="1.18182" fill="#D9D9D9"/>
<rect x="5.72726" y="15.1819" width="7.09091" height="1.18182" fill="#D9D9D9"/>
</svg>
