<svg width="607" height="150" viewBox="0 0 607 150" fill="none" xmlns="http://www.w3.org/2000/svg">
<path d="M3.25634 41.0837H604.744V145.899C604.744 148.022 603.022 149.744 600.898 149.744H7.10149C4.97788 149.744 3.25634 148.022 3.25634 145.899V41.0837Z" fill="white"/>
<path d="M3.25634 41.0837H604.744V145.899C604.744 148.022 603.022 149.744 600.898 149.744H7.10149C4.97788 149.744 3.25634 148.022 3.25634 145.899V41.0837Z" stroke="#CED0D3" stroke-width="0.512686"/>
<mask id="path-2-inside-1_957_378" fill="white">
<path d="M3 129.766H605V145.867C605 148.133 603.164 149.969 600.899 149.969H7.10149C4.8363 149.969 3 148.133 3 145.867V129.766Z"/>
</mask>
<path d="M3 129.766H605V145.867C605 148.133 603.164 149.969 600.899 149.969H7.10149C4.8363 149.969 3 148.133 3 145.867V129.766Z" fill="white"/>
<path d="M3 129.253H605V130.279H3V129.253ZM605 149.969H3H605ZM3 149.969V129.766V149.969ZM605 129.766V149.969V129.766Z" fill="#CED0D3" mask="url(#path-2-inside-1_957_378)"/>
<path d="M562.125 143.865C561.59 143.865 561.134 143.72 560.758 143.429C560.381 143.135 560.094 142.71 559.895 142.154C559.696 141.595 559.597 140.92 559.597 140.13C559.597 139.344 559.696 138.672 559.895 138.116C560.096 137.557 560.385 137.131 560.761 136.838C561.14 136.542 561.595 136.394 562.125 136.394C562.655 136.394 563.109 136.542 563.485 136.838C563.864 137.131 564.153 137.557 564.352 138.116C564.553 138.672 564.653 139.344 564.653 140.13C564.653 140.92 564.554 141.595 564.355 142.154C564.156 142.71 563.869 143.135 563.492 143.429C563.116 143.72 562.66 143.865 562.125 143.865ZM562.125 143.084C562.655 143.084 563.067 142.828 563.361 142.317C563.654 141.806 563.801 141.077 563.801 140.13C563.801 139.5 563.734 138.964 563.599 138.521C563.466 138.078 563.274 137.741 563.023 137.509C562.775 137.277 562.475 137.161 562.125 137.161C561.599 137.161 561.189 137.42 560.893 137.939C560.597 138.455 560.449 139.185 560.449 140.13C560.449 140.759 560.515 141.294 560.648 141.735C560.78 142.175 560.971 142.51 561.219 142.74C561.47 142.969 561.772 143.084 562.125 143.084ZM570.065 143.766L568.403 138.311H569.284L570.463 142.488H570.52L571.685 138.311H572.58L573.73 142.473H573.787L574.966 138.311H575.847L574.185 143.766H573.361L572.168 139.576H572.082L570.889 143.766H570.065ZM578.985 143.88C578.492 143.88 578.06 143.762 577.689 143.528C577.319 143.294 577.031 142.966 576.822 142.544C576.616 142.123 576.513 141.631 576.513 141.067C576.513 140.499 576.616 140.003 576.822 139.579C577.031 139.155 577.319 138.826 577.689 138.592C578.06 138.358 578.492 138.24 578.985 138.24C579.477 138.24 579.908 138.358 580.278 138.592C580.649 138.826 580.938 139.155 581.144 139.579C581.352 140.003 581.456 140.499 581.456 141.067C581.456 141.631 581.352 142.123 581.144 142.544C580.938 142.966 580.649 143.294 580.278 143.528C579.908 143.762 579.477 143.88 578.985 143.88ZM578.985 143.127C579.359 143.127 579.667 143.031 579.908 142.839C580.15 142.647 580.328 142.395 580.444 142.083C580.56 141.77 580.618 141.432 580.618 141.067C580.618 140.703 580.56 140.363 580.444 140.048C580.328 139.733 580.15 139.479 579.908 139.284C579.667 139.09 579.359 138.993 578.985 138.993C578.611 138.993 578.303 139.09 578.062 139.284C577.82 139.479 577.641 139.733 577.525 140.048C577.409 140.363 577.351 140.703 577.351 141.067C577.351 141.432 577.409 141.77 577.525 142.083C577.641 142.395 577.82 142.647 578.062 142.839C578.303 143.031 578.611 143.127 578.985 143.127ZM582.736 143.766V138.311H583.545V139.135H583.602C583.702 138.865 583.882 138.646 584.142 138.478C584.402 138.31 584.696 138.226 585.023 138.226C585.084 138.226 585.161 138.227 585.254 138.23C585.346 138.232 585.416 138.236 585.463 138.24V139.093C585.435 139.086 585.37 139.075 585.268 139.061C585.168 139.044 585.063 139.036 584.952 139.036C584.687 139.036 584.45 139.092 584.241 139.203C584.036 139.312 583.872 139.463 583.751 139.657C583.633 139.849 583.574 140.068 583.574 140.314V143.766H582.736ZM588.35 143.88C587.896 143.88 587.494 143.765 587.146 143.535C586.798 143.303 586.526 142.976 586.33 142.555C586.133 142.131 586.035 141.631 586.035 141.053C586.035 140.48 586.133 139.983 586.33 139.561C586.526 139.14 586.799 138.815 587.15 138.585C587.5 138.355 587.905 138.24 588.364 138.24C588.719 138.24 589 138.3 589.206 138.418C589.414 138.534 589.573 138.667 589.682 138.816C589.793 138.962 589.879 139.083 589.941 139.178H590.012V136.493H590.85V143.766H590.04V142.928H589.941C589.879 143.027 589.792 143.153 589.678 143.304C589.565 143.453 589.402 143.587 589.192 143.706C588.981 143.822 588.701 143.88 588.35 143.88ZM588.464 143.127C588.8 143.127 589.084 143.039 589.316 142.864C589.548 142.686 589.724 142.441 589.845 142.129C589.966 141.814 590.026 141.451 590.026 141.039C590.026 140.632 589.967 140.275 589.849 139.97C589.73 139.662 589.555 139.423 589.323 139.252C589.091 139.08 588.805 138.993 588.464 138.993C588.109 138.993 587.813 139.084 587.576 139.267C587.342 139.447 587.165 139.692 587.047 140.002C586.931 140.31 586.873 140.655 586.873 141.039C586.873 141.427 586.932 141.78 587.05 142.097C587.171 142.412 587.349 142.663 587.583 142.85C587.82 143.034 588.113 143.127 588.464 143.127ZM596.365 139.533L595.612 139.746C595.565 139.621 595.495 139.499 595.403 139.38C595.313 139.26 595.19 139.16 595.033 139.082C594.877 139.004 594.677 138.965 594.433 138.965C594.099 138.965 593.821 139.042 593.599 139.196C593.379 139.347 593.268 139.54 593.268 139.775C593.268 139.983 593.344 140.147 593.496 140.268C593.647 140.389 593.884 140.489 594.206 140.57L595.016 140.769C595.503 140.887 595.867 141.068 596.106 141.312C596.345 141.554 596.464 141.865 596.464 142.246C596.464 142.559 596.375 142.838 596.195 143.084C596.017 143.33 595.768 143.525 595.449 143.667C595.129 143.809 594.758 143.88 594.334 143.88C593.777 143.88 593.317 143.759 592.952 143.517C592.588 143.276 592.357 142.923 592.26 142.459L593.055 142.26C593.131 142.554 593.274 142.774 593.485 142.921C593.698 143.068 593.976 143.141 594.32 143.141C594.71 143.141 595.02 143.058 595.25 142.892C595.482 142.724 595.598 142.523 595.598 142.289C595.598 142.099 595.532 141.941 595.399 141.813C595.267 141.683 595.063 141.586 594.788 141.522L593.879 141.309C593.38 141.19 593.013 141.007 592.778 140.758C592.546 140.507 592.43 140.194 592.43 139.817C592.43 139.509 592.517 139.237 592.69 139C592.865 138.764 593.103 138.578 593.403 138.443C593.706 138.308 594.05 138.24 594.433 138.24C594.973 138.24 595.397 138.359 595.705 138.596C596.015 138.832 596.235 139.145 596.365 139.533Z" fill="#6C7180"/>
<g>
<path d="M3 6.10148C3 3.83629 4.8363 2 7.10148 2H600.899C603.164 2 605 3.8363 605 6.10148V42.0633H3V6.10148Z" fill="white"/>
<path d="M7.10148 2.25634H600.898C603.022 2.25634 604.744 3.97787 604.744 6.10148V41.807H3.25634V6.10148C3.25634 3.97787 4.97787 2.25634 7.10148 2.25634Z" stroke="#CED0D3" stroke-width="0.512686"/>
<path d="M20.944 19.6093C20.944 18.4634 19.8981 17.4175 18.7522 17.4175H14.4072V26.6459H19.1368C20.2826 26.6459 21.3285 25.6 21.3285 24.4542V23.4544C21.3285 22.8277 21.017 22.2317 20.5441 21.8164C20.794 21.4626 20.944 21.0435 20.944 20.609V19.6093ZM15.9453 18.9556H18.7522C19.056 18.9556 19.4059 19.3055 19.4059 19.6093V20.609C19.4059 20.9128 19.056 21.2627 18.7522 21.2627H15.9453V18.9556V18.9556ZM19.7904 24.4542C19.7904 24.7579 19.4405 25.1078 19.1368 25.1078H15.9453V22.8007H19.1368C19.4405 22.8007 19.7904 23.1506 19.7904 23.4544V24.4542Z" fill="black"/>
<path d="M39.4008 18.1866V17.4175H34.0176V18.1866H36.2862L35.5902 25.8769H33.2485V26.6459H38.6317V25.8769H36.3631L37.0591 18.1866H39.4008Z" fill="black"/>
<path d="M54.3971 24.9155H55.1662C56.228 24.9155 57.0887 24.0547 57.0887 22.9929V17.802H56.3197V22.9929C56.3197 23.63 55.8032 24.1465 55.1662 24.1465H54.3971C53.7601 24.1465 53.2436 23.63 53.2436 22.9929L53.2436 17.802H52.4746V22.9929C52.4746 24.0547 53.3353 24.9155 54.3971 24.9155Z" fill="black"/>
<path d="M59.3958 25.8768H50.1675V26.6458H59.3958V25.8768Z" fill="black"/>
<path d="M71.7001 18.7398C71.7001 18.5597 71.7703 18.4372 71.8838 18.3499C72.0073 18.2547 72.2046 18.1867 72.4614 18.1866L75.5431 18.2037L75.5474 17.4347L72.4646 17.4175H72.4625C72.0801 17.4175 71.7043 17.5174 71.4146 17.7406C71.1145 17.9716 70.9311 18.318 70.9311 18.7398V20.286C70.9311 20.86 71.2503 21.3829 71.753 21.6472H68.624V22.4162H73.4965L74.6805 22.9356C74.9564 23.0567 75.1362 23.3277 75.1405 23.6289L75.1608 25.0576C75.1599 25.2243 75.0661 25.4296 74.8808 25.604C74.6962 25.7777 74.4661 25.8768 74.2636 25.8768H70.5466V26.6458H74.2636C74.7007 26.6458 75.1115 26.4429 75.4078 26.1641C75.7026 25.8867 75.9298 25.4902 75.9298 25.0553V25.0526L75.9094 23.618C75.9026 23.1391 75.6741 22.6985 75.3035 22.4162H77.8524V21.6472H73.6578L72.1602 20.9903C71.8807 20.8676 71.7001 20.5913 71.7001 20.286V18.7398Z" fill="black"/>
<path fill-rule="evenodd" clip-rule="evenodd" d="M97.334 19.7246C97.334 19.2999 97.6783 18.9556 98.103 18.9556H100.41C100.835 18.9556 101.179 19.2999 101.179 19.7246V22.5444C101.179 22.7108 101.125 22.8727 101.025 23.0058L99.5642 24.954C99.3425 25.2496 98.872 25.0928 98.872 24.7233V22.8007H98.103C97.6783 22.8007 97.334 22.4564 97.334 22.0317V19.7246ZM100.41 22.5444L99.6411 23.5697V22.0317H98.103V19.7246H100.41V22.5444Z" fill="black"/>
<path fill-rule="evenodd" clip-rule="evenodd" d="M102.717 19.7246C102.717 19.2999 103.061 18.9556 103.486 18.9556H105.793C106.218 18.9556 106.562 19.2999 106.562 19.7246V22.5444C106.562 22.7108 106.508 22.8727 106.409 23.0058L104.947 24.954C104.726 25.2496 104.255 25.0928 104.255 24.7233V22.8007H103.486C103.061 22.8007 102.717 22.4564 102.717 22.0317V19.7246ZM105.793 22.5444L105.024 23.5697V22.0317H103.486V19.7246H105.793V22.5444Z" fill="black"/>
<path fill-rule="evenodd" clip-rule="evenodd" d="M118.036 24.8054C118.223 24.6256 118.228 24.3339 118.048 24.1476L116.351 22.5103L118.045 20.8757L118.048 20.8731C118.228 20.6868 118.223 20.3951 118.036 20.2152C117.852 20.0372 117.555 20.0322 117.365 20.2037L115.32 22.1756C115.129 22.3601 115.13 22.6606 115.321 22.8451L117.362 24.8145L117.365 24.817C117.555 24.9884 117.852 24.9835 118.036 24.8054ZM117.766 24.8333C117.65 24.8545 117.526 24.8238 117.433 24.7407L115.392 22.7713C115.242 22.6271 115.242 22.3935 115.392 22.2494L117.433 20.28C117.487 20.2318 117.551 20.2012 117.618 20.1882C117.551 20.2012 117.487 20.2318 117.433 20.28L115.392 22.2494C115.242 22.3936 115.242 22.6271 115.392 22.7713L117.433 24.7407C117.526 24.8238 117.65 24.8545 117.766 24.8333ZM124.46 22.5103L122.766 24.145L122.763 24.1476C122.583 24.3339 122.589 24.6256 122.775 24.8054C122.96 24.9835 123.256 24.9885 123.447 24.817L125.491 22.845C125.682 22.6606 125.682 22.3601 125.491 22.1756L123.449 20.2061L123.446 20.2037C123.256 20.0323 122.96 20.0372 122.775 20.2152C122.589 20.3951 122.583 20.6868 122.763 20.8732L124.46 22.5103ZM122.837 24.2188L124.608 22.5103L122.837 20.8019C122.696 20.6564 122.701 20.4296 122.846 20.289C122.902 20.2357 122.97 20.2021 123.041 20.1882C122.97 20.2021 122.902 20.2357 122.846 20.289C122.701 20.4296 122.696 20.6564 122.837 20.8019L124.608 22.5103L122.837 24.2188C122.696 24.3643 122.701 24.591 122.846 24.7316C122.939 24.8212 123.068 24.8553 123.189 24.8333C123.068 24.8553 122.939 24.8212 122.846 24.7316C122.701 24.591 122.696 24.3643 122.837 24.2188ZM119.454 17.6908C119.366 17.4438 119.093 17.3154 118.846 17.404C118.599 17.4927 118.471 17.7648 118.56 18.0119L121.66 26.6525C121.749 26.8995 122.021 27.028 122.268 26.9393C122.515 26.8506 122.644 26.5785 122.555 26.3314L119.454 17.6908ZM118.938 17.485C118.919 17.4886 118.9 17.4938 118.881 17.5005C118.687 17.5701 118.587 17.7835 118.656 17.9773L121.757 26.6179C121.818 26.7874 121.989 26.8857 122.16 26.861C121.989 26.8857 121.818 26.7874 121.757 26.6179L118.656 17.9772C118.587 17.7835 118.687 17.5701 118.881 17.5005C118.9 17.4938 118.919 17.4886 118.938 17.485Z" fill="black"/>
<path d="M144.501 17.4175H145.463C145.782 17.4175 146.04 17.6752 146.04 17.9943V21.2627H145.27V18.1866H144.501V17.4175Z" fill="black"/>
<path d="M146.809 24.3388C146.809 24.7618 146.462 25.1078 146.04 25.1078H145.27V25.8769H146.809V26.6459H145.27C144.848 26.6459 144.501 26.2998 144.501 25.8769V25.1078C144.501 24.6849 144.848 24.3388 145.27 24.3388H146.04V23.5698H144.501V22.8007H146.04C146.462 22.8007 146.809 23.1468 146.809 23.5698V24.3388Z" fill="black"/>
<path d="M148.347 18.9556H153.73V19.7246H148.347V18.9556Z" fill="black"/>
<path d="M153.73 24.3388H148.347V25.1078H153.73V24.3388Z" fill="black"/>
<path d="M165.265 18.1865H172.186V18.9556H165.265V18.1865Z" fill="black"/>
<path d="M165.265 21.6472H172.186V22.4162H165.265V21.6472Z" fill="black"/>
<path d="M172.186 25.1078H165.265V25.8768H172.186V25.1078Z" fill="black"/>
<path d="M162.958 21.6472H163.727V22.4162H162.958V21.6472Z" fill="black"/>
<path d="M163.727 18.1865H162.958V18.9556H163.727V18.1865Z" fill="black"/>
<path d="M162.958 25.1078H163.727V25.8768H162.958V25.1078Z" fill="black"/>
<path d="M195.514 18.1866V26.6459H194.745V18.1866H191.668V17.4175H198.59V18.1866H195.514Z" fill="black"/>
<path d="M200.897 23.9543C200.897 24.3772 200.551 24.7233 200.128 24.7233H198.974V25.8769H200.897V26.6459H198.974C198.551 26.6459 198.205 26.2998 198.205 25.8769V24.7233C198.205 24.3003 198.551 23.9543 198.974 23.9543H200.128V22.8007H198.205V22.0317H200.128C200.551 22.0317 200.897 22.3778 200.897 22.8007V23.9543Z" fill="black"/>
<g clip-path="url(#clip0_957_378)">
<path d="M217.431 16.6485H219.353C219.776 16.6485 220.122 16.9946 220.122 17.4175V18.5711C220.122 18.994 219.776 19.3401 219.353 19.3401H218.2V20.4936H220.122V21.2627H218.2C217.777 21.2627 217.431 20.9166 217.431 20.4936V19.3401C217.431 18.9171 217.777 18.5711 218.2 18.5711H219.353V17.4175H217.431V16.6485Z" fill="black"/>
<path d="M213.201 26.6459H212.432V18.1866H209.356V17.4175H216.277V18.1866H213.201V26.6459Z" fill="black"/>
</g>
<path d="M242.681 18.1865H243.45V25.8768H242.681V18.1865Z" fill="black"/>
<path d="M246.637 20.2206L247.183 20.7666L246.299 21.6472H248.833V22.4162H246.299L247.183 23.2967L246.637 23.8427L244.83 22.0317L246.637 20.2206Z" fill="black"/>
<path d="M241.912 20.4936H238.066V21.2626H241.912V20.4936Z" fill="black"/>
<path d="M238.066 22.8007H240.373V23.5697H238.066V22.8007Z" fill="black"/>
<path d="M240.373 18.1865H238.066V18.9556H240.373V18.1865Z" fill="black"/>
<path d="M238.066 25.1078H241.912V25.8768H238.066V25.1078Z" fill="black"/>
<path d="M261.906 18.1865H262.675V25.8768H261.906V18.1865Z" fill="black"/>
<path d="M263.444 20.4936H267.29V21.2626H263.444V20.4936Z" fill="black"/>
<path d="M263.444 22.8007H265.752V23.5697H263.444V22.8007Z" fill="black"/>
<path d="M267.29 25.1078H263.444V25.8768H267.29V25.1078Z" fill="black"/>
<path d="M258.173 23.2967L258.719 23.8427L260.526 22.0317L258.719 20.2206L258.173 20.7666L259.057 21.6472H256.523V22.4162H259.057L258.173 23.2967Z" fill="black"/>
<path d="M263.444 18.1865H265.752V18.9556H263.444V18.1865Z" fill="black"/>
<path d="M293.693 19.2119H293.436V19.4682V25.1078C293.436 25.2494 293.322 25.3641 293.18 25.3641C293.038 25.3641 292.924 25.2494 292.924 25.1078V19.4682V19.2119H292.667H291.642H291.386V19.4682V25.1078C291.386 25.2494 291.271 25.3641 291.129 25.3641C290.988 25.3641 290.873 25.2494 290.873 25.1078V22.0317V21.7753H290.617C290.405 21.7753 290.208 21.7342 290.023 21.6528L290.023 21.6527L290.018 21.6507C289.829 21.5724 289.667 21.4641 289.528 21.3257C289.39 21.1873 289.282 21.0248 289.203 20.836L289.203 20.836L289.201 20.8312C289.12 20.6456 289.079 20.4485 289.079 20.2373C289.079 20.0261 289.12 19.829 289.201 19.6434L289.201 19.6434L289.203 19.6385C289.282 19.4497 289.39 19.2872 289.528 19.1488C289.667 19.0104 289.829 18.9021 290.018 18.8239L290.018 18.8239L290.023 18.8218C290.208 18.7403 290.405 18.6992 290.617 18.6992H294.205C294.347 18.6992 294.462 18.814 294.462 18.9556C294.462 19.0971 294.347 19.2119 294.205 19.2119H293.693ZM288.297 23.783L288.617 23.5697L288.297 23.3564L287.398 22.7576C287.281 22.6791 287.249 22.52 287.327 22.4022C287.406 22.2844 287.565 22.2525 287.683 22.3311L289.221 23.3564C289.373 23.4579 289.373 23.6816 289.221 23.783L287.683 24.8084C287.565 24.8869 287.406 24.8551 287.327 24.7373C287.249 24.6195 287.281 24.4603 287.398 24.3818L288.297 23.783Z" fill="black" stroke="black" stroke-width="0.512686"/>
<path fill-rule="evenodd" clip-rule="evenodd" d="M321.211 23.662L320.757 22.0317H317.808L317.401 23.6505L316.655 23.462L318.047 17.902C318.135 17.6059 318.393 17.4136 318.685 17.4136H319.773C320.061 17.4136 320.315 17.5982 320.404 17.8712L321.953 23.4544L321.211 23.662ZM319.688 18.1865H318.758L317.989 21.2626H320.542L319.688 18.1865Z" fill="black"/>
<path fill-rule="evenodd" clip-rule="evenodd" d="M315.29 24.3387H323.364C323.684 24.3387 323.941 24.5964 323.941 24.9155V26.0691C323.941 26.3882 323.684 26.6458 323.364 26.6458H315.29C314.971 26.6458 314.713 26.3882 314.713 26.0691V24.9155C314.713 24.5964 314.971 24.3387 315.29 24.3387ZM315.482 25.8768H323.172V25.1078H315.482V25.8768Z" fill="black"/>
<path fill-rule="evenodd" clip-rule="evenodd" d="M337.138 18.9556H338.234C338.522 18.9556 338.776 19.1402 338.864 19.4132L340.414 24.9963L339.672 25.204L339.218 23.5736H336.261L335.854 25.1924L335.108 25.004L336.5 19.4439C336.588 19.1479 336.846 18.9556 337.138 18.9556ZM337.219 19.7246L336.45 22.8007H338.999L338.145 19.7246H337.219Z" fill="black"/>
<path fill-rule="evenodd" clip-rule="evenodd" d="M333.939 17.4175H341.629C342.052 17.4175 342.398 17.7636 342.398 18.1866V25.8769C342.398 26.2998 342.052 26.6459 341.629 26.6459H333.939C333.516 26.6459 333.17 26.2998 333.17 25.8769V18.1866C333.17 17.7636 333.516 17.4175 333.939 17.4175ZM333.939 18.1866V25.8769H341.629V18.1866H333.939Z" fill="black"/>
<rect x="358.547" y="13.288" width="90.9694" height="17.4873" rx="1.7944" fill="#F8F8F8"/>
<rect x="358.547" y="13.288" width="90.9694" height="17.4873" rx="1.7944" stroke="#CED0D3" stroke-width="0.512686"/>
<path d="M369.305 24.3725C369.305 25.2521 368.986 25.9379 368.348 26.4301C367.71 26.9223 366.844 27.1684 365.75 27.1684C364.565 27.1684 363.654 27.0157 363.016 26.7104V25.5893C363.426 25.7625 363.872 25.8992 364.355 25.9995C364.839 26.0997 365.317 26.1498 365.791 26.1498C366.566 26.1498 367.149 26.004 367.541 25.7123C367.933 25.4161 368.129 25.006 368.129 24.4819C368.129 24.1355 368.058 23.853 367.917 23.6342C367.78 23.4109 367.548 23.2058 367.22 23.019C366.896 22.8321 366.402 22.6202 365.736 22.3832C364.807 22.0506 364.141 21.6564 363.74 21.2006C363.344 20.7449 363.146 20.1502 363.146 19.4164C363.146 18.6463 363.435 18.0333 364.014 17.5776C364.592 17.1218 365.358 16.894 366.311 16.894C367.304 16.894 368.218 17.0763 369.052 17.4409L368.689 18.4526C367.865 18.1062 367.062 17.933 366.283 17.933C365.668 17.933 365.187 18.0652 364.841 18.3295C364.494 18.5939 364.321 18.9607 364.321 19.4301C364.321 19.7765 364.385 20.0613 364.513 20.2846C364.64 20.5034 364.854 20.7062 365.155 20.893C365.461 21.0753 365.925 21.2781 366.55 21.5014C367.598 21.8751 368.318 22.2761 368.71 22.7045C369.106 23.1329 369.305 23.6889 369.305 24.3725ZM375.785 27.0317L375.56 25.9653H375.505C375.131 26.4347 374.757 26.7537 374.384 26.9223C374.015 27.0864 373.552 27.1684 372.996 27.1684C372.253 27.1684 371.67 26.977 371.246 26.5942C370.827 26.2114 370.617 25.6668 370.617 24.9604C370.617 23.4474 371.827 22.6544 374.247 22.5815L375.519 22.5405V22.0756C375.519 21.4877 375.391 21.0548 375.136 20.7768C374.885 20.4942 374.482 20.353 373.926 20.353C373.301 20.353 372.595 20.5444 371.807 20.9272L371.458 20.059C371.827 19.8585 372.23 19.7013 372.668 19.5873C373.11 19.4734 373.552 19.4164 373.994 19.4164C374.887 19.4164 375.548 19.6147 375.977 20.0112C376.41 20.4077 376.626 21.0434 376.626 21.9184V27.0317H375.785ZM373.222 26.2319C373.928 26.2319 374.482 26.0382 374.883 25.6508C375.288 25.2634 375.491 24.7211 375.491 24.0239V23.3471L374.356 23.395C373.454 23.4269 372.802 23.5681 372.401 23.8188C372.005 24.0649 371.807 24.45 371.807 24.9741C371.807 25.3842 371.93 25.6964 372.176 25.9106C372.426 26.1248 372.775 26.2319 373.222 26.2319ZM384.098 27.0317V22.185C384.098 21.5743 383.959 21.1186 383.681 20.8178C383.403 20.517 382.967 20.3666 382.375 20.3666C381.591 20.3666 381.017 20.5786 380.652 21.0024C380.288 21.4262 380.105 22.1258 380.105 23.101V27.0317H378.971V19.5395H379.894L380.078 20.5649H380.133C380.365 20.1957 380.691 19.9109 381.11 19.7104C381.53 19.5053 381.997 19.4028 382.512 19.4028C383.414 19.4028 384.093 19.6215 384.549 20.059C385.005 20.492 385.232 21.187 385.232 22.144V27.0317H384.098ZM392.403 24.9877C392.403 25.685 392.144 26.2228 391.624 26.601C391.104 26.9793 390.375 27.1684 389.437 27.1684C388.443 27.1684 387.668 27.0112 387.112 26.6967V25.644C387.472 25.8263 387.857 25.9698 388.268 26.0746C388.682 26.1795 389.081 26.2319 389.464 26.2319C390.056 26.2319 390.512 26.1384 390.831 25.9516C391.15 25.7602 391.31 25.4708 391.31 25.0834C391.31 24.7918 391.182 24.5434 390.927 24.3383C390.676 24.1287 390.184 23.8826 389.45 23.6C388.753 23.3403 388.256 23.1147 387.96 22.9233C387.668 22.7273 387.45 22.5063 387.304 22.2602C387.162 22.0141 387.092 21.7202 387.092 21.3784C387.092 20.7677 387.34 20.2869 387.837 19.936C388.334 19.5805 389.015 19.4028 389.881 19.4028C390.687 19.4028 391.476 19.5668 392.246 19.895L391.843 20.8178C391.091 20.5079 390.41 20.353 389.799 20.353C389.261 20.353 388.855 20.4373 388.582 20.6059C388.309 20.7745 388.172 21.0069 388.172 21.3032C388.172 21.5037 388.222 21.6746 388.322 21.8159C388.427 21.9571 388.593 22.0916 388.821 22.2192C389.049 22.3468 389.487 22.5314 390.134 22.7729C391.022 23.0965 391.622 23.4223 391.932 23.7504C392.246 24.0786 392.403 24.491 392.403 24.9877ZM403.703 24.3725C403.703 25.2521 403.384 25.9379 402.746 26.4301C402.108 26.9223 401.242 27.1684 400.148 27.1684C398.964 27.1684 398.052 27.0157 397.414 26.7104V25.5893C397.824 25.7625 398.271 25.8992 398.754 25.9995C399.237 26.0997 399.715 26.1498 400.189 26.1498C400.964 26.1498 401.548 26.004 401.939 25.7123C402.331 25.4161 402.527 25.006 402.527 24.4819C402.527 24.1355 402.457 23.853 402.315 23.6342C402.179 23.4109 401.946 23.2058 401.618 23.019C401.295 22.8321 400.8 22.6202 400.135 22.3832C399.205 22.0506 398.54 21.6564 398.139 21.2006C397.742 20.7449 397.544 20.1502 397.544 19.4164C397.544 18.6463 397.833 18.0333 398.412 17.5776C398.991 17.1218 399.757 16.894 400.709 16.894C401.702 16.894 402.616 17.0763 403.45 17.4409L403.088 18.4526C402.263 18.1062 401.461 17.933 400.682 17.933C400.066 17.933 399.586 18.0652 399.239 18.3295C398.893 18.5939 398.72 18.9607 398.72 19.4301C398.72 19.7765 398.784 20.0613 398.911 20.2846C399.039 20.5034 399.253 20.7062 399.554 20.893C399.859 21.0753 400.324 21.2781 400.948 21.5014C401.996 21.8751 402.716 22.2761 403.108 22.7045C403.505 23.1329 403.703 23.6889 403.703 24.3725ZM408.741 27.1684C407.634 27.1684 406.759 26.8312 406.116 26.1567C405.478 25.4822 405.159 24.5457 405.159 23.3471C405.159 22.1394 405.455 21.1801 406.048 20.4692C406.645 19.7582 407.445 19.4028 408.447 19.4028C409.386 19.4028 410.129 19.7127 410.676 20.3325C411.223 20.9477 411.496 21.7612 411.496 22.7729V23.4907H406.335C406.358 24.3702 406.579 25.0379 406.998 25.4936C407.422 25.9493 408.017 26.1772 408.782 26.1772C409.589 26.1772 410.386 26.0086 411.175 25.6713V26.683C410.774 26.8562 410.393 26.9793 410.033 27.0522C409.678 27.1297 409.247 27.1684 408.741 27.1684ZM408.434 20.353C407.832 20.353 407.351 20.5489 406.991 20.9409C406.636 21.3328 406.426 21.8751 406.362 22.5678H410.279C410.279 21.8523 410.12 21.3054 409.801 20.9272C409.482 20.5444 409.026 20.353 408.434 20.353ZM416.855 19.4028C417.188 19.4028 417.487 19.4301 417.751 19.4848L417.594 20.5375C417.284 20.4692 417.01 20.435 416.773 20.435C416.167 20.435 415.648 20.6811 415.215 21.1733C414.786 21.6655 414.572 22.2784 414.572 23.0121V27.0317H413.437V19.5395H414.374L414.504 20.9272H414.559C414.837 20.4396 415.172 20.0636 415.563 19.7993C415.955 19.5349 416.386 19.4028 416.855 19.4028ZM420.287 27.0317H419.152V19.5395H420.287V27.0317ZM419.057 17.5092C419.057 17.2495 419.12 17.0603 419.248 16.9418C419.376 16.8188 419.535 16.7573 419.727 16.7573C419.909 16.7573 420.066 16.8188 420.198 16.9418C420.33 17.0649 420.396 17.254 420.396 17.5092C420.396 17.7644 420.33 17.9558 420.198 18.0834C420.066 18.2065 419.909 18.268 419.727 18.268C419.535 18.268 419.376 18.2065 419.248 18.0834C419.12 17.9558 419.057 17.7644 419.057 17.5092ZM426.07 20.4213H424.163V27.0317H423.028V20.4213H421.688V19.9086L423.028 19.4985V19.0815C423.028 17.2403 423.833 16.3198 425.441 16.3198C425.838 16.3198 426.303 16.3995 426.836 16.559L426.542 17.4682C426.104 17.3269 425.731 17.2563 425.421 17.2563C424.993 17.2563 424.676 17.3998 424.471 17.687C424.266 17.9695 424.163 18.4252 424.163 19.0541V19.5395H426.07V20.4213Z" fill="#2F3646"/>
<path d="M441.672 23.1779L439.219 20.725C439.185 20.6916 439.185 20.6375 439.219 20.6041C439.252 20.5708 439.306 20.5708 439.339 20.6041L441.49 22.755L441.672 22.9362L441.853 22.755L444.004 20.6041C444.037 20.5708 444.091 20.5708 444.125 20.6041C444.158 20.6375 444.158 20.6916 444.125 20.725L441.672 23.1779Z" fill="#90969E" stroke="#90969E" stroke-width="0.512686"/>
<path d="M466.051 18.1865H472.203V18.9556H466.051V18.1865Z" fill="black"/>
<path d="M466.051 20.4936H474.51V21.2626H466.051V20.4936Z" fill="black"/>
<path d="M474.51 25.1078H466.051V25.8768H474.51V25.1078Z" fill="black"/>
<path d="M466.051 22.8007H472.203V23.5697H466.051V22.8007Z" fill="black"/>
<path fill-rule="evenodd" clip-rule="evenodd" d="M499.631 18.9555C499.63 18.9922 499.625 19.0292 499.615 19.0662L499.615 19.0674L498.274 24.2117C498.215 24.4375 498.011 24.5951 497.778 24.5951H497.641C497.414 24.5951 497.23 24.4109 497.23 24.1838C497.23 24.1486 497.234 24.1137 497.243 24.0797L498.583 18.9555H496.94C496.657 18.9555 496.428 18.726 496.428 18.4429C496.428 18.1597 496.657 17.9302 496.94 17.9302H501.555C501.838 17.9302 502.067 18.1597 502.067 18.4429C502.067 18.726 501.838 18.9555 501.555 18.9555H499.631ZM495.402 25.1078H498.991C499.274 25.1078 499.504 25.3373 499.504 25.6205C499.504 25.9036 499.274 26.1331 498.991 26.1331H495.402C495.119 26.1331 494.89 25.9036 494.89 25.6205C494.89 25.3373 495.119 25.1078 495.402 25.1078ZM502.091 25.8848L501.298 25.0918L500.505 25.8848C500.368 26.022 500.146 26.022 500.008 25.8848C499.871 25.7477 499.871 25.5253 500.008 25.3881L500.802 24.5951L500.008 23.802C499.871 23.6649 499.871 23.4425 500.008 23.3054C500.146 23.1682 500.368 23.1682 500.505 23.3054L501.298 24.0984L502.091 23.3054C502.228 23.1682 502.451 23.1682 502.588 23.3054C502.725 23.4425 502.725 23.6649 502.588 23.802L501.795 24.5951L502.588 25.3881C502.725 25.5253 502.725 25.7477 502.588 25.8848C502.451 26.022 502.228 26.022 502.091 25.8848Z" fill="#222F3E"/>
</g>
<defs>
<filter id="filter0_d_957_378" x="0.436572" y="0.974629" width="606.101" height="44.1648" filterUnits="userSpaceOnUse" color-interpolation-filters="sRGB">
<feFlood flood-opacity="0" result="BackgroundImageFix"/>
<feColorMatrix in="SourceAlpha" type="matrix" values="0 0 0 0 0 0 0 0 0 0 0 0 0 0 0 0 0 0 127 0" result="hardAlpha"/>
<feOffset dx="-0.512686" dy="1.02537"/>
<feGaussianBlur stdDeviation="1.02537"/>
<feColorMatrix type="matrix" values="0 0 0 0 0 0 0 0 0 0 0 0 0 0 0 0 0 0 0.08 0"/>
<feBlend mode="normal" in2="BackgroundImageFix" result="effect1_dropShadow_957_378"/>
<feBlend mode="normal" in="SourceGraphic" in2="effect1_dropShadow_957_378" result="shape"/>
</filter>
<clipPath id="clip0_957_378">
<rect width="12.3045" height="12.3045" fill="white" transform="translate(208.587 15.8795)"/>
</clipPath>
</defs>
<text font-size="12" font-family="Segoe UI" text-anchor="middle" alignment-baseline="central" fill="#6B707B" class="attribute-name-text" x="301" y="86">[No attribute selected]</text>
</svg>
