<svg width="607" height="151" viewBox="0 0 607 151" fill="none" xmlns="http://www.w3.org/2000/svg">
<g clip-path="url(#clip0_957_945)">
<path d="M3 41H605V146.071C605 148.336 603.164 150.173 600.899 150.173H7.10149C4.8363 150.173 3 148.336 3 146.071V41Z" fill="#313131"/>
<mask id="path-3-inside-1_957_945" fill="white">
<path d="M3 129.939H605V146.04C605 148.305 603.164 150.142 600.899 150.142H7.10149C4.8363 150.142 3 148.305 3 146.04V129.939Z"/>
</mask>
<path d="M3 129.939H605V146.04C605 148.305 603.164 150.142 600.899 150.142H7.10149C4.8363 150.142 3 148.305 3 146.04V129.939Z" fill="#3E3E3E"/>
<path d="M3 129.426H605V130.451H3V129.426ZM605 150.142H3H605ZM3 150.142V129.939V150.142ZM605 129.939V150.142V129.939Z" fill="#848484" mask="url(#path-3-inside-1_957_945)"/>
<path d="M562.125 144.038C561.59 144.038 561.134 143.892 560.758 143.601C560.381 143.308 560.094 142.883 559.895 142.326C559.696 141.768 559.597 141.093 559.597 140.302C559.597 139.516 559.696 138.845 559.895 138.289C560.096 137.73 560.385 137.304 560.761 137.01C561.14 136.714 561.595 136.566 562.125 136.566C562.655 136.566 563.109 136.714 563.485 137.01C563.864 137.304 564.153 137.73 564.352 138.289C564.553 138.845 564.653 139.516 564.653 140.302C564.653 141.093 564.554 141.768 564.355 142.326C564.156 142.883 563.869 143.308 563.492 143.601C563.116 143.892 562.66 144.038 562.125 144.038ZM562.125 143.257C562.655 143.257 563.067 143.001 563.361 142.49C563.654 141.978 563.801 141.249 563.801 140.302C563.801 139.673 563.734 139.136 563.599 138.694C563.466 138.251 563.274 137.914 563.023 137.681C562.775 137.449 562.475 137.333 562.125 137.333C561.599 137.333 561.189 137.593 560.893 138.111C560.597 138.627 560.449 139.358 560.449 140.302C560.449 140.932 560.515 141.467 560.648 141.907C560.78 142.348 560.971 142.683 561.219 142.912C561.47 143.142 561.772 143.257 562.125 143.257ZM570.065 143.939L568.403 138.484H569.284L570.463 142.66H570.52L571.685 138.484H572.58L573.73 142.646H573.787L574.966 138.484H575.847L574.185 143.939H573.361L572.168 139.748H572.082L570.889 143.939H570.065ZM578.985 144.052C578.492 144.052 578.06 143.935 577.689 143.701C577.319 143.466 577.031 143.138 576.822 142.717C576.616 142.296 576.513 141.803 576.513 141.24C576.513 140.672 576.616 140.176 576.822 139.752C577.031 139.328 577.319 138.999 577.689 138.765C578.06 138.53 578.492 138.413 578.985 138.413C579.477 138.413 579.908 138.53 580.278 138.765C580.649 138.999 580.938 139.328 581.144 139.752C581.352 140.176 581.456 140.672 581.456 141.24C581.456 141.803 581.352 142.296 581.144 142.717C580.938 143.138 580.649 143.466 580.278 143.701C579.908 143.935 579.477 144.052 578.985 144.052ZM578.985 143.299C579.359 143.299 579.667 143.204 579.908 143.012C580.15 142.82 580.328 142.568 580.444 142.255C580.56 141.943 580.618 141.604 580.618 141.24C580.618 140.875 580.56 140.535 580.444 140.221C580.328 139.906 580.15 139.651 579.908 139.457C579.667 139.263 579.359 139.166 578.985 139.166C578.611 139.166 578.303 139.263 578.062 139.457C577.82 139.651 577.641 139.906 577.525 140.221C577.409 140.535 577.351 140.875 577.351 141.24C577.351 141.604 577.409 141.943 577.525 142.255C577.641 142.568 577.82 142.82 578.062 143.012C578.303 143.204 578.611 143.299 578.985 143.299ZM582.736 143.939V138.484H583.545V139.308H583.602C583.702 139.038 583.882 138.819 584.142 138.651C584.402 138.483 584.696 138.399 585.023 138.399C585.084 138.399 585.161 138.4 585.254 138.402C585.346 138.405 585.416 138.408 585.463 138.413V139.265C585.435 139.258 585.37 139.248 585.268 139.233C585.168 139.217 585.063 139.208 584.952 139.208C584.687 139.208 584.45 139.264 584.241 139.375C584.036 139.484 583.872 139.636 583.751 139.83C583.633 140.022 583.574 140.241 583.574 140.487V143.939H582.736ZM588.35 144.052C587.896 144.052 587.494 143.937 587.146 143.708C586.798 143.476 586.526 143.149 586.33 142.728C586.133 142.304 586.035 141.803 586.035 141.226C586.035 140.653 586.133 140.155 586.33 139.734C586.526 139.313 586.799 138.987 587.15 138.757C587.5 138.528 587.905 138.413 588.364 138.413C588.719 138.413 589 138.472 589.206 138.591C589.414 138.707 589.573 138.839 589.682 138.988C589.793 139.135 589.879 139.256 589.941 139.351H590.012V136.666H590.85V143.939H590.04V143.101H589.941C589.879 143.2 589.792 143.325 589.678 143.477C589.565 143.626 589.402 143.76 589.192 143.878C588.981 143.994 588.701 144.052 588.35 144.052ZM588.464 143.299C588.8 143.299 589.084 143.212 589.316 143.037C589.548 142.859 589.724 142.614 589.845 142.302C589.966 141.987 590.026 141.623 590.026 141.211C590.026 140.804 589.967 140.448 589.849 140.142C589.73 139.835 589.555 139.596 589.323 139.425C589.091 139.252 588.805 139.166 588.464 139.166C588.109 139.166 587.813 139.257 587.576 139.439C587.342 139.619 587.165 139.864 587.047 140.174C586.931 140.482 586.873 140.828 586.873 141.211C586.873 141.6 586.932 141.952 587.05 142.27C587.171 142.584 587.349 142.835 587.583 143.022C587.82 143.207 588.113 143.299 588.464 143.299ZM596.365 139.706L595.612 139.919C595.565 139.793 595.495 139.671 595.403 139.553C595.313 139.432 595.19 139.333 595.033 139.255C594.877 139.177 594.677 139.137 594.433 139.137C594.099 139.137 593.821 139.214 593.599 139.368C593.379 139.52 593.268 139.713 593.268 139.947C593.268 140.155 593.344 140.32 593.496 140.441C593.647 140.561 593.884 140.662 594.206 140.743L595.016 140.941C595.503 141.06 595.867 141.241 596.106 141.485C596.345 141.726 596.464 142.038 596.464 142.419C596.464 142.731 596.375 143.011 596.195 143.257C596.017 143.503 595.768 143.697 595.449 143.839C595.129 143.981 594.758 144.052 594.334 144.052C593.777 144.052 593.317 143.931 592.952 143.69C592.588 143.449 592.357 143.096 592.26 142.632L593.055 142.433C593.131 142.726 593.274 142.947 593.485 143.093C593.698 143.24 593.976 143.314 594.32 143.314C594.71 143.314 595.02 143.231 595.25 143.065C595.482 142.897 595.598 142.696 595.598 142.461C595.598 142.272 595.532 142.113 595.399 141.985C595.267 141.855 595.063 141.758 594.788 141.694L593.879 141.481C593.38 141.363 593.013 141.179 592.778 140.931C592.546 140.68 592.43 140.366 592.43 139.99C592.43 139.682 592.517 139.41 592.69 139.173C592.865 138.936 593.103 138.75 593.403 138.615C593.706 138.481 594.05 138.413 594.433 138.413C594.973 138.413 595.397 138.531 595.705 138.768C596.015 139.005 596.235 139.317 596.365 139.706Z" fill="#C1C3C8"/>
</g>
<path d="M3.25634 41.2563H604.744V146.071C604.744 148.195 603.022 149.916 600.898 149.916H7.10149C4.97788 149.916 3.25634 148.195 3.25634 146.071V41.2563Z" stroke="#848484" stroke-width="0.512686"/>
<g>
<path d="M3 6.10148C3 3.83629 4.8363 2 7.10148 2H600.899C603.164 2 605 3.8363 605 6.10148V42.0633H3V6.10148Z" fill="#3E3E3E"/>
<path d="M7.10148 2.25634H600.898C603.022 2.25634 604.744 3.97787 604.744 6.10148V41.807H3.25634V6.10148C3.25634 3.97787 4.97787 2.25634 7.10148 2.25634Z" stroke="#848484" stroke-width="0.512686"/>
<path d="M20.944 19.6093C20.944 18.4634 19.8981 17.4175 18.7522 17.4175H14.4072V26.6459H19.1368C20.2826 26.6459 21.3285 25.6 21.3285 24.4542V23.4544C21.3285 22.8277 21.017 22.2317 20.5441 21.8164C20.794 21.4626 20.944 21.0435 20.944 20.609V19.6093ZM15.9453 18.9556H18.7522C19.056 18.9556 19.4059 19.3055 19.4059 19.6093V20.609C19.4059 20.9128 19.056 21.2627 18.7522 21.2627H15.9453V18.9556V18.9556ZM19.7904 24.4542C19.7904 24.7579 19.4405 25.1078 19.1368 25.1078H15.9453V22.8007H19.1368C19.4405 22.8007 19.7904 23.1506 19.7904 23.4544V24.4542Z" fill="#A4A4A4"/>
<path d="M39.4008 18.1866V17.4175H34.0176V18.1866H36.2862L35.5902 25.8769H33.2485V26.6459H38.6317V25.8769H36.3631L37.0591 18.1866H39.4008Z" fill="#A4A4A4"/>
<path d="M54.3966 24.9155H55.1657C56.2275 24.9155 57.0882 24.0547 57.0882 22.9929V17.802H56.3192V22.9929C56.3192 23.63 55.8028 24.1465 55.1657 24.1465H54.3966C53.7596 24.1465 53.2431 23.63 53.2431 22.9929L53.2431 17.802H52.4741V22.9929C52.4741 24.0547 53.3348 24.9155 54.3966 24.9155Z" fill="#A4A4A4"/>
<path d="M59.3953 25.8768H50.167V26.6458H59.3953V25.8768Z" fill="#A4A4A4"/>
<path d="M71.6999 18.7398C71.6999 18.5597 71.7701 18.4372 71.8835 18.3499C72.0071 18.2547 72.2044 18.1867 72.4612 18.1866L75.5429 18.2037L75.5472 17.4347L72.4643 17.4175H72.4622C72.0798 17.4175 71.7041 17.5174 71.4143 17.7406C71.1143 17.9716 70.9309 18.318 70.9309 18.7398V20.286C70.9309 20.86 71.25 21.3829 71.7528 21.6472H68.6238V22.4162H73.4963L74.6802 22.9356C74.9561 23.0567 75.136 23.3277 75.1402 23.6289L75.1605 25.0576C75.1597 25.2243 75.0659 25.4296 74.8806 25.604C74.6959 25.7777 74.4658 25.8768 74.2633 25.8768H70.5464V26.6458H74.2633C74.7005 26.6458 75.1113 26.4429 75.4076 26.1641C75.7023 25.8867 75.9295 25.4902 75.9295 25.0553V25.0526L75.9092 23.618C75.9024 23.1391 75.6738 22.6985 75.3032 22.4162H77.8521V21.6472H73.6575L72.16 20.9903C71.8804 20.8676 71.6999 20.5913 71.6999 20.286V18.7398Z" fill="#A4A4A4"/>
<path fill-rule="evenodd" clip-rule="evenodd" d="M97.3342 19.7246C97.3342 19.2999 97.6785 18.9556 98.1033 18.9556H100.41C100.835 18.9556 101.179 19.2999 101.179 19.7246V22.5444C101.179 22.7108 101.125 22.8727 101.026 23.0058L99.5644 24.954C99.3427 25.2496 98.8723 25.0928 98.8723 24.7233V22.8007H98.1033C97.6785 22.8007 97.3342 22.4564 97.3342 22.0317V19.7246ZM100.41 22.5444L99.6413 23.5697V22.0317H98.1033V19.7246H100.41V22.5444Z" fill="#A4A4A4"/>
<path fill-rule="evenodd" clip-rule="evenodd" d="M102.717 19.7246C102.717 19.2999 103.062 18.9556 103.486 18.9556H105.794C106.218 18.9556 106.563 19.2999 106.563 19.7246V22.5444C106.563 22.7108 106.509 22.8727 106.409 23.0058L104.948 24.954C104.726 25.2496 104.255 25.0928 104.255 24.7233V22.8007H103.486C103.062 22.8007 102.717 22.4564 102.717 22.0317V19.7246ZM105.794 22.5444L105.025 23.5697V22.0317H103.486V19.7246H105.794V22.5444Z" fill="#A4A4A4"/>
<path fill-rule="evenodd" clip-rule="evenodd" d="M118.037 24.8054C118.223 24.6256 118.228 24.3339 118.049 24.1476L116.351 22.5103L118.046 20.8757L118.049 20.8731C118.228 20.6868 118.223 20.3951 118.037 20.2152C117.852 20.0372 117.556 20.0322 117.365 20.2037L115.321 22.1756C115.13 22.3601 115.13 22.6606 115.321 22.8451L117.363 24.8145L117.365 24.817C117.556 24.9884 117.852 24.9835 118.037 24.8054ZM117.766 24.8333C117.65 24.8545 117.526 24.8238 117.434 24.7407L115.392 22.7713C115.243 22.6271 115.243 22.3935 115.392 22.2494L117.434 20.28C117.487 20.2318 117.552 20.2012 117.619 20.1882C117.552 20.2012 117.487 20.2318 117.434 20.28L115.392 22.2494C115.243 22.3936 115.243 22.6271 115.392 22.7713L117.434 24.7407C117.526 24.8238 117.65 24.8545 117.766 24.8333ZM124.461 22.5103L122.766 24.145L122.764 24.1476C122.584 24.3339 122.589 24.6256 122.776 24.8054C122.96 24.9835 123.256 24.9885 123.447 24.817L125.491 22.845C125.682 22.6606 125.682 22.3601 125.491 22.1756L123.45 20.2061L123.447 20.2037C123.256 20.0323 122.96 20.0372 122.776 20.2152C122.589 20.3951 122.584 20.6868 122.764 20.8732L124.461 22.5103ZM122.837 24.2188L124.608 22.5103L122.837 20.8019C122.697 20.6564 122.701 20.4296 122.847 20.289C122.902 20.2357 122.97 20.2021 123.042 20.1882C122.97 20.2021 122.902 20.2357 122.847 20.289C122.701 20.4296 122.697 20.6564 122.837 20.8019L124.609 22.5103L122.837 24.2188C122.697 24.3643 122.701 24.591 122.847 24.7316C122.94 24.8212 123.069 24.8553 123.189 24.8333C123.069 24.8553 122.94 24.8212 122.847 24.7316C122.701 24.591 122.697 24.3643 122.837 24.2188ZM119.455 17.6908C119.366 17.4438 119.094 17.3154 118.847 17.404C118.6 17.4927 118.471 17.7648 118.56 18.0119L121.661 26.6525C121.75 26.8995 122.022 27.028 122.269 26.9393C122.516 26.8506 122.644 26.5785 122.556 26.3314L119.455 17.6908ZM118.939 17.485C118.92 17.4886 118.9 17.4938 118.882 17.5005C118.688 17.5701 118.587 17.7835 118.657 17.9773L121.757 26.6179C121.818 26.7874 121.989 26.8857 122.161 26.861C121.989 26.8857 121.818 26.7874 121.758 26.6179L118.657 17.9772C118.587 17.7835 118.688 17.5701 118.882 17.5005C118.901 17.4938 118.92 17.4886 118.939 17.485Z" fill="#A4A4A4"/>
<path d="M144.501 17.4175H145.463C145.782 17.4175 146.039 17.6752 146.039 17.9943V21.2627H145.27V18.1866H144.501V17.4175Z" fill="#A4A4A4"/>
<path d="M146.808 24.3388C146.808 24.7618 146.462 25.1078 146.039 25.1078H145.27V25.8769H146.808V26.6459H145.27C144.847 26.6459 144.501 26.2998 144.501 25.8769V25.1078C144.501 24.6849 144.847 24.3388 145.27 24.3388H146.039V23.5698H144.501V22.8007H146.039C146.462 22.8007 146.808 23.1468 146.808 23.5698V24.3388Z" fill="#A4A4A4"/>
<path d="M148.346 18.9556H153.73V19.7246H148.346V18.9556Z" fill="#A4A4A4"/>
<path d="M153.73 24.3388H148.346V25.1078H153.73V24.3388Z" fill="#A4A4A4"/>
<path d="M165.265 18.1865H172.186V18.9556H165.265V18.1865Z" fill="#A4A4A4"/>
<path d="M165.265 21.6472H172.186V22.4162H165.265V21.6472Z" fill="#A4A4A4"/>
<path d="M172.186 25.1078H165.265V25.8768H172.186V25.1078Z" fill="#A4A4A4"/>
<path d="M162.958 21.6472H163.727V22.4162H162.958V21.6472Z" fill="#A4A4A4"/>
<path d="M163.727 18.1865H162.958V18.9556H163.727V18.1865Z" fill="#A4A4A4"/>
<path d="M162.958 25.1078H163.727V25.8768H162.958V25.1078Z" fill="#A4A4A4"/>
<path d="M195.514 18.1866V26.6459H194.745V18.1866H191.668V17.4175H198.59V18.1866H195.514Z" fill="#A4A4A4"/>
<path d="M200.897 23.9543C200.897 24.3772 200.551 24.7233 200.128 24.7233H198.974V25.8769H200.897V26.6459H198.974C198.551 26.6459 198.205 26.2998 198.205 25.8769V24.7233C198.205 24.3003 198.551 23.9543 198.974 23.9543H200.128V22.8007H198.205V22.0317H200.128C200.551 22.0317 200.897 22.3778 200.897 22.8007V23.9543Z" fill="#A4A4A4"/>
<g clip-path="url(#clip1_957_945)">
<path d="M217.431 16.6485H219.354C219.777 16.6485 220.123 16.9946 220.123 17.4175V18.5711C220.123 18.994 219.777 19.3401 219.354 19.3401H218.2V20.4936H220.123V21.2627H218.2C217.777 21.2627 217.431 20.9166 217.431 20.4936V19.3401C217.431 18.9171 217.777 18.5711 218.2 18.5711H219.354V17.4175H217.431V16.6485Z" fill="#A4A4A4"/>
<path d="M213.201 26.6459H212.432V18.1866H209.356V17.4175H216.277V18.1866H213.201V26.6459Z" fill="#A4A4A4"/>
</g>
<path d="M242.681 18.1865H243.45V25.8768H242.681V18.1865Z" fill="#A4A4A4"/>
<path d="M246.637 20.2206L247.183 20.7666L246.299 21.6472H248.833V22.4162H246.299L247.183 23.2967L246.637 23.8427L244.83 22.0317L246.637 20.2206Z" fill="#A4A4A4"/>
<path d="M241.912 20.4936H238.066V21.2626H241.912V20.4936Z" fill="#A4A4A4"/>
<path d="M238.066 22.8007H240.373V23.5697H238.066V22.8007Z" fill="#A4A4A4"/>
<path d="M240.373 18.1865H238.066V18.9556H240.373V18.1865Z" fill="#A4A4A4"/>
<path d="M238.066 25.1078H241.912V25.8768H238.066V25.1078Z" fill="#A4A4A4"/>
<path d="M261.906 18.1865H262.675V25.8768H261.906V18.1865Z" fill="#A4A4A4"/>
<path d="M263.444 20.4936H267.29V21.2626H263.444V20.4936Z" fill="#A4A4A4"/>
<path d="M263.444 22.8007H265.752V23.5697H263.444V22.8007Z" fill="#A4A4A4"/>
<path d="M267.29 25.1078H263.444V25.8768H267.29V25.1078Z" fill="#A4A4A4"/>
<path d="M258.173 23.2967L258.719 23.8427L260.526 22.0317L258.719 20.2206L258.173 20.7666L259.057 21.6472H256.523V22.4162H259.057L258.173 23.2967Z" fill="#A4A4A4"/>
<path d="M263.444 18.1865H265.752V18.9556H263.444V18.1865Z" fill="#A4A4A4"/>
<path d="M293.693 19.2119H293.436V19.4682V25.1078C293.436 25.2494 293.322 25.3641 293.18 25.3641C293.038 25.3641 292.924 25.2494 292.924 25.1078V19.4682V19.2119H292.667H291.642H291.386V19.4682V25.1078C291.386 25.2494 291.271 25.3641 291.129 25.3641C290.988 25.3641 290.873 25.2494 290.873 25.1078V22.0317V21.7753H290.617C290.405 21.7753 290.208 21.7342 290.023 21.6528L290.023 21.6527L290.018 21.6507C289.829 21.5724 289.667 21.4641 289.528 21.3257C289.39 21.1873 289.282 21.0248 289.203 20.836L289.203 20.836L289.201 20.8312C289.12 20.6456 289.079 20.4485 289.079 20.2373C289.079 20.0261 289.12 19.829 289.201 19.6434L289.201 19.6434L289.203 19.6385C289.282 19.4497 289.39 19.2872 289.528 19.1488C289.667 19.0104 289.829 18.9021 290.018 18.8239L290.018 18.8239L290.023 18.8218C290.208 18.7403 290.405 18.6992 290.617 18.6992H294.205C294.347 18.6992 294.462 18.814 294.462 18.9556C294.462 19.0971 294.347 19.2119 294.205 19.2119H293.693ZM288.297 23.783L288.617 23.5697L288.297 23.3564L287.398 22.7576C287.281 22.6791 287.249 22.52 287.327 22.4022C287.406 22.2844 287.565 22.2525 287.683 22.3311L289.221 23.3564C289.373 23.4579 289.373 23.6816 289.221 23.783L287.683 24.8084C287.565 24.8869 287.406 24.8551 287.327 24.7373C287.249 24.6195 287.281 24.4603 287.398 24.3818L288.297 23.783Z" fill="#A4A4A4" stroke="#A4A4A4" stroke-width="0.512686"/>
<path fill-rule="evenodd" clip-rule="evenodd" d="M321.211 23.662L320.757 22.0317H317.808L317.401 23.6505L316.655 23.462L318.047 17.902C318.135 17.6059 318.393 17.4136 318.685 17.4136H319.773C320.061 17.4136 320.315 17.5982 320.404 17.8712L321.953 23.4544L321.211 23.662ZM319.688 18.1865H318.758L317.989 21.2626H320.542L319.688 18.1865Z" fill="#A4A4A4"/>
<path fill-rule="evenodd" clip-rule="evenodd" d="M315.29 24.3387H323.364C323.684 24.3387 323.941 24.5964 323.941 24.9155V26.0691C323.941 26.3882 323.684 26.6458 323.364 26.6458H315.29C314.971 26.6458 314.713 26.3882 314.713 26.0691V24.9155C314.713 24.5964 314.971 24.3387 315.29 24.3387ZM315.482 25.8768H323.172V25.1078H315.482V25.8768Z" fill="#A4A4A4"/>
<path fill-rule="evenodd" clip-rule="evenodd" d="M337.138 18.9556H338.234C338.522 18.9556 338.776 19.1402 338.864 19.4132L340.414 24.9963L339.672 25.204L339.218 23.5736H336.261L335.854 25.1924L335.108 25.004L336.5 19.4439C336.588 19.1479 336.846 18.9556 337.138 18.9556ZM337.219 19.7246L336.45 22.8007H338.999L338.145 19.7246H337.219Z" fill="#A4A4A4"/>
<path fill-rule="evenodd" clip-rule="evenodd" d="M333.939 17.4175H341.629C342.052 17.4175 342.398 17.7636 342.398 18.1866V25.8769C342.398 26.2998 342.052 26.6459 341.629 26.6459H333.939C333.516 26.6459 333.17 26.2998 333.17 25.8769V18.1866C333.17 17.7636 333.516 17.4175 333.939 17.4175ZM333.939 18.1866V25.8769H341.629V18.1866H333.939Z" fill="#A4A4A4"/>
<rect x="358.547" y="13.288" width="83.9694" height="17.4873" rx="1.7944" fill="#313131"/>
<rect x="358.547" y="13.288" width="83.9694" height="17.4873" rx="1.7944" stroke="#848484" stroke-width="0.512686"/>
<path d="M369.303 23.7524C369.303 24.5063 369.029 25.0942 368.482 25.5161C367.936 25.9379 367.193 26.1489 366.256 26.1489C365.24 26.1489 364.459 26.018 363.912 25.7563V24.7953C364.264 24.9438 364.646 25.061 365.061 25.1469C365.475 25.2328 365.885 25.2758 366.291 25.2758C366.955 25.2758 367.455 25.1508 367.791 24.9008C368.127 24.6469 368.295 24.2953 368.295 23.8461C368.295 23.5493 368.234 23.3071 368.113 23.1196C367.996 22.9282 367.797 22.7524 367.516 22.5922C367.238 22.4321 366.814 22.2504 366.244 22.0473C365.447 21.7621 364.877 21.4243 364.533 21.0336C364.193 20.643 364.023 20.1332 364.023 19.5043C364.023 18.8442 364.271 18.3188 364.768 17.9282C365.264 17.5375 365.92 17.3422 366.736 17.3422C367.588 17.3422 368.371 17.4985 369.086 17.811L368.775 18.6782C368.068 18.3813 367.381 18.2328 366.713 18.2328C366.186 18.2328 365.773 18.3461 365.477 18.5727C365.18 18.7993 365.031 19.1137 365.031 19.5161C365.031 19.8129 365.086 20.0571 365.195 20.2485C365.305 20.436 365.488 20.6098 365.746 20.77C366.008 20.9262 366.406 21.1 366.941 21.2914C367.84 21.6118 368.457 21.9555 368.793 22.3227C369.133 22.6899 369.303 23.1664 369.303 23.7524ZM374.857 26.0317L374.664 25.1176H374.617C374.297 25.52 373.977 25.7934 373.656 25.9379C373.34 26.0786 372.943 26.1489 372.467 26.1489C371.83 26.1489 371.33 25.9848 370.967 25.6567C370.607 25.3286 370.428 24.8618 370.428 24.2563C370.428 22.9594 371.465 22.2797 373.539 22.2172L374.629 22.1821V21.7836C374.629 21.2797 374.52 20.9086 374.301 20.6703C374.086 20.4282 373.74 20.3071 373.264 20.3071C372.729 20.3071 372.123 20.4711 371.447 20.7993L371.148 20.0551C371.465 19.8832 371.811 19.7485 372.186 19.6508C372.564 19.5532 372.943 19.5043 373.322 19.5043C374.088 19.5043 374.654 19.6743 375.021 20.0141C375.393 20.3539 375.578 20.8989 375.578 21.6489V26.0317H374.857ZM372.66 25.3461C373.266 25.3461 373.74 25.1801 374.084 24.8481C374.432 24.5161 374.605 24.0512 374.605 23.4536V22.8735L373.633 22.9145C372.859 22.9418 372.301 23.0629 371.957 23.2778C371.617 23.4887 371.447 23.8188 371.447 24.268C371.447 24.6196 371.553 24.8871 371.764 25.0707C371.979 25.2543 372.277 25.3461 372.66 25.3461ZM381.982 26.0317V21.8774C381.982 21.3539 381.863 20.9633 381.625 20.7055C381.387 20.4477 381.014 20.3188 380.506 20.3188C379.834 20.3188 379.342 20.5004 379.029 20.8637C378.717 21.227 378.561 21.8266 378.561 22.6625V26.0317H377.588V19.6098H378.379L378.537 20.4887H378.584C378.783 20.1723 379.062 19.9282 379.422 19.7563C379.781 19.5805 380.182 19.4926 380.623 19.4926C381.396 19.4926 381.979 19.6801 382.369 20.0551C382.76 20.4262 382.955 21.0219 382.955 21.8422V26.0317H381.982ZM389.102 24.2797C389.102 24.8774 388.879 25.3383 388.434 25.6625C387.988 25.9868 387.363 26.1489 386.559 26.1489C385.707 26.1489 385.043 26.0141 384.566 25.7446V24.8422C384.875 24.9985 385.205 25.1215 385.557 25.2114C385.912 25.3012 386.254 25.3461 386.582 25.3461C387.09 25.3461 387.48 25.2661 387.754 25.1059C388.027 24.9418 388.164 24.6938 388.164 24.3618C388.164 24.1118 388.055 23.8989 387.836 23.7231C387.621 23.5434 387.199 23.3325 386.57 23.0903C385.973 22.8676 385.547 22.6743 385.293 22.5102C385.043 22.3422 384.855 22.1528 384.73 21.9418C384.609 21.7309 384.549 21.4789 384.549 21.186C384.549 20.6625 384.762 20.2504 385.188 19.9496C385.613 19.645 386.197 19.4926 386.939 19.4926C387.631 19.4926 388.307 19.6332 388.967 19.9145L388.621 20.7055C387.977 20.4399 387.393 20.3071 386.869 20.3071C386.408 20.3071 386.061 20.3793 385.826 20.5239C385.592 20.6684 385.475 20.8676 385.475 21.1215C385.475 21.2934 385.518 21.4399 385.604 21.561C385.693 21.6821 385.836 21.7973 386.031 21.9067C386.227 22.0161 386.602 22.1743 387.156 22.3813C387.918 22.6586 388.432 22.9379 388.697 23.2192C388.967 23.5004 389.102 23.8539 389.102 24.2797ZM398.787 23.7524C398.787 24.5063 398.514 25.0942 397.967 25.5161C397.42 25.9379 396.678 26.1489 395.74 26.1489C394.725 26.1489 393.943 26.018 393.396 25.7563V24.7953C393.748 24.9438 394.131 25.061 394.545 25.1469C394.959 25.2328 395.369 25.2758 395.775 25.2758C396.439 25.2758 396.939 25.1508 397.275 24.9008C397.611 24.6469 397.779 24.2953 397.779 23.8461C397.779 23.5493 397.719 23.3071 397.598 23.1196C397.48 22.9282 397.281 22.7524 397 22.5922C396.723 22.4321 396.299 22.2504 395.729 22.0473C394.932 21.7621 394.361 21.4243 394.018 21.0336C393.678 20.643 393.508 20.1332 393.508 19.5043C393.508 18.8442 393.756 18.3188 394.252 17.9282C394.748 17.5375 395.404 17.3422 396.221 17.3422C397.072 17.3422 397.855 17.4985 398.57 17.811L398.26 18.6782C397.553 18.3813 396.865 18.2328 396.197 18.2328C395.67 18.2328 395.258 18.3461 394.961 18.5727C394.664 18.7993 394.516 19.1137 394.516 19.5161C394.516 19.8129 394.57 20.0571 394.68 20.2485C394.789 20.436 394.973 20.6098 395.23 20.77C395.492 20.9262 395.891 21.1 396.426 21.2914C397.324 21.6118 397.941 21.9555 398.277 22.3227C398.617 22.6899 398.787 23.1664 398.787 23.7524ZM403.105 26.1489C402.156 26.1489 401.406 25.8598 400.855 25.2817C400.309 24.7036 400.035 23.9008 400.035 22.8735C400.035 21.8383 400.289 21.0161 400.797 20.4067C401.309 19.7973 401.994 19.4926 402.854 19.4926C403.658 19.4926 404.295 19.7582 404.764 20.2895C405.232 20.8168 405.467 21.5141 405.467 22.3813V22.9965H401.043C401.062 23.7504 401.252 24.3227 401.611 24.7133C401.975 25.1039 402.484 25.2993 403.141 25.2993C403.832 25.2993 404.516 25.1547 405.191 24.8657V25.7328C404.848 25.8813 404.521 25.9868 404.213 26.0493C403.908 26.1157 403.539 26.1489 403.105 26.1489ZM402.842 20.3071C402.326 20.3071 401.914 20.475 401.605 20.811C401.301 21.1469 401.121 21.6118 401.066 22.2055H404.424C404.424 21.5922 404.287 21.1235 404.014 20.7993C403.74 20.4711 403.35 20.3071 402.842 20.3071ZM410.061 19.4926C410.346 19.4926 410.602 19.5161 410.828 19.5629L410.693 20.4653C410.428 20.4067 410.193 20.3774 409.99 20.3774C409.471 20.3774 409.025 20.5883 408.654 21.0102C408.287 21.4321 408.104 21.9575 408.104 22.5864V26.0317H407.131V19.6098H407.934L408.045 20.7993H408.092C408.33 20.3813 408.617 20.059 408.953 19.8325C409.289 19.6059 409.658 19.4926 410.061 19.4926ZM413.002 26.0317H412.029V19.6098H413.002V26.0317ZM411.947 17.8696C411.947 17.6469 412.002 17.4848 412.111 17.3832C412.221 17.2778 412.357 17.225 412.521 17.225C412.678 17.225 412.812 17.2778 412.926 17.3832C413.039 17.4887 413.096 17.6508 413.096 17.8696C413.096 18.0883 413.039 18.2524 412.926 18.3618C412.812 18.4672 412.678 18.52 412.521 18.52C412.357 18.52 412.221 18.4672 412.111 18.3618C412.002 18.2524 411.947 18.0883 411.947 17.8696ZM417.959 20.3657H416.324V26.0317H415.352V20.3657H414.203V19.9262L415.352 19.5746V19.2172C415.352 17.6391 416.041 16.85 417.42 16.85C417.76 16.85 418.158 16.9184 418.615 17.0551L418.363 17.8344C417.988 17.7133 417.668 17.6528 417.402 17.6528C417.035 17.6528 416.764 17.7758 416.588 18.0219C416.412 18.2641 416.324 18.6547 416.324 19.1938V19.6098H417.959V20.3657Z" fill="#A4A4A4"/>
<path d="M433.672 23.1779L431.219 20.725C431.185 20.6916 431.185 20.6375 431.219 20.6041C431.252 20.5708 431.306 20.5708 431.339 20.6041L433.49 22.755L433.672 22.9362L433.853 22.755L436.004 20.6041C436.037 20.5708 436.091 20.5708 436.125 20.6041C436.158 20.6375 436.158 20.6916 436.125 20.725L433.672 23.1779Z" fill="#90969E" stroke="#90969E" stroke-width="0.512686"/>
<path d="M459.051 18.1865H465.203V18.9556H459.051V18.1865Z" fill="#A4A4A4"/>
<path d="M459.051 20.4936H467.51V21.2626H459.051V20.4936Z" fill="#A4A4A4"/>
<path d="M467.51 25.1078H459.051V25.8768H467.51V25.1078Z" fill="#A4A4A4"/>
<path d="M459.051 22.8007H465.203V23.5697H459.051V22.8007Z" fill="#A4A4A4"/>
<path fill-rule="evenodd" clip-rule="evenodd" d="M492.631 18.9555C492.63 18.9922 492.625 19.0292 492.615 19.0662L492.615 19.0674L491.274 24.2117C491.215 24.4375 491.011 24.5951 490.778 24.5951H490.641C490.414 24.5951 490.23 24.4109 490.23 24.1838C490.23 24.1486 490.234 24.1137 490.243 24.0797L491.583 18.9555H489.94C489.657 18.9555 489.428 18.726 489.428 18.4429C489.428 18.1597 489.657 17.9302 489.94 17.9302H494.555C494.838 17.9302 495.067 18.1597 495.067 18.4429C495.067 18.726 494.838 18.9555 494.555 18.9555H492.631ZM488.402 25.1078H491.991C492.274 25.1078 492.504 25.3373 492.504 25.6205C492.504 25.9036 492.274 26.1331 491.991 26.1331H488.402C488.119 26.1331 487.89 25.9036 487.89 25.6205C487.89 25.3373 488.119 25.1078 488.402 25.1078ZM495.091 25.8848L494.298 25.0918L493.505 25.8848C493.368 26.022 493.146 26.022 493.008 25.8848C492.871 25.7477 492.871 25.5253 493.008 25.3881L493.802 24.5951L493.008 23.802C492.871 23.6649 492.871 23.4425 493.008 23.3054C493.146 23.1682 493.368 23.1682 493.505 23.3054L494.298 24.0984L495.091 23.3054C495.228 23.1682 495.451 23.1682 495.588 23.3054C495.725 23.4425 495.725 23.6649 495.588 23.802L494.795 24.5951L495.588 25.3881C495.725 25.5253 495.725 25.7477 495.588 25.8848C495.451 26.022 495.228 26.022 495.091 25.8848Z" fill="#A4A4A4"/>
</g>
<defs>
<filter id="filter0_d_957_945" x="0.436572" y="0.974629" width="606.101" height="44.1648" filterUnits="userSpaceOnUse" color-interpolation-filters="sRGB">
<feFlood flood-opacity="0" result="BackgroundImageFix"/>
<feColorMatrix in="SourceAlpha" type="matrix" values="0 0 0 0 0 0 0 0 0 0 0 0 0 0 0 0 0 0 127 0" result="hardAlpha"/>
<feOffset dx="-0.512686" dy="1.02537"/>
<feGaussianBlur stdDeviation="1.02537"/>
<feColorMatrix type="matrix" values="0 0 0 0 0 0 0 0 0 0 0 0 0 0 0 0 0 0 0.08 0"/>
<feBlend mode="normal" in2="BackgroundImageFix" result="effect1_dropShadow_957_945"/>
<feBlend mode="normal" in="SourceGraphic" in2="effect1_dropShadow_957_945" result="shape"/>
</filter>
<clipPath id="clip0_957_945">
<path d="M3 41H605V146.071C605 148.336 603.164 150.173 600.899 150.173H7.10149C4.8363 150.173 3 148.336 3 146.071V41Z" fill="white"/>
</clipPath>
<clipPath id="clip1_957_945">
<rect width="12.3045" height="12.3045" fill="white" transform="translate(208.587 15.8795)"/>
</clipPath>
</defs>
<text font-size="12" font-family="Segoe UI" text-anchor="middle" alignment-baseline="central" fill="#EDEDED" class="attribute-name-text" x="301" y="86">[No attribute selected]</text>
</svg>
